%TF.GenerationSoftware,KiCad,Pcbnew,(5.1.10)-1*%
%TF.CreationDate,2022-04-16T20:13:42-07:00*%
%TF.ProjectId,S8-CO2 Sensor KiCAD,53382d43-4f32-4205-9365-6e736f72204b,rev?*%
%TF.SameCoordinates,Original*%
%TF.FileFunction,Legend,Bot*%
%TF.FilePolarity,Positive*%
%FSLAX46Y46*%
G04 Gerber Fmt 4.6, Leading zero omitted, Abs format (unit mm)*
G04 Created by KiCad (PCBNEW (5.1.10)-1) date 2022-04-16 20:13:42*
%MOMM*%
%LPD*%
G01*
G04 APERTURE LIST*
%ADD10C,0.150000*%
G04 APERTURE END LIST*
D10*
X163107619Y-107878571D02*
X162964761Y-107926190D01*
X162917142Y-107973809D01*
X162869523Y-108069047D01*
X162869523Y-108211904D01*
X162917142Y-108307142D01*
X162964761Y-108354761D01*
X163060000Y-108402380D01*
X163440952Y-108402380D01*
X163440952Y-107402380D01*
X163107619Y-107402380D01*
X163012380Y-107450000D01*
X162964761Y-107497619D01*
X162917142Y-107592857D01*
X162917142Y-107688095D01*
X162964761Y-107783333D01*
X163012380Y-107830952D01*
X163107619Y-107878571D01*
X163440952Y-107878571D01*
X162440952Y-108021428D02*
X161679047Y-108021428D01*
X163107619Y-101528571D02*
X162964761Y-101576190D01*
X162917142Y-101623809D01*
X162869523Y-101719047D01*
X162869523Y-101861904D01*
X162917142Y-101957142D01*
X162964761Y-102004761D01*
X163060000Y-102052380D01*
X163440952Y-102052380D01*
X163440952Y-101052380D01*
X163107619Y-101052380D01*
X163012380Y-101100000D01*
X162964761Y-101147619D01*
X162917142Y-101242857D01*
X162917142Y-101338095D01*
X162964761Y-101433333D01*
X163012380Y-101480952D01*
X163107619Y-101528571D01*
X163440952Y-101528571D01*
X162440952Y-101671428D02*
X161679047Y-101671428D01*
X165647619Y-107878571D02*
X165504761Y-107926190D01*
X165457142Y-107973809D01*
X165409523Y-108069047D01*
X165409523Y-108211904D01*
X165457142Y-108307142D01*
X165504761Y-108354761D01*
X165600000Y-108402380D01*
X165980952Y-108402380D01*
X165980952Y-107402380D01*
X165647619Y-107402380D01*
X165552380Y-107450000D01*
X165504761Y-107497619D01*
X165457142Y-107592857D01*
X165457142Y-107688095D01*
X165504761Y-107783333D01*
X165552380Y-107830952D01*
X165647619Y-107878571D01*
X165980952Y-107878571D01*
X164980952Y-108021428D02*
X164219047Y-108021428D01*
X164600000Y-108402380D02*
X164600000Y-107640476D01*
X165647619Y-101528571D02*
X165504761Y-101576190D01*
X165457142Y-101623809D01*
X165409523Y-101719047D01*
X165409523Y-101861904D01*
X165457142Y-101957142D01*
X165504761Y-102004761D01*
X165600000Y-102052380D01*
X165980952Y-102052380D01*
X165980952Y-101052380D01*
X165647619Y-101052380D01*
X165552380Y-101100000D01*
X165504761Y-101147619D01*
X165457142Y-101242857D01*
X165457142Y-101338095D01*
X165504761Y-101433333D01*
X165552380Y-101480952D01*
X165647619Y-101528571D01*
X165980952Y-101528571D01*
X164980952Y-101671428D02*
X164219047Y-101671428D01*
X164600000Y-102052380D02*
X164600000Y-101290476D01*
X165870000Y-89527142D02*
X165822380Y-89431904D01*
X165822380Y-89289047D01*
X165870000Y-89146190D01*
X165965238Y-89050952D01*
X166060476Y-89003333D01*
X166250952Y-88955714D01*
X166393809Y-88955714D01*
X166584285Y-89003333D01*
X166679523Y-89050952D01*
X166774761Y-89146190D01*
X166822380Y-89289047D01*
X166822380Y-89384285D01*
X166774761Y-89527142D01*
X166727142Y-89574761D01*
X166393809Y-89574761D01*
X166393809Y-89384285D01*
X166155714Y-90003333D02*
X166822380Y-90003333D01*
X166250952Y-90003333D02*
X166203333Y-90050952D01*
X166155714Y-90146190D01*
X166155714Y-90289047D01*
X166203333Y-90384285D01*
X166298571Y-90431904D01*
X166822380Y-90431904D01*
X166822380Y-91336666D02*
X165822380Y-91336666D01*
X166774761Y-91336666D02*
X166822380Y-91241428D01*
X166822380Y-91050952D01*
X166774761Y-90955714D01*
X166727142Y-90908095D01*
X166631904Y-90860476D01*
X166346190Y-90860476D01*
X166250952Y-90908095D01*
X166203333Y-90955714D01*
X166155714Y-91050952D01*
X166155714Y-91241428D01*
X166203333Y-91336666D01*
X165822380Y-92527619D02*
X165822380Y-92718095D01*
X165870000Y-92813333D01*
X165965238Y-92908571D01*
X166155714Y-92956190D01*
X166489047Y-92956190D01*
X166679523Y-92908571D01*
X166774761Y-92813333D01*
X166822380Y-92718095D01*
X166822380Y-92527619D01*
X166774761Y-92432380D01*
X166679523Y-92337142D01*
X166489047Y-92289523D01*
X166155714Y-92289523D01*
X165965238Y-92337142D01*
X165870000Y-92432380D01*
X165822380Y-92527619D01*
X166155714Y-93813333D02*
X166822380Y-93813333D01*
X166155714Y-93384761D02*
X166679523Y-93384761D01*
X166774761Y-93432380D01*
X166822380Y-93527619D01*
X166822380Y-93670476D01*
X166774761Y-93765714D01*
X166727142Y-93813333D01*
X166155714Y-94146666D02*
X166155714Y-94527619D01*
X165822380Y-94289523D02*
X166679523Y-94289523D01*
X166774761Y-94337142D01*
X166822380Y-94432380D01*
X166822380Y-94527619D01*
X166441428Y-94860952D02*
X166441428Y-95622857D01*
X166822380Y-95241904D02*
X166060476Y-95241904D01*
X166441428Y-85074285D02*
X166441428Y-85836190D01*
X166822380Y-85455238D02*
X166060476Y-85455238D01*
X165822380Y-86788571D02*
X165822380Y-86312380D01*
X166298571Y-86264761D01*
X166250952Y-86312380D01*
X166203333Y-86407619D01*
X166203333Y-86645714D01*
X166250952Y-86740952D01*
X166298571Y-86788571D01*
X166393809Y-86836190D01*
X166631904Y-86836190D01*
X166727142Y-86788571D01*
X166774761Y-86740952D01*
X166822380Y-86645714D01*
X166822380Y-86407619D01*
X166774761Y-86312380D01*
X166727142Y-86264761D01*
X165822380Y-87121904D02*
X166822380Y-87455238D01*
X165822380Y-87788571D01*
X165870000Y-81907142D02*
X165822380Y-81811904D01*
X165822380Y-81669047D01*
X165870000Y-81526190D01*
X165965238Y-81430952D01*
X166060476Y-81383333D01*
X166250952Y-81335714D01*
X166393809Y-81335714D01*
X166584285Y-81383333D01*
X166679523Y-81430952D01*
X166774761Y-81526190D01*
X166822380Y-81669047D01*
X166822380Y-81764285D01*
X166774761Y-81907142D01*
X166727142Y-81954761D01*
X166393809Y-81954761D01*
X166393809Y-81764285D01*
X166155714Y-82383333D02*
X166822380Y-82383333D01*
X166250952Y-82383333D02*
X166203333Y-82430952D01*
X166155714Y-82526190D01*
X166155714Y-82669047D01*
X166203333Y-82764285D01*
X166298571Y-82811904D01*
X166822380Y-82811904D01*
X166822380Y-83716666D02*
X165822380Y-83716666D01*
X166774761Y-83716666D02*
X166822380Y-83621428D01*
X166822380Y-83430952D01*
X166774761Y-83335714D01*
X166727142Y-83288095D01*
X166631904Y-83240476D01*
X166346190Y-83240476D01*
X166250952Y-83288095D01*
X166203333Y-83335714D01*
X166155714Y-83430952D01*
X166155714Y-83621428D01*
X166203333Y-83716666D01*
X116640476Y-104931547D02*
X116545238Y-104645833D01*
X116545238Y-104169642D01*
X116640476Y-103979166D01*
X116735714Y-103883928D01*
X116926190Y-103788690D01*
X117116666Y-103788690D01*
X117307142Y-103883928D01*
X117402380Y-103979166D01*
X117497619Y-104169642D01*
X117592857Y-104550595D01*
X117688095Y-104741071D01*
X117783333Y-104836309D01*
X117973809Y-104931547D01*
X118164285Y-104931547D01*
X118354761Y-104836309D01*
X118450000Y-104741071D01*
X118545238Y-104550595D01*
X118545238Y-104074404D01*
X118450000Y-103788690D01*
X116640476Y-102169642D02*
X116545238Y-102360119D01*
X116545238Y-102741071D01*
X116640476Y-102931547D01*
X116830952Y-103026785D01*
X117592857Y-103026785D01*
X117783333Y-102931547D01*
X117878571Y-102741071D01*
X117878571Y-102360119D01*
X117783333Y-102169642D01*
X117592857Y-102074404D01*
X117402380Y-102074404D01*
X117211904Y-103026785D01*
X117878571Y-101217261D02*
X116545238Y-101217261D01*
X117688095Y-101217261D02*
X117783333Y-101122023D01*
X117878571Y-100931547D01*
X117878571Y-100645833D01*
X117783333Y-100455357D01*
X117592857Y-100360119D01*
X116545238Y-100360119D01*
X116640476Y-99502976D02*
X116545238Y-99312500D01*
X116545238Y-98931547D01*
X116640476Y-98741071D01*
X116830952Y-98645833D01*
X116926190Y-98645833D01*
X117116666Y-98741071D01*
X117211904Y-98931547D01*
X117211904Y-99217261D01*
X117307142Y-99407738D01*
X117497619Y-99502976D01*
X117592857Y-99502976D01*
X117783333Y-99407738D01*
X117878571Y-99217261D01*
X117878571Y-98931547D01*
X117783333Y-98741071D01*
X116640476Y-97026785D02*
X116545238Y-97217261D01*
X116545238Y-97598214D01*
X116640476Y-97788690D01*
X116830952Y-97883928D01*
X117592857Y-97883928D01*
X117783333Y-97788690D01*
X117878571Y-97598214D01*
X117878571Y-97217261D01*
X117783333Y-97026785D01*
X117592857Y-96931547D01*
X117402380Y-96931547D01*
X117211904Y-97883928D01*
X117116666Y-96169642D02*
X117116666Y-95217261D01*
X116545238Y-96360119D02*
X118545238Y-95693452D01*
X116545238Y-95026785D01*
X116545238Y-94360119D02*
X117878571Y-94360119D01*
X118545238Y-94360119D02*
X118450000Y-94455357D01*
X118354761Y-94360119D01*
X118450000Y-94264880D01*
X118545238Y-94360119D01*
X118354761Y-94360119D01*
X116545238Y-93407738D02*
X117878571Y-93407738D01*
X117497619Y-93407738D02*
X117688095Y-93312500D01*
X117783333Y-93217261D01*
X117878571Y-93026785D01*
X117878571Y-92836309D01*
X116640476Y-90741071D02*
X116545238Y-90455357D01*
X116545238Y-89979166D01*
X116640476Y-89788690D01*
X116735714Y-89693452D01*
X116926190Y-89598214D01*
X117116666Y-89598214D01*
X117307142Y-89693452D01*
X117402380Y-89788690D01*
X117497619Y-89979166D01*
X117592857Y-90360119D01*
X117688095Y-90550595D01*
X117783333Y-90645833D01*
X117973809Y-90741071D01*
X118164285Y-90741071D01*
X118354761Y-90645833D01*
X118450000Y-90550595D01*
X118545238Y-90360119D01*
X118545238Y-89883928D01*
X118450000Y-89598214D01*
X117688095Y-88455357D02*
X117783333Y-88645833D01*
X117878571Y-88741071D01*
X118069047Y-88836309D01*
X118164285Y-88836309D01*
X118354761Y-88741071D01*
X118450000Y-88645833D01*
X118545238Y-88455357D01*
X118545238Y-88074404D01*
X118450000Y-87883928D01*
X118354761Y-87788690D01*
X118164285Y-87693452D01*
X118069047Y-87693452D01*
X117878571Y-87788690D01*
X117783333Y-87883928D01*
X117688095Y-88074404D01*
X117688095Y-88455357D01*
X117592857Y-88645833D01*
X117497619Y-88741071D01*
X117307142Y-88836309D01*
X116926190Y-88836309D01*
X116735714Y-88741071D01*
X116640476Y-88645833D01*
X116545238Y-88455357D01*
X116545238Y-88074404D01*
X116640476Y-87883928D01*
X116735714Y-87788690D01*
X116926190Y-87693452D01*
X117307142Y-87693452D01*
X117497619Y-87788690D01*
X117592857Y-87883928D01*
X117688095Y-88074404D01*
X117592857Y-85312500D02*
X117592857Y-84645833D01*
X116545238Y-84360119D02*
X116545238Y-85312500D01*
X118545238Y-85312500D01*
X118545238Y-84360119D01*
X116640476Y-83598214D02*
X116545238Y-83312500D01*
X116545238Y-82836309D01*
X116640476Y-82645833D01*
X116735714Y-82550595D01*
X116926190Y-82455357D01*
X117116666Y-82455357D01*
X117307142Y-82550595D01*
X117402380Y-82645833D01*
X117497619Y-82836309D01*
X117592857Y-83217261D01*
X117688095Y-83407738D01*
X117783333Y-83502976D01*
X117973809Y-83598214D01*
X118164285Y-83598214D01*
X118354761Y-83502976D01*
X118450000Y-83407738D01*
X118545238Y-83217261D01*
X118545238Y-82741071D01*
X118450000Y-82455357D01*
X116545238Y-81598214D02*
X118545238Y-81598214D01*
X118545238Y-80836309D01*
X118450000Y-80645833D01*
X118354761Y-80550595D01*
X118164285Y-80455357D01*
X117878571Y-80455357D01*
X117688095Y-80550595D01*
X117592857Y-80645833D01*
X117497619Y-80836309D01*
X117497619Y-81598214D01*
X117307142Y-79598214D02*
X117307142Y-78074404D01*
X118545238Y-76741071D02*
X118545238Y-76550595D01*
X118450000Y-76360119D01*
X118354761Y-76264880D01*
X118164285Y-76169642D01*
X117783333Y-76074404D01*
X117307142Y-76074404D01*
X116926190Y-76169642D01*
X116735714Y-76264880D01*
X116640476Y-76360119D01*
X116545238Y-76550595D01*
X116545238Y-76741071D01*
X116640476Y-76931547D01*
X116735714Y-77026785D01*
X116926190Y-77122023D01*
X117307142Y-77217261D01*
X117783333Y-77217261D01*
X118164285Y-77122023D01*
X118354761Y-77026785D01*
X118450000Y-76931547D01*
X118545238Y-76741071D01*
X116545238Y-74169642D02*
X116545238Y-75312500D01*
X116545238Y-74741071D02*
X118545238Y-74741071D01*
X118259523Y-74931547D01*
X118069047Y-75122023D01*
X117973809Y-75312500D01*
X113395238Y-103788690D02*
X113395238Y-104931547D01*
X113395238Y-104360119D02*
X115395238Y-104360119D01*
X115109523Y-104550595D01*
X114919047Y-104741071D01*
X114823809Y-104931547D01*
X115395238Y-102074404D02*
X115395238Y-102455357D01*
X115300000Y-102645833D01*
X115204761Y-102741071D01*
X114919047Y-102931547D01*
X114538095Y-103026785D01*
X113776190Y-103026785D01*
X113585714Y-102931547D01*
X113490476Y-102836309D01*
X113395238Y-102645833D01*
X113395238Y-102264880D01*
X113490476Y-102074404D01*
X113585714Y-101979166D01*
X113776190Y-101883928D01*
X114252380Y-101883928D01*
X114442857Y-101979166D01*
X114538095Y-102074404D01*
X114633333Y-102264880D01*
X114633333Y-102645833D01*
X114538095Y-102836309D01*
X114442857Y-102931547D01*
X114252380Y-103026785D01*
X114157142Y-101026785D02*
X114157142Y-99502976D01*
X113966666Y-98645833D02*
X113966666Y-97693452D01*
X113395238Y-98836309D02*
X115395238Y-98169642D01*
X113395238Y-97502976D01*
X114728571Y-96836309D02*
X112728571Y-96836309D01*
X114633333Y-96836309D02*
X114728571Y-96645833D01*
X114728571Y-96264880D01*
X114633333Y-96074404D01*
X114538095Y-95979166D01*
X114347619Y-95883928D01*
X113776190Y-95883928D01*
X113585714Y-95979166D01*
X113490476Y-96074404D01*
X113395238Y-96264880D01*
X113395238Y-96645833D01*
X113490476Y-96836309D01*
X113395238Y-95026785D02*
X114728571Y-95026785D01*
X114347619Y-95026785D02*
X114538095Y-94931547D01*
X114633333Y-94836309D01*
X114728571Y-94645833D01*
X114728571Y-94455357D01*
X114157142Y-93788690D02*
X114157142Y-92264880D01*
X115204761Y-91407738D02*
X115300000Y-91312500D01*
X115395238Y-91122023D01*
X115395238Y-90645833D01*
X115300000Y-90455357D01*
X115204761Y-90360119D01*
X115014285Y-90264880D01*
X114823809Y-90264880D01*
X114538095Y-90360119D01*
X113395238Y-91502976D01*
X113395238Y-90264880D01*
X115395238Y-89026785D02*
X115395238Y-88836309D01*
X115300000Y-88645833D01*
X115204761Y-88550595D01*
X115014285Y-88455357D01*
X114633333Y-88360119D01*
X114157142Y-88360119D01*
X113776190Y-88455357D01*
X113585714Y-88550595D01*
X113490476Y-88645833D01*
X113395238Y-88836309D01*
X113395238Y-89026785D01*
X113490476Y-89217261D01*
X113585714Y-89312500D01*
X113776190Y-89407738D01*
X114157142Y-89502976D01*
X114633333Y-89502976D01*
X115014285Y-89407738D01*
X115204761Y-89312500D01*
X115300000Y-89217261D01*
X115395238Y-89026785D01*
X115204761Y-87598214D02*
X115300000Y-87502976D01*
X115395238Y-87312500D01*
X115395238Y-86836309D01*
X115300000Y-86645833D01*
X115204761Y-86550595D01*
X115014285Y-86455357D01*
X114823809Y-86455357D01*
X114538095Y-86550595D01*
X113395238Y-87693452D01*
X113395238Y-86455357D01*
X115204761Y-85693452D02*
X115300000Y-85598214D01*
X115395238Y-85407738D01*
X115395238Y-84931547D01*
X115300000Y-84741071D01*
X115204761Y-84645833D01*
X115014285Y-84550595D01*
X114823809Y-84550595D01*
X114538095Y-84645833D01*
X113395238Y-85788690D01*
X113395238Y-84550595D01*
X113395238Y-81026785D02*
X114347619Y-81693452D01*
X113395238Y-82169642D02*
X115395238Y-82169642D01*
X115395238Y-81407738D01*
X115300000Y-81217261D01*
X115204761Y-81122023D01*
X115014285Y-81026785D01*
X114728571Y-81026785D01*
X114538095Y-81122023D01*
X114442857Y-81217261D01*
X114347619Y-81407738D01*
X114347619Y-82169642D01*
X113490476Y-79407738D02*
X113395238Y-79598214D01*
X113395238Y-79979166D01*
X113490476Y-80169642D01*
X113680952Y-80264880D01*
X114442857Y-80264880D01*
X114633333Y-80169642D01*
X114728571Y-79979166D01*
X114728571Y-79598214D01*
X114633333Y-79407738D01*
X114442857Y-79312500D01*
X114252380Y-79312500D01*
X114061904Y-80264880D01*
X114728571Y-78645833D02*
X113395238Y-78169642D01*
X114728571Y-77693452D01*
X113395238Y-75883928D02*
X113395238Y-77026785D01*
X113395238Y-76455357D02*
X115395238Y-76455357D01*
X115109523Y-76645833D01*
X114919047Y-76836309D01*
X114823809Y-77026785D01*
X110816666Y-104931547D02*
X110816666Y-103979166D01*
X110245238Y-105122023D02*
X112245238Y-104455357D01*
X110245238Y-103788690D01*
X110245238Y-103122023D02*
X111578571Y-103122023D01*
X111197619Y-103122023D02*
X111388095Y-103026785D01*
X111483333Y-102931547D01*
X111578571Y-102741071D01*
X111578571Y-102550595D01*
X111578571Y-102169642D02*
X111578571Y-101407738D01*
X112245238Y-101883928D02*
X110530952Y-101883928D01*
X110340476Y-101788690D01*
X110245238Y-101598214D01*
X110245238Y-101407738D01*
X110340476Y-99979166D02*
X110245238Y-100169642D01*
X110245238Y-100550595D01*
X110340476Y-100741071D01*
X110530952Y-100836309D01*
X111292857Y-100836309D01*
X111483333Y-100741071D01*
X111578571Y-100550595D01*
X111578571Y-100169642D01*
X111483333Y-99979166D01*
X111292857Y-99883928D01*
X111102380Y-99883928D01*
X110911904Y-100836309D01*
X110245238Y-99026785D02*
X111578571Y-99026785D01*
X111388095Y-99026785D02*
X111483333Y-98931547D01*
X111578571Y-98741071D01*
X111578571Y-98455357D01*
X111483333Y-98264880D01*
X111292857Y-98169642D01*
X110245238Y-98169642D01*
X111292857Y-98169642D02*
X111483333Y-98074404D01*
X111578571Y-97883928D01*
X111578571Y-97598214D01*
X111483333Y-97407738D01*
X111292857Y-97312500D01*
X110245238Y-97312500D01*
X110245238Y-94836309D02*
X112245238Y-94836309D01*
X110245238Y-93693452D02*
X111388095Y-94550595D01*
X112245238Y-93693452D02*
X111102380Y-94836309D01*
X111578571Y-91979166D02*
X110245238Y-91979166D01*
X111578571Y-92836309D02*
X110530952Y-92836309D01*
X110340476Y-92741071D01*
X110245238Y-92550595D01*
X110245238Y-92264880D01*
X110340476Y-92074404D01*
X110435714Y-91979166D01*
X110245238Y-90741071D02*
X110340476Y-90931547D01*
X110530952Y-91026785D01*
X112245238Y-91026785D01*
X110245238Y-89122023D02*
X111292857Y-89122023D01*
X111483333Y-89217261D01*
X111578571Y-89407738D01*
X111578571Y-89788690D01*
X111483333Y-89979166D01*
X110340476Y-89122023D02*
X110245238Y-89312500D01*
X110245238Y-89788690D01*
X110340476Y-89979166D01*
X110530952Y-90074404D01*
X110721428Y-90074404D01*
X110911904Y-89979166D01*
X111007142Y-89788690D01*
X111007142Y-89312500D01*
X111102380Y-89122023D01*
X110245238Y-88169642D02*
X112245238Y-88169642D01*
X111007142Y-87979166D02*
X110245238Y-87407738D01*
X111578571Y-87407738D02*
X110816666Y-88169642D01*
X110340476Y-85788690D02*
X110245238Y-85979166D01*
X110245238Y-86360119D01*
X110340476Y-86550595D01*
X110530952Y-86645833D01*
X111292857Y-86645833D01*
X111483333Y-86550595D01*
X111578571Y-86360119D01*
X111578571Y-85979166D01*
X111483333Y-85788690D01*
X111292857Y-85693452D01*
X111102380Y-85693452D01*
X110911904Y-86645833D01*
X111578571Y-85026785D02*
X110245238Y-84550595D01*
X111578571Y-84074404D01*
X110245238Y-83312500D02*
X111578571Y-83312500D01*
X112245238Y-83312500D02*
X112150000Y-83407738D01*
X112054761Y-83312500D01*
X112150000Y-83217261D01*
X112245238Y-83312500D01*
X112054761Y-83312500D01*
X110340476Y-81502976D02*
X110245238Y-81693452D01*
X110245238Y-82074404D01*
X110340476Y-82264880D01*
X110435714Y-82360119D01*
X110626190Y-82455357D01*
X111197619Y-82455357D01*
X111388095Y-82360119D01*
X111483333Y-82264880D01*
X111578571Y-82074404D01*
X111578571Y-81693452D01*
X111483333Y-81502976D01*
X110245238Y-80645833D02*
X112245238Y-80645833D01*
X110245238Y-79788690D02*
X111292857Y-79788690D01*
X111483333Y-79883928D01*
X111578571Y-80074404D01*
X111578571Y-80360119D01*
X111483333Y-80550595D01*
X111388095Y-80645833D01*
%TO.C,DS1*%
X107950000Y-113030000D02*
X107950000Y-110490000D01*
X118110000Y-113030000D02*
X107950000Y-113030000D01*
X118110000Y-110490000D02*
X118110000Y-113030000D01*
X107950000Y-110490000D02*
X118110000Y-110490000D01*
X114422380Y-109112380D02*
X114231904Y-109112380D01*
X114136666Y-109160000D01*
X114041428Y-109255238D01*
X113993809Y-109445714D01*
X113993809Y-109779047D01*
X114041428Y-109969523D01*
X114136666Y-110064761D01*
X114231904Y-110112380D01*
X114422380Y-110112380D01*
X114517619Y-110064761D01*
X114612857Y-109969523D01*
X114660476Y-109779047D01*
X114660476Y-109445714D01*
X114612857Y-109255238D01*
X114517619Y-109160000D01*
X114422380Y-109112380D01*
X113089047Y-110112380D02*
X113565238Y-110112380D01*
X113565238Y-109112380D01*
X112755714Y-109588571D02*
X112422380Y-109588571D01*
X112279523Y-110112380D02*
X112755714Y-110112380D01*
X112755714Y-109112380D01*
X112279523Y-109112380D01*
X111850952Y-110112380D02*
X111850952Y-109112380D01*
X111612857Y-109112380D01*
X111470000Y-109160000D01*
X111374761Y-109255238D01*
X111327142Y-109350476D01*
X111279523Y-109540952D01*
X111279523Y-109683809D01*
X111327142Y-109874285D01*
X111374761Y-109969523D01*
X111470000Y-110064761D01*
X111612857Y-110112380D01*
X111850952Y-110112380D01*
%TD*%
M02*
