%TF.GenerationSoftware,KiCad,Pcbnew,(5.1.10)-1*%
%TF.CreationDate,2022-04-16T20:13:42-07:00*%
%TF.ProjectId,S8-CO2 Sensor KiCAD,53382d43-4f32-4205-9365-6e736f72204b,rev?*%
%TF.SameCoordinates,Original*%
%TF.FileFunction,Copper,L2,Bot*%
%TF.FilePolarity,Positive*%
%FSLAX46Y46*%
G04 Gerber Fmt 4.6, Leading zero omitted, Abs format (unit mm)*
G04 Created by KiCad (PCBNEW (5.1.10)-1) date 2022-04-16 20:13:42*
%MOMM*%
%LPD*%
G01*
G04 APERTURE LIST*
%TA.AperFunction,ComponentPad*%
%ADD10C,1.700000*%
%TD*%
%TA.AperFunction,ComponentPad*%
%ADD11R,1.700000X1.700000*%
%TD*%
%TA.AperFunction,ComponentPad*%
%ADD12O,1.700000X1.700000*%
%TD*%
%TA.AperFunction,ComponentPad*%
%ADD13R,1.727200X1.727200*%
%TD*%
%TA.AperFunction,ComponentPad*%
%ADD14O,1.727200X1.727200*%
%TD*%
%TA.AperFunction,ComponentPad*%
%ADD15R,2.800000X2.800000*%
%TD*%
%TA.AperFunction,ComponentPad*%
%ADD16R,1.905000X2.000000*%
%TD*%
%TA.AperFunction,ComponentPad*%
%ADD17O,1.905000X2.000000*%
%TD*%
%TA.AperFunction,ComponentPad*%
%ADD18C,6.400000*%
%TD*%
%TA.AperFunction,ComponentPad*%
%ADD19C,0.800000*%
%TD*%
%TA.AperFunction,ComponentPad*%
%ADD20C,1.397000*%
%TD*%
%TA.AperFunction,Conductor*%
%ADD21C,1.000000*%
%TD*%
%TA.AperFunction,Conductor*%
%ADD22C,0.254000*%
%TD*%
%TA.AperFunction,Conductor*%
%ADD23C,0.100000*%
%TD*%
G04 APERTURE END LIST*
D10*
%TO.P,DB4,9*%
%TO.N,Net-(DB4-Pad9)*%
X135890000Y-99550000D03*
%TO.P,DB4,8*%
%TO.N,Net-(DB3-Pad1)*%
X133350000Y-99550000D03*
%TO.P,DB4,7*%
%TO.N,Net-(DB3-Pad8)*%
X130810000Y-99550000D03*
%TO.P,DB4,6*%
%TO.N,Net-(DB4-Pad6)*%
X128270000Y-99550000D03*
%TO.P,DB4,4*%
%TO.N,Net-(DB4-Pad4)*%
X128270000Y-69850000D03*
D11*
%TO.P,DB4,1*%
%TO.N,+5V*%
X135890000Y-69850000D03*
D10*
%TO.P,DB4,2*%
%TO.N,GND*%
X133350000Y-69850000D03*
%TO.P,DB4,3*%
%TO.N,Net-(DB4-Pad3)*%
X130810000Y-69850000D03*
%TO.P,DB4,5*%
%TO.N,Net-(DB4-Pad5)*%
X125730000Y-99550000D03*
%TD*%
D12*
%TO.P,LION2,2*%
%TO.N,GND*%
X163830000Y-105410000D03*
D11*
%TO.P,LION2,1*%
%TO.N,Net-(DB1-Pad5)*%
X166370000Y-105410000D03*
%TD*%
D13*
%TO.P,DB3,1*%
%TO.N,Net-(DB3-Pad1)*%
X154940000Y-71120000D03*
D14*
%TO.P,DB3,2*%
%TO.N,GND*%
X154940000Y-73660000D03*
%TO.P,DB3,3*%
%TO.N,+3V3*%
X152400000Y-71120000D03*
%TO.P,DB3,4*%
%TO.N,/SDA*%
X152400000Y-73660000D03*
%TO.P,DB3,5*%
%TO.N,Net-(DB3-Pad5)*%
X149860000Y-71120000D03*
%TO.P,DB3,6*%
%TO.N,/SCL*%
X149860000Y-73660000D03*
%TO.P,DB3,7*%
%TO.N,+3V3*%
X147320000Y-71120000D03*
%TO.P,DB3,8*%
%TO.N,Net-(DB3-Pad8)*%
X147320000Y-73660000D03*
%TD*%
D15*
%TO.P,DB1,6*%
%TO.N,GND*%
X155040000Y-99860000D03*
%TO.P,DB1,5*%
%TO.N,Net-(DB1-Pad5)*%
X147440000Y-99860000D03*
%TO.P,DB1,4*%
%TO.N,GND*%
X158440000Y-99860000D03*
%TO.P,DB1,3*%
%TO.N,Net-(DB1-Pad3)*%
X143940000Y-99860000D03*
%TO.P,DB1,2*%
%TO.N,GND*%
X158140000Y-122760000D03*
%TO.P,DB1,1*%
%TO.N,VCC*%
X143940000Y-122760000D03*
%TD*%
D11*
%TO.P,DB2,1*%
%TO.N,Net-(DB1-Pad3)*%
X163830000Y-91440000D03*
D12*
%TO.P,DB2,2*%
%TO.N,GND*%
X163830000Y-88900000D03*
%TO.P,DB2,3*%
%TO.N,+5V*%
X163830000Y-86360000D03*
%TO.P,DB2,4*%
%TO.N,GND*%
X163830000Y-83820000D03*
%TD*%
D11*
%TO.P,LION1,1*%
%TO.N,Net-(DB1-Pad5)*%
X166370000Y-99060000D03*
D12*
%TO.P,LION1,2*%
%TO.N,GND*%
X163830000Y-99060000D03*
%TD*%
D16*
%TO.P,VR1,1*%
%TO.N,GND*%
X128270000Y-121920000D03*
D17*
%TO.P,VR1,2*%
%TO.N,+3V3*%
X130810000Y-121920000D03*
%TO.P,VR1,3*%
%TO.N,Net-(DB1-Pad3)*%
X133350000Y-121920000D03*
%TD*%
D18*
%TO.P,H1,1*%
%TO.N,GND*%
X110490000Y-69850000D03*
D19*
X112890000Y-69850000D03*
X112187056Y-71547056D03*
X110490000Y-72250000D03*
X108792944Y-71547056D03*
X108090000Y-69850000D03*
X108792944Y-68152944D03*
X110490000Y-67450000D03*
X112187056Y-68152944D03*
%TD*%
%TO.P,H2,1*%
%TO.N,GND*%
X166797056Y-68152944D03*
X165100000Y-67450000D03*
X163402944Y-68152944D03*
X162700000Y-69850000D03*
X163402944Y-71547056D03*
X165100000Y-72250000D03*
X166797056Y-71547056D03*
X167500000Y-69850000D03*
D18*
X165100000Y-69850000D03*
%TD*%
%TO.P,H3,1*%
%TO.N,GND*%
X110490000Y-120650000D03*
D19*
X112890000Y-120650000D03*
X112187056Y-122347056D03*
X110490000Y-123050000D03*
X108792944Y-122347056D03*
X108090000Y-120650000D03*
X108792944Y-118952944D03*
X110490000Y-118250000D03*
X112187056Y-118952944D03*
%TD*%
%TO.P,H4,1*%
%TO.N,GND*%
X166797056Y-118952944D03*
X165100000Y-118250000D03*
X163402944Y-118952944D03*
X162700000Y-120650000D03*
X163402944Y-122347056D03*
X165100000Y-123050000D03*
X166797056Y-122347056D03*
X167500000Y-120650000D03*
D18*
X165100000Y-120650000D03*
%TD*%
D20*
%TO.P,DS1,1*%
%TO.N,/SDA*%
X109220000Y-111760000D03*
%TO.P,DS1,2*%
%TO.N,/SCL*%
X111760000Y-111760000D03*
%TO.P,DS1,3*%
%TO.N,+3V3*%
X114300000Y-111760000D03*
%TO.P,DS1,4*%
%TO.N,GND*%
X116840000Y-111760000D03*
%TD*%
D21*
%TO.N,/SCL*%
X134064003Y-103669999D02*
X119850001Y-103669999D01*
X149860000Y-87874002D02*
X134064003Y-103669999D01*
X119850001Y-103669999D02*
X111760000Y-111760000D01*
X149860000Y-73660000D02*
X149860000Y-87874002D01*
%TO.N,Net-(DB3-Pad8)*%
X147320000Y-83040000D02*
X130810000Y-99550000D01*
X147320000Y-73660000D02*
X147320000Y-83040000D01*
%TD*%
D22*
%TO.N,GND*%
X165882249Y-65502437D02*
X166639774Y-65709672D01*
X167348625Y-66047777D01*
X167986404Y-66506067D01*
X168532946Y-67070055D01*
X168970977Y-67721913D01*
X169286651Y-68441038D01*
X169471206Y-69209768D01*
X169520001Y-69874221D01*
X169520000Y-120620608D01*
X169447563Y-121432249D01*
X169240328Y-122189774D01*
X168902221Y-122898627D01*
X168443928Y-123536410D01*
X167879945Y-124082946D01*
X167228085Y-124520978D01*
X166508963Y-124836651D01*
X165740232Y-125021206D01*
X165075792Y-125070000D01*
X110519392Y-125070000D01*
X109707751Y-124997563D01*
X108950226Y-124790328D01*
X108241373Y-124452221D01*
X107603590Y-123993928D01*
X107057054Y-123429945D01*
X107003926Y-123350881D01*
X107968724Y-123350881D01*
X108328912Y-123840548D01*
X108992882Y-124200849D01*
X109714385Y-124424694D01*
X110465695Y-124503480D01*
X111217938Y-124434178D01*
X111942208Y-124219452D01*
X112610670Y-123867555D01*
X112651088Y-123840548D01*
X113011276Y-123350881D01*
X110490000Y-120829605D01*
X107968724Y-123350881D01*
X107003926Y-123350881D01*
X106619022Y-122778085D01*
X106303349Y-122058963D01*
X106118794Y-121290232D01*
X106070000Y-120625792D01*
X106070000Y-120625695D01*
X106636520Y-120625695D01*
X106705822Y-121377938D01*
X106920548Y-122102208D01*
X107272445Y-122770670D01*
X107299452Y-122811088D01*
X107789119Y-123171276D01*
X110310395Y-120650000D01*
X110669605Y-120650000D01*
X113190881Y-123171276D01*
X113532484Y-122920000D01*
X126679428Y-122920000D01*
X126691688Y-123044482D01*
X126727998Y-123164180D01*
X126786963Y-123274494D01*
X126866315Y-123371185D01*
X126963006Y-123450537D01*
X127073320Y-123509502D01*
X127193018Y-123545812D01*
X127317500Y-123558072D01*
X127984250Y-123555000D01*
X128143000Y-123396250D01*
X128143000Y-122047000D01*
X126841250Y-122047000D01*
X126682500Y-122205750D01*
X126679428Y-122920000D01*
X113532484Y-122920000D01*
X113680548Y-122811088D01*
X114040849Y-122147118D01*
X114264694Y-121425615D01*
X114317715Y-120920000D01*
X126679428Y-120920000D01*
X126682500Y-121634250D01*
X126841250Y-121793000D01*
X128143000Y-121793000D01*
X128143000Y-120443750D01*
X128397000Y-120443750D01*
X128397000Y-121793000D01*
X128417000Y-121793000D01*
X128417000Y-122047000D01*
X128397000Y-122047000D01*
X128397000Y-123396250D01*
X128555750Y-123555000D01*
X129222500Y-123558072D01*
X129346982Y-123545812D01*
X129466680Y-123509502D01*
X129576994Y-123450537D01*
X129673685Y-123371185D01*
X129753037Y-123274494D01*
X129797905Y-123190553D01*
X129923766Y-123293845D01*
X130199552Y-123441255D01*
X130498797Y-123532030D01*
X130810000Y-123562681D01*
X131121204Y-123532030D01*
X131420449Y-123441255D01*
X131696235Y-123293845D01*
X131937963Y-123095463D01*
X132080000Y-122922391D01*
X132222037Y-123095463D01*
X132463766Y-123293845D01*
X132739552Y-123441255D01*
X133038797Y-123532030D01*
X133350000Y-123562681D01*
X133661204Y-123532030D01*
X133960449Y-123441255D01*
X134236235Y-123293845D01*
X134477963Y-123095463D01*
X134676345Y-122853734D01*
X134823755Y-122577948D01*
X134914530Y-122278703D01*
X134937500Y-122045485D01*
X134937500Y-121794514D01*
X134914530Y-121561296D01*
X134853468Y-121360000D01*
X141901928Y-121360000D01*
X141901928Y-124160000D01*
X141914188Y-124284482D01*
X141950498Y-124404180D01*
X142009463Y-124514494D01*
X142088815Y-124611185D01*
X142185506Y-124690537D01*
X142295820Y-124749502D01*
X142415518Y-124785812D01*
X142540000Y-124798072D01*
X145340000Y-124798072D01*
X145464482Y-124785812D01*
X145584180Y-124749502D01*
X145694494Y-124690537D01*
X145791185Y-124611185D01*
X145870537Y-124514494D01*
X145929502Y-124404180D01*
X145965812Y-124284482D01*
X145978072Y-124160000D01*
X156101928Y-124160000D01*
X156114188Y-124284482D01*
X156150498Y-124404180D01*
X156209463Y-124514494D01*
X156288815Y-124611185D01*
X156385506Y-124690537D01*
X156495820Y-124749502D01*
X156615518Y-124785812D01*
X156740000Y-124798072D01*
X157854250Y-124795000D01*
X158013000Y-124636250D01*
X158013000Y-122887000D01*
X158267000Y-122887000D01*
X158267000Y-124636250D01*
X158425750Y-124795000D01*
X159540000Y-124798072D01*
X159664482Y-124785812D01*
X159784180Y-124749502D01*
X159894494Y-124690537D01*
X159991185Y-124611185D01*
X160070537Y-124514494D01*
X160129502Y-124404180D01*
X160165812Y-124284482D01*
X160178072Y-124160000D01*
X160175842Y-123350881D01*
X162578724Y-123350881D01*
X162938912Y-123840548D01*
X163602882Y-124200849D01*
X164324385Y-124424694D01*
X165075695Y-124503480D01*
X165827938Y-124434178D01*
X166552208Y-124219452D01*
X167220670Y-123867555D01*
X167261088Y-123840548D01*
X167621276Y-123350881D01*
X165100000Y-120829605D01*
X162578724Y-123350881D01*
X160175842Y-123350881D01*
X160175000Y-123045750D01*
X160016250Y-122887000D01*
X158267000Y-122887000D01*
X158013000Y-122887000D01*
X156263750Y-122887000D01*
X156105000Y-123045750D01*
X156101928Y-124160000D01*
X145978072Y-124160000D01*
X145978072Y-121360000D01*
X156101928Y-121360000D01*
X156105000Y-122474250D01*
X156263750Y-122633000D01*
X158013000Y-122633000D01*
X158013000Y-120883750D01*
X158267000Y-120883750D01*
X158267000Y-122633000D01*
X160016250Y-122633000D01*
X160175000Y-122474250D01*
X160178072Y-121360000D01*
X160165812Y-121235518D01*
X160129502Y-121115820D01*
X160070537Y-121005506D01*
X159991185Y-120908815D01*
X159894494Y-120829463D01*
X159784180Y-120770498D01*
X159664482Y-120734188D01*
X159540000Y-120721928D01*
X158425750Y-120725000D01*
X158267000Y-120883750D01*
X158013000Y-120883750D01*
X157854250Y-120725000D01*
X156740000Y-120721928D01*
X156615518Y-120734188D01*
X156495820Y-120770498D01*
X156385506Y-120829463D01*
X156288815Y-120908815D01*
X156209463Y-121005506D01*
X156150498Y-121115820D01*
X156114188Y-121235518D01*
X156101928Y-121360000D01*
X145978072Y-121360000D01*
X145965812Y-121235518D01*
X145929502Y-121115820D01*
X145870537Y-121005506D01*
X145791185Y-120908815D01*
X145694494Y-120829463D01*
X145584180Y-120770498D01*
X145464482Y-120734188D01*
X145340000Y-120721928D01*
X142540000Y-120721928D01*
X142415518Y-120734188D01*
X142295820Y-120770498D01*
X142185506Y-120829463D01*
X142088815Y-120908815D01*
X142009463Y-121005506D01*
X141950498Y-121115820D01*
X141914188Y-121235518D01*
X141901928Y-121360000D01*
X134853468Y-121360000D01*
X134823755Y-121262051D01*
X134676345Y-120986265D01*
X134477963Y-120744537D01*
X134333154Y-120625695D01*
X161246520Y-120625695D01*
X161315822Y-121377938D01*
X161530548Y-122102208D01*
X161882445Y-122770670D01*
X161909452Y-122811088D01*
X162399119Y-123171276D01*
X164920395Y-120650000D01*
X165279605Y-120650000D01*
X167800881Y-123171276D01*
X168290548Y-122811088D01*
X168650849Y-122147118D01*
X168874694Y-121425615D01*
X168953480Y-120674305D01*
X168884178Y-119922062D01*
X168669452Y-119197792D01*
X168317555Y-118529330D01*
X168290548Y-118488912D01*
X167800881Y-118128724D01*
X165279605Y-120650000D01*
X164920395Y-120650000D01*
X162399119Y-118128724D01*
X161909452Y-118488912D01*
X161549151Y-119152882D01*
X161325306Y-119874385D01*
X161246520Y-120625695D01*
X134333154Y-120625695D01*
X134236234Y-120546155D01*
X133960448Y-120398745D01*
X133661203Y-120307970D01*
X133350000Y-120277319D01*
X133038796Y-120307970D01*
X132739551Y-120398745D01*
X132463765Y-120546155D01*
X132222037Y-120744537D01*
X132080000Y-120917609D01*
X131937963Y-120744537D01*
X131696234Y-120546155D01*
X131420448Y-120398745D01*
X131121203Y-120307970D01*
X130810000Y-120277319D01*
X130498796Y-120307970D01*
X130199551Y-120398745D01*
X129923765Y-120546155D01*
X129797905Y-120649446D01*
X129753037Y-120565506D01*
X129673685Y-120468815D01*
X129576994Y-120389463D01*
X129466680Y-120330498D01*
X129346982Y-120294188D01*
X129222500Y-120281928D01*
X128555750Y-120285000D01*
X128397000Y-120443750D01*
X128143000Y-120443750D01*
X127984250Y-120285000D01*
X127317500Y-120281928D01*
X127193018Y-120294188D01*
X127073320Y-120330498D01*
X126963006Y-120389463D01*
X126866315Y-120468815D01*
X126786963Y-120565506D01*
X126727998Y-120675820D01*
X126691688Y-120795518D01*
X126679428Y-120920000D01*
X114317715Y-120920000D01*
X114343480Y-120674305D01*
X114274178Y-119922062D01*
X114059452Y-119197792D01*
X113707555Y-118529330D01*
X113680548Y-118488912D01*
X113190881Y-118128724D01*
X110669605Y-120650000D01*
X110310395Y-120650000D01*
X107789119Y-118128724D01*
X107299452Y-118488912D01*
X106939151Y-119152882D01*
X106715306Y-119874385D01*
X106636520Y-120625695D01*
X106070000Y-120625695D01*
X106070000Y-117949119D01*
X107968724Y-117949119D01*
X110490000Y-120470395D01*
X113011276Y-117949119D01*
X162578724Y-117949119D01*
X165100000Y-120470395D01*
X167621276Y-117949119D01*
X167261088Y-117459452D01*
X166597118Y-117099151D01*
X165875615Y-116875306D01*
X165124305Y-116796520D01*
X164372062Y-116865822D01*
X163647792Y-117080548D01*
X162979330Y-117432445D01*
X162938912Y-117459452D01*
X162578724Y-117949119D01*
X113011276Y-117949119D01*
X112651088Y-117459452D01*
X111987118Y-117099151D01*
X111265615Y-116875306D01*
X110514305Y-116796520D01*
X109762062Y-116865822D01*
X109037792Y-117080548D01*
X108369330Y-117432445D01*
X108328912Y-117459452D01*
X107968724Y-117949119D01*
X106070000Y-117949119D01*
X106070000Y-111628662D01*
X107886500Y-111628662D01*
X107886500Y-111891338D01*
X107937746Y-112148968D01*
X108038268Y-112391649D01*
X108184203Y-112610057D01*
X108369943Y-112795797D01*
X108588351Y-112941732D01*
X108831032Y-113042254D01*
X109088662Y-113093500D01*
X109351338Y-113093500D01*
X109608968Y-113042254D01*
X109851649Y-112941732D01*
X110070057Y-112795797D01*
X110255797Y-112610057D01*
X110401732Y-112391649D01*
X110490000Y-112178552D01*
X110578268Y-112391649D01*
X110724203Y-112610057D01*
X110909943Y-112795797D01*
X111128351Y-112941732D01*
X111371032Y-113042254D01*
X111628662Y-113093500D01*
X111891338Y-113093500D01*
X112148968Y-113042254D01*
X112391649Y-112941732D01*
X112610057Y-112795797D01*
X112795797Y-112610057D01*
X112941732Y-112391649D01*
X113030000Y-112178552D01*
X113118268Y-112391649D01*
X113264203Y-112610057D01*
X113449943Y-112795797D01*
X113668351Y-112941732D01*
X113911032Y-113042254D01*
X114168662Y-113093500D01*
X114431338Y-113093500D01*
X114688968Y-113042254D01*
X114931649Y-112941732D01*
X115150057Y-112795797D01*
X115265657Y-112680197D01*
X116099408Y-112680197D01*
X116158686Y-112913812D01*
X116396875Y-113024559D01*
X116652093Y-113086711D01*
X116914533Y-113097876D01*
X117174107Y-113057629D01*
X117420842Y-112967514D01*
X117521314Y-112913812D01*
X117580592Y-112680197D01*
X116840000Y-111939605D01*
X116099408Y-112680197D01*
X115265657Y-112680197D01*
X115335797Y-112610057D01*
X115481732Y-112391649D01*
X115571707Y-112174430D01*
X115632486Y-112340842D01*
X115686188Y-112441314D01*
X115919803Y-112500592D01*
X116660395Y-111760000D01*
X117019605Y-111760000D01*
X117760197Y-112500592D01*
X117993812Y-112441314D01*
X118104559Y-112203125D01*
X118166711Y-111947907D01*
X118177876Y-111685467D01*
X118137629Y-111425893D01*
X118047514Y-111179158D01*
X117993812Y-111078686D01*
X117760197Y-111019408D01*
X117019605Y-111760000D01*
X116660395Y-111760000D01*
X115919803Y-111019408D01*
X115686188Y-111078686D01*
X115575441Y-111316875D01*
X115569658Y-111340622D01*
X115481732Y-111128351D01*
X115335797Y-110909943D01*
X115265657Y-110839803D01*
X116099408Y-110839803D01*
X116840000Y-111580395D01*
X117580592Y-110839803D01*
X117521314Y-110606188D01*
X117283125Y-110495441D01*
X117027907Y-110433289D01*
X116765467Y-110422124D01*
X116505893Y-110462371D01*
X116259158Y-110552486D01*
X116158686Y-110606188D01*
X116099408Y-110839803D01*
X115265657Y-110839803D01*
X115150057Y-110724203D01*
X114931649Y-110578268D01*
X114688968Y-110477746D01*
X114654284Y-110470847D01*
X120320133Y-104804999D01*
X128820240Y-104804999D01*
X128696440Y-104990279D01*
X128516654Y-105424321D01*
X128425000Y-105885098D01*
X128425000Y-106354902D01*
X128516654Y-106815679D01*
X128696440Y-107249721D01*
X128957450Y-107640349D01*
X129289651Y-107972550D01*
X129680279Y-108233560D01*
X130114321Y-108413346D01*
X130575098Y-108505000D01*
X131044902Y-108505000D01*
X131505679Y-108413346D01*
X131939721Y-108233560D01*
X132330349Y-107972550D01*
X132662550Y-107640349D01*
X132923560Y-107249721D01*
X133103346Y-106815679D01*
X133195000Y-106354902D01*
X133195000Y-105885098D01*
X133171488Y-105766891D01*
X162388519Y-105766891D01*
X162485843Y-106041252D01*
X162634822Y-106291355D01*
X162829731Y-106507588D01*
X163063080Y-106681641D01*
X163325901Y-106806825D01*
X163473110Y-106851476D01*
X163703000Y-106730155D01*
X163703000Y-105537000D01*
X162509186Y-105537000D01*
X162388519Y-105766891D01*
X133171488Y-105766891D01*
X133103346Y-105424321D01*
X132949586Y-105053109D01*
X162388519Y-105053109D01*
X162509186Y-105283000D01*
X163703000Y-105283000D01*
X163703000Y-104089845D01*
X163957000Y-104089845D01*
X163957000Y-105283000D01*
X163977000Y-105283000D01*
X163977000Y-105537000D01*
X163957000Y-105537000D01*
X163957000Y-106730155D01*
X164186890Y-106851476D01*
X164334099Y-106806825D01*
X164596920Y-106681641D01*
X164830269Y-106507588D01*
X164906034Y-106423534D01*
X164930498Y-106504180D01*
X164989463Y-106614494D01*
X165068815Y-106711185D01*
X165165506Y-106790537D01*
X165275820Y-106849502D01*
X165395518Y-106885812D01*
X165520000Y-106898072D01*
X167220000Y-106898072D01*
X167344482Y-106885812D01*
X167464180Y-106849502D01*
X167574494Y-106790537D01*
X167671185Y-106711185D01*
X167750537Y-106614494D01*
X167809502Y-106504180D01*
X167845812Y-106384482D01*
X167858072Y-106260000D01*
X167858072Y-104560000D01*
X167845812Y-104435518D01*
X167809502Y-104315820D01*
X167750537Y-104205506D01*
X167671185Y-104108815D01*
X167574494Y-104029463D01*
X167464180Y-103970498D01*
X167344482Y-103934188D01*
X167220000Y-103921928D01*
X165520000Y-103921928D01*
X165395518Y-103934188D01*
X165275820Y-103970498D01*
X165165506Y-104029463D01*
X165068815Y-104108815D01*
X164989463Y-104205506D01*
X164930498Y-104315820D01*
X164906034Y-104396466D01*
X164830269Y-104312412D01*
X164596920Y-104138359D01*
X164334099Y-104013175D01*
X164186890Y-103968524D01*
X163957000Y-104089845D01*
X163703000Y-104089845D01*
X163473110Y-103968524D01*
X163325901Y-104013175D01*
X163063080Y-104138359D01*
X162829731Y-104312412D01*
X162634822Y-104528645D01*
X162485843Y-104778748D01*
X162388519Y-105053109D01*
X132949586Y-105053109D01*
X132923560Y-104990279D01*
X132799760Y-104804999D01*
X134008252Y-104804999D01*
X134064003Y-104810490D01*
X134119754Y-104804999D01*
X134119755Y-104804999D01*
X134286502Y-104788576D01*
X134500450Y-104723675D01*
X134697626Y-104618283D01*
X134870452Y-104476448D01*
X134905999Y-104433134D01*
X140879133Y-98460000D01*
X141901928Y-98460000D01*
X141901928Y-101260000D01*
X141914188Y-101384482D01*
X141950498Y-101504180D01*
X142009463Y-101614494D01*
X142088815Y-101711185D01*
X142185506Y-101790537D01*
X142295820Y-101849502D01*
X142415518Y-101885812D01*
X142540000Y-101898072D01*
X145340000Y-101898072D01*
X145464482Y-101885812D01*
X145584180Y-101849502D01*
X145690000Y-101792939D01*
X145795820Y-101849502D01*
X145915518Y-101885812D01*
X146040000Y-101898072D01*
X148840000Y-101898072D01*
X148964482Y-101885812D01*
X149084180Y-101849502D01*
X149194494Y-101790537D01*
X149291185Y-101711185D01*
X149370537Y-101614494D01*
X149429502Y-101504180D01*
X149465812Y-101384482D01*
X149478072Y-101260000D01*
X153001928Y-101260000D01*
X153014188Y-101384482D01*
X153050498Y-101504180D01*
X153109463Y-101614494D01*
X153188815Y-101711185D01*
X153285506Y-101790537D01*
X153395820Y-101849502D01*
X153515518Y-101885812D01*
X153640000Y-101898072D01*
X154754250Y-101895000D01*
X154913000Y-101736250D01*
X154913000Y-99987000D01*
X155167000Y-99987000D01*
X155167000Y-101736250D01*
X155325750Y-101895000D01*
X156440000Y-101898072D01*
X156564482Y-101885812D01*
X156684180Y-101849502D01*
X156740000Y-101819665D01*
X156795820Y-101849502D01*
X156915518Y-101885812D01*
X157040000Y-101898072D01*
X158154250Y-101895000D01*
X158313000Y-101736250D01*
X158313000Y-99987000D01*
X158567000Y-99987000D01*
X158567000Y-101736250D01*
X158725750Y-101895000D01*
X159840000Y-101898072D01*
X159964482Y-101885812D01*
X160084180Y-101849502D01*
X160194494Y-101790537D01*
X160291185Y-101711185D01*
X160370537Y-101614494D01*
X160429502Y-101504180D01*
X160465812Y-101384482D01*
X160478072Y-101260000D01*
X160475000Y-100145750D01*
X160316250Y-99987000D01*
X158567000Y-99987000D01*
X158313000Y-99987000D01*
X155167000Y-99987000D01*
X154913000Y-99987000D01*
X153163750Y-99987000D01*
X153005000Y-100145750D01*
X153001928Y-101260000D01*
X149478072Y-101260000D01*
X149478072Y-98460000D01*
X153001928Y-98460000D01*
X153005000Y-99574250D01*
X153163750Y-99733000D01*
X154913000Y-99733000D01*
X154913000Y-97983750D01*
X155167000Y-97983750D01*
X155167000Y-99733000D01*
X158313000Y-99733000D01*
X158313000Y-97983750D01*
X158567000Y-97983750D01*
X158567000Y-99733000D01*
X160316250Y-99733000D01*
X160475000Y-99574250D01*
X160475433Y-99416891D01*
X162388519Y-99416891D01*
X162485843Y-99691252D01*
X162634822Y-99941355D01*
X162829731Y-100157588D01*
X163063080Y-100331641D01*
X163325901Y-100456825D01*
X163473110Y-100501476D01*
X163703000Y-100380155D01*
X163703000Y-99187000D01*
X162509186Y-99187000D01*
X162388519Y-99416891D01*
X160475433Y-99416891D01*
X160477401Y-98703109D01*
X162388519Y-98703109D01*
X162509186Y-98933000D01*
X163703000Y-98933000D01*
X163703000Y-97739845D01*
X163957000Y-97739845D01*
X163957000Y-98933000D01*
X163977000Y-98933000D01*
X163977000Y-99187000D01*
X163957000Y-99187000D01*
X163957000Y-100380155D01*
X164186890Y-100501476D01*
X164334099Y-100456825D01*
X164596920Y-100331641D01*
X164830269Y-100157588D01*
X164906034Y-100073534D01*
X164930498Y-100154180D01*
X164989463Y-100264494D01*
X165068815Y-100361185D01*
X165165506Y-100440537D01*
X165275820Y-100499502D01*
X165395518Y-100535812D01*
X165520000Y-100548072D01*
X167220000Y-100548072D01*
X167344482Y-100535812D01*
X167464180Y-100499502D01*
X167574494Y-100440537D01*
X167671185Y-100361185D01*
X167750537Y-100264494D01*
X167809502Y-100154180D01*
X167845812Y-100034482D01*
X167858072Y-99910000D01*
X167858072Y-98210000D01*
X167845812Y-98085518D01*
X167809502Y-97965820D01*
X167750537Y-97855506D01*
X167671185Y-97758815D01*
X167574494Y-97679463D01*
X167464180Y-97620498D01*
X167344482Y-97584188D01*
X167220000Y-97571928D01*
X165520000Y-97571928D01*
X165395518Y-97584188D01*
X165275820Y-97620498D01*
X165165506Y-97679463D01*
X165068815Y-97758815D01*
X164989463Y-97855506D01*
X164930498Y-97965820D01*
X164906034Y-98046466D01*
X164830269Y-97962412D01*
X164596920Y-97788359D01*
X164334099Y-97663175D01*
X164186890Y-97618524D01*
X163957000Y-97739845D01*
X163703000Y-97739845D01*
X163473110Y-97618524D01*
X163325901Y-97663175D01*
X163063080Y-97788359D01*
X162829731Y-97962412D01*
X162634822Y-98178645D01*
X162485843Y-98428748D01*
X162388519Y-98703109D01*
X160477401Y-98703109D01*
X160478072Y-98460000D01*
X160465812Y-98335518D01*
X160429502Y-98215820D01*
X160370537Y-98105506D01*
X160291185Y-98008815D01*
X160194494Y-97929463D01*
X160084180Y-97870498D01*
X159964482Y-97834188D01*
X159840000Y-97821928D01*
X158725750Y-97825000D01*
X158567000Y-97983750D01*
X158313000Y-97983750D01*
X158154250Y-97825000D01*
X157040000Y-97821928D01*
X156915518Y-97834188D01*
X156795820Y-97870498D01*
X156740000Y-97900335D01*
X156684180Y-97870498D01*
X156564482Y-97834188D01*
X156440000Y-97821928D01*
X155325750Y-97825000D01*
X155167000Y-97983750D01*
X154913000Y-97983750D01*
X154754250Y-97825000D01*
X153640000Y-97821928D01*
X153515518Y-97834188D01*
X153395820Y-97870498D01*
X153285506Y-97929463D01*
X153188815Y-98008815D01*
X153109463Y-98105506D01*
X153050498Y-98215820D01*
X153014188Y-98335518D01*
X153001928Y-98460000D01*
X149478072Y-98460000D01*
X149465812Y-98335518D01*
X149429502Y-98215820D01*
X149370537Y-98105506D01*
X149291185Y-98008815D01*
X149194494Y-97929463D01*
X149084180Y-97870498D01*
X148964482Y-97834188D01*
X148840000Y-97821928D01*
X146040000Y-97821928D01*
X145915518Y-97834188D01*
X145795820Y-97870498D01*
X145690000Y-97927061D01*
X145584180Y-97870498D01*
X145464482Y-97834188D01*
X145340000Y-97821928D01*
X142540000Y-97821928D01*
X142415518Y-97834188D01*
X142295820Y-97870498D01*
X142185506Y-97929463D01*
X142088815Y-98008815D01*
X142009463Y-98105506D01*
X141950498Y-98215820D01*
X141914188Y-98335518D01*
X141901928Y-98460000D01*
X140879133Y-98460000D01*
X148749133Y-90590000D01*
X162341928Y-90590000D01*
X162341928Y-92290000D01*
X162354188Y-92414482D01*
X162390498Y-92534180D01*
X162449463Y-92644494D01*
X162528815Y-92741185D01*
X162625506Y-92820537D01*
X162735820Y-92879502D01*
X162855518Y-92915812D01*
X162980000Y-92928072D01*
X164680000Y-92928072D01*
X164804482Y-92915812D01*
X164924180Y-92879502D01*
X165034494Y-92820537D01*
X165131185Y-92741185D01*
X165210537Y-92644494D01*
X165269502Y-92534180D01*
X165305812Y-92414482D01*
X165318072Y-92290000D01*
X165318072Y-90590000D01*
X165305812Y-90465518D01*
X165269502Y-90345820D01*
X165210537Y-90235506D01*
X165131185Y-90138815D01*
X165034494Y-90059463D01*
X164924180Y-90000498D01*
X164843534Y-89976034D01*
X164927588Y-89900269D01*
X165101641Y-89666920D01*
X165226825Y-89404099D01*
X165271476Y-89256890D01*
X165150155Y-89027000D01*
X163957000Y-89027000D01*
X163957000Y-89047000D01*
X163703000Y-89047000D01*
X163703000Y-89027000D01*
X162509845Y-89027000D01*
X162388524Y-89256890D01*
X162433175Y-89404099D01*
X162558359Y-89666920D01*
X162732412Y-89900269D01*
X162816466Y-89976034D01*
X162735820Y-90000498D01*
X162625506Y-90059463D01*
X162528815Y-90138815D01*
X162449463Y-90235506D01*
X162390498Y-90345820D01*
X162354188Y-90465518D01*
X162341928Y-90590000D01*
X148749133Y-90590000D01*
X150623141Y-88715993D01*
X150666449Y-88680451D01*
X150808284Y-88507625D01*
X150913676Y-88310449D01*
X150978577Y-88096501D01*
X150995000Y-87929754D01*
X150995000Y-87929747D01*
X151000490Y-87874003D01*
X150995000Y-87818259D01*
X150995000Y-86213740D01*
X162345000Y-86213740D01*
X162345000Y-86506260D01*
X162402068Y-86793158D01*
X162514010Y-87063411D01*
X162676525Y-87306632D01*
X162883368Y-87513475D01*
X163065534Y-87635195D01*
X162948645Y-87704822D01*
X162732412Y-87899731D01*
X162558359Y-88133080D01*
X162433175Y-88395901D01*
X162388524Y-88543110D01*
X162509845Y-88773000D01*
X163703000Y-88773000D01*
X163703000Y-88753000D01*
X163957000Y-88753000D01*
X163957000Y-88773000D01*
X165150155Y-88773000D01*
X165271476Y-88543110D01*
X165226825Y-88395901D01*
X165101641Y-88133080D01*
X164927588Y-87899731D01*
X164711355Y-87704822D01*
X164594466Y-87635195D01*
X164776632Y-87513475D01*
X164983475Y-87306632D01*
X165145990Y-87063411D01*
X165257932Y-86793158D01*
X165315000Y-86506260D01*
X165315000Y-86213740D01*
X165257932Y-85926842D01*
X165145990Y-85656589D01*
X164983475Y-85413368D01*
X164776632Y-85206525D01*
X164594466Y-85084805D01*
X164711355Y-85015178D01*
X164927588Y-84820269D01*
X165101641Y-84586920D01*
X165226825Y-84324099D01*
X165271476Y-84176890D01*
X165150155Y-83947000D01*
X163957000Y-83947000D01*
X163957000Y-83967000D01*
X163703000Y-83967000D01*
X163703000Y-83947000D01*
X162509845Y-83947000D01*
X162388524Y-84176890D01*
X162433175Y-84324099D01*
X162558359Y-84586920D01*
X162732412Y-84820269D01*
X162948645Y-85015178D01*
X163065534Y-85084805D01*
X162883368Y-85206525D01*
X162676525Y-85413368D01*
X162514010Y-85656589D01*
X162402068Y-85926842D01*
X162345000Y-86213740D01*
X150995000Y-86213740D01*
X150995000Y-83463110D01*
X162388524Y-83463110D01*
X162509845Y-83693000D01*
X163703000Y-83693000D01*
X163703000Y-82499186D01*
X163957000Y-82499186D01*
X163957000Y-83693000D01*
X165150155Y-83693000D01*
X165271476Y-83463110D01*
X165226825Y-83315901D01*
X165101641Y-83053080D01*
X164927588Y-82819731D01*
X164711355Y-82624822D01*
X164461252Y-82475843D01*
X164186891Y-82378519D01*
X163957000Y-82499186D01*
X163703000Y-82499186D01*
X163473109Y-82378519D01*
X163198748Y-82475843D01*
X162948645Y-82624822D01*
X162732412Y-82819731D01*
X162558359Y-83053080D01*
X162433175Y-83315901D01*
X162388524Y-83463110D01*
X150995000Y-83463110D01*
X150995000Y-74644341D01*
X151024039Y-74615302D01*
X151130000Y-74456719D01*
X151235961Y-74615302D01*
X151444698Y-74824039D01*
X151690147Y-74988042D01*
X151962875Y-75101010D01*
X152252401Y-75158600D01*
X152547599Y-75158600D01*
X152837125Y-75101010D01*
X153109853Y-74988042D01*
X153355302Y-74824039D01*
X153564039Y-74615302D01*
X153674559Y-74449897D01*
X153733183Y-74548488D01*
X153929707Y-74766854D01*
X154165056Y-74942684D01*
X154430186Y-75069222D01*
X154580974Y-75114958D01*
X154813000Y-74993817D01*
X154813000Y-73787000D01*
X155067000Y-73787000D01*
X155067000Y-74993817D01*
X155299026Y-75114958D01*
X155449814Y-75069222D01*
X155714944Y-74942684D01*
X155950293Y-74766854D01*
X156146817Y-74548488D01*
X156296964Y-74295978D01*
X156394963Y-74019027D01*
X156274464Y-73787000D01*
X155067000Y-73787000D01*
X154813000Y-73787000D01*
X154793000Y-73787000D01*
X154793000Y-73533000D01*
X154813000Y-73533000D01*
X154813000Y-73513000D01*
X155067000Y-73513000D01*
X155067000Y-73533000D01*
X156274464Y-73533000D01*
X156394963Y-73300973D01*
X156296964Y-73024022D01*
X156146817Y-72771512D01*
X155985308Y-72592053D01*
X156047780Y-72573102D01*
X156089351Y-72550881D01*
X162578724Y-72550881D01*
X162938912Y-73040548D01*
X163602882Y-73400849D01*
X164324385Y-73624694D01*
X165075695Y-73703480D01*
X165827938Y-73634178D01*
X166552208Y-73419452D01*
X167220670Y-73067555D01*
X167261088Y-73040548D01*
X167621276Y-72550881D01*
X165100000Y-70029605D01*
X162578724Y-72550881D01*
X156089351Y-72550881D01*
X156158094Y-72514137D01*
X156254785Y-72434785D01*
X156334137Y-72338094D01*
X156393102Y-72227780D01*
X156429412Y-72108082D01*
X156441672Y-71983600D01*
X156441672Y-70256400D01*
X156429412Y-70131918D01*
X156393102Y-70012220D01*
X156334137Y-69901906D01*
X156271593Y-69825695D01*
X161246520Y-69825695D01*
X161315822Y-70577938D01*
X161530548Y-71302208D01*
X161882445Y-71970670D01*
X161909452Y-72011088D01*
X162399119Y-72371276D01*
X164920395Y-69850000D01*
X165279605Y-69850000D01*
X167800881Y-72371276D01*
X168290548Y-72011088D01*
X168650849Y-71347118D01*
X168874694Y-70625615D01*
X168953480Y-69874305D01*
X168884178Y-69122062D01*
X168669452Y-68397792D01*
X168317555Y-67729330D01*
X168290548Y-67688912D01*
X167800881Y-67328724D01*
X165279605Y-69850000D01*
X164920395Y-69850000D01*
X162399119Y-67328724D01*
X161909452Y-67688912D01*
X161549151Y-68352882D01*
X161325306Y-69074385D01*
X161246520Y-69825695D01*
X156271593Y-69825695D01*
X156254785Y-69805215D01*
X156158094Y-69725863D01*
X156047780Y-69666898D01*
X155928082Y-69630588D01*
X155803600Y-69618328D01*
X154076400Y-69618328D01*
X153951918Y-69630588D01*
X153832220Y-69666898D01*
X153721906Y-69725863D01*
X153625215Y-69805215D01*
X153545863Y-69901906D01*
X153486898Y-70012220D01*
X153469364Y-70070023D01*
X153355302Y-69955961D01*
X153109853Y-69791958D01*
X152837125Y-69678990D01*
X152547599Y-69621400D01*
X152252401Y-69621400D01*
X151962875Y-69678990D01*
X151690147Y-69791958D01*
X151444698Y-69955961D01*
X151235961Y-70164698D01*
X151130000Y-70323281D01*
X151024039Y-70164698D01*
X150815302Y-69955961D01*
X150569853Y-69791958D01*
X150297125Y-69678990D01*
X150007599Y-69621400D01*
X149712401Y-69621400D01*
X149422875Y-69678990D01*
X149150147Y-69791958D01*
X148904698Y-69955961D01*
X148695961Y-70164698D01*
X148590000Y-70323281D01*
X148484039Y-70164698D01*
X148275302Y-69955961D01*
X148029853Y-69791958D01*
X147757125Y-69678990D01*
X147467599Y-69621400D01*
X147172401Y-69621400D01*
X146882875Y-69678990D01*
X146610147Y-69791958D01*
X146364698Y-69955961D01*
X146155961Y-70164698D01*
X145991958Y-70410147D01*
X145878990Y-70682875D01*
X145821400Y-70972401D01*
X145821400Y-71267599D01*
X145878990Y-71557125D01*
X145991958Y-71829853D01*
X146155961Y-72075302D01*
X146364698Y-72284039D01*
X146523281Y-72390000D01*
X146364698Y-72495961D01*
X146155961Y-72704698D01*
X145991958Y-72950147D01*
X145878990Y-73222875D01*
X145821400Y-73512401D01*
X145821400Y-73807599D01*
X145878990Y-74097125D01*
X145991958Y-74369853D01*
X146155961Y-74615302D01*
X146185000Y-74644341D01*
X146185001Y-82569867D01*
X130689869Y-98065000D01*
X130663740Y-98065000D01*
X130376842Y-98122068D01*
X130106589Y-98234010D01*
X129863368Y-98396525D01*
X129656525Y-98603368D01*
X129540000Y-98777760D01*
X129423475Y-98603368D01*
X129216632Y-98396525D01*
X128973411Y-98234010D01*
X128703158Y-98122068D01*
X128416260Y-98065000D01*
X128123740Y-98065000D01*
X127836842Y-98122068D01*
X127566589Y-98234010D01*
X127323368Y-98396525D01*
X127116525Y-98603368D01*
X127000000Y-98777760D01*
X126883475Y-98603368D01*
X126676632Y-98396525D01*
X126433411Y-98234010D01*
X126163158Y-98122068D01*
X125876260Y-98065000D01*
X125583740Y-98065000D01*
X125296842Y-98122068D01*
X125026589Y-98234010D01*
X124783368Y-98396525D01*
X124576525Y-98603368D01*
X124414010Y-98846589D01*
X124302068Y-99116842D01*
X124245000Y-99403740D01*
X124245000Y-99696260D01*
X124302068Y-99983158D01*
X124414010Y-100253411D01*
X124576525Y-100496632D01*
X124783368Y-100703475D01*
X125026589Y-100865990D01*
X125296842Y-100977932D01*
X125583740Y-101035000D01*
X125876260Y-101035000D01*
X126163158Y-100977932D01*
X126433411Y-100865990D01*
X126676632Y-100703475D01*
X126883475Y-100496632D01*
X127000000Y-100322240D01*
X127116525Y-100496632D01*
X127323368Y-100703475D01*
X127566589Y-100865990D01*
X127836842Y-100977932D01*
X128123740Y-101035000D01*
X128416260Y-101035000D01*
X128703158Y-100977932D01*
X128973411Y-100865990D01*
X129216632Y-100703475D01*
X129423475Y-100496632D01*
X129540000Y-100322240D01*
X129656525Y-100496632D01*
X129863368Y-100703475D01*
X130106589Y-100865990D01*
X130376842Y-100977932D01*
X130663740Y-101035000D01*
X130956260Y-101035000D01*
X131243158Y-100977932D01*
X131513411Y-100865990D01*
X131756632Y-100703475D01*
X131963475Y-100496632D01*
X132080000Y-100322240D01*
X132196525Y-100496632D01*
X132403368Y-100703475D01*
X132646589Y-100865990D01*
X132916842Y-100977932D01*
X133203740Y-101035000D01*
X133496260Y-101035000D01*
X133783158Y-100977932D01*
X134053411Y-100865990D01*
X134296632Y-100703475D01*
X134503475Y-100496632D01*
X134620000Y-100322240D01*
X134736525Y-100496632D01*
X134943368Y-100703475D01*
X135186589Y-100865990D01*
X135240536Y-100888335D01*
X133593872Y-102534999D01*
X119905752Y-102534999D01*
X119850000Y-102529508D01*
X119627501Y-102551422D01*
X119577706Y-102566528D01*
X119413554Y-102616323D01*
X119216378Y-102721715D01*
X119043552Y-102863550D01*
X119008012Y-102906856D01*
X111453534Y-110461335D01*
X111371032Y-110477746D01*
X111128351Y-110578268D01*
X110909943Y-110724203D01*
X110724203Y-110909943D01*
X110578268Y-111128351D01*
X110490000Y-111341448D01*
X110401732Y-111128351D01*
X110255797Y-110909943D01*
X110070057Y-110724203D01*
X109851649Y-110578268D01*
X109608968Y-110477746D01*
X109351338Y-110426500D01*
X109088662Y-110426500D01*
X108831032Y-110477746D01*
X108588351Y-110578268D01*
X108369943Y-110724203D01*
X108184203Y-110909943D01*
X108038268Y-111128351D01*
X107937746Y-111371032D01*
X107886500Y-111628662D01*
X106070000Y-111628662D01*
X106070000Y-72550881D01*
X107968724Y-72550881D01*
X108328912Y-73040548D01*
X108992882Y-73400849D01*
X109714385Y-73624694D01*
X110465695Y-73703480D01*
X111217938Y-73634178D01*
X111942208Y-73419452D01*
X112610670Y-73067555D01*
X112651088Y-73040548D01*
X113011276Y-72550881D01*
X110490000Y-70029605D01*
X107968724Y-72550881D01*
X106070000Y-72550881D01*
X106070000Y-69879392D01*
X106074792Y-69825695D01*
X106636520Y-69825695D01*
X106705822Y-70577938D01*
X106920548Y-71302208D01*
X107272445Y-71970670D01*
X107299452Y-72011088D01*
X107789119Y-72371276D01*
X110310395Y-69850000D01*
X110669605Y-69850000D01*
X113190881Y-72371276D01*
X113680548Y-72011088D01*
X114040849Y-71347118D01*
X114264694Y-70625615D01*
X114343480Y-69874305D01*
X114327767Y-69703740D01*
X126785000Y-69703740D01*
X126785000Y-69996260D01*
X126842068Y-70283158D01*
X126954010Y-70553411D01*
X127116525Y-70796632D01*
X127323368Y-71003475D01*
X127566589Y-71165990D01*
X127836842Y-71277932D01*
X128123740Y-71335000D01*
X128416260Y-71335000D01*
X128703158Y-71277932D01*
X128973411Y-71165990D01*
X129216632Y-71003475D01*
X129423475Y-70796632D01*
X129540000Y-70622240D01*
X129656525Y-70796632D01*
X129863368Y-71003475D01*
X130106589Y-71165990D01*
X130376842Y-71277932D01*
X130663740Y-71335000D01*
X130956260Y-71335000D01*
X131243158Y-71277932D01*
X131513411Y-71165990D01*
X131756632Y-71003475D01*
X131881710Y-70878397D01*
X132501208Y-70878397D01*
X132578843Y-71127472D01*
X132842883Y-71253371D01*
X133126411Y-71325339D01*
X133418531Y-71340611D01*
X133708019Y-71298599D01*
X133983747Y-71200919D01*
X134121157Y-71127472D01*
X134198792Y-70878397D01*
X133350000Y-70029605D01*
X132501208Y-70878397D01*
X131881710Y-70878397D01*
X131963475Y-70796632D01*
X132079311Y-70623271D01*
X132321603Y-70698792D01*
X133170395Y-69850000D01*
X133529605Y-69850000D01*
X134378397Y-70698792D01*
X134401928Y-70691458D01*
X134401928Y-70700000D01*
X134414188Y-70824482D01*
X134450498Y-70944180D01*
X134509463Y-71054494D01*
X134588815Y-71151185D01*
X134685506Y-71230537D01*
X134795820Y-71289502D01*
X134915518Y-71325812D01*
X135040000Y-71338072D01*
X136740000Y-71338072D01*
X136864482Y-71325812D01*
X136984180Y-71289502D01*
X137094494Y-71230537D01*
X137191185Y-71151185D01*
X137270537Y-71054494D01*
X137329502Y-70944180D01*
X137365812Y-70824482D01*
X137378072Y-70700000D01*
X137378072Y-69000000D01*
X137365812Y-68875518D01*
X137329502Y-68755820D01*
X137270537Y-68645506D01*
X137191185Y-68548815D01*
X137094494Y-68469463D01*
X136984180Y-68410498D01*
X136864482Y-68374188D01*
X136740000Y-68361928D01*
X135040000Y-68361928D01*
X134915518Y-68374188D01*
X134795820Y-68410498D01*
X134685506Y-68469463D01*
X134588815Y-68548815D01*
X134509463Y-68645506D01*
X134450498Y-68755820D01*
X134414188Y-68875518D01*
X134401928Y-69000000D01*
X134401928Y-69008542D01*
X134378397Y-69001208D01*
X133529605Y-69850000D01*
X133170395Y-69850000D01*
X132321603Y-69001208D01*
X132079311Y-69076729D01*
X131963475Y-68903368D01*
X131881710Y-68821603D01*
X132501208Y-68821603D01*
X133350000Y-69670395D01*
X134198792Y-68821603D01*
X134121157Y-68572528D01*
X133857117Y-68446629D01*
X133573589Y-68374661D01*
X133281469Y-68359389D01*
X132991981Y-68401401D01*
X132716253Y-68499081D01*
X132578843Y-68572528D01*
X132501208Y-68821603D01*
X131881710Y-68821603D01*
X131756632Y-68696525D01*
X131513411Y-68534010D01*
X131243158Y-68422068D01*
X130956260Y-68365000D01*
X130663740Y-68365000D01*
X130376842Y-68422068D01*
X130106589Y-68534010D01*
X129863368Y-68696525D01*
X129656525Y-68903368D01*
X129540000Y-69077760D01*
X129423475Y-68903368D01*
X129216632Y-68696525D01*
X128973411Y-68534010D01*
X128703158Y-68422068D01*
X128416260Y-68365000D01*
X128123740Y-68365000D01*
X127836842Y-68422068D01*
X127566589Y-68534010D01*
X127323368Y-68696525D01*
X127116525Y-68903368D01*
X126954010Y-69146589D01*
X126842068Y-69416842D01*
X126785000Y-69703740D01*
X114327767Y-69703740D01*
X114274178Y-69122062D01*
X114059452Y-68397792D01*
X113707555Y-67729330D01*
X113680548Y-67688912D01*
X113190881Y-67328724D01*
X110669605Y-69850000D01*
X110310395Y-69850000D01*
X107789119Y-67328724D01*
X107299452Y-67688912D01*
X106939151Y-68352882D01*
X106715306Y-69074385D01*
X106636520Y-69825695D01*
X106074792Y-69825695D01*
X106142437Y-69067751D01*
X106349672Y-68310226D01*
X106687777Y-67601375D01*
X107012755Y-67149119D01*
X107968724Y-67149119D01*
X110490000Y-69670395D01*
X113011276Y-67149119D01*
X162578724Y-67149119D01*
X165100000Y-69670395D01*
X167621276Y-67149119D01*
X167261088Y-66659452D01*
X166597118Y-66299151D01*
X165875615Y-66075306D01*
X165124305Y-65996520D01*
X164372062Y-66065822D01*
X163647792Y-66280548D01*
X162979330Y-66632445D01*
X162938912Y-66659452D01*
X162578724Y-67149119D01*
X113011276Y-67149119D01*
X112651088Y-66659452D01*
X111987118Y-66299151D01*
X111265615Y-66075306D01*
X110514305Y-65996520D01*
X109762062Y-66065822D01*
X109037792Y-66280548D01*
X108369330Y-66632445D01*
X108328912Y-66659452D01*
X107968724Y-67149119D01*
X107012755Y-67149119D01*
X107146067Y-66963596D01*
X107710055Y-66417054D01*
X108361913Y-65979023D01*
X109081038Y-65663349D01*
X109849768Y-65478794D01*
X110514207Y-65430000D01*
X165070608Y-65430000D01*
X165882249Y-65502437D01*
%TA.AperFunction,Conductor*%
D23*
G36*
X165882249Y-65502437D02*
G01*
X166639774Y-65709672D01*
X167348625Y-66047777D01*
X167986404Y-66506067D01*
X168532946Y-67070055D01*
X168970977Y-67721913D01*
X169286651Y-68441038D01*
X169471206Y-69209768D01*
X169520001Y-69874221D01*
X169520000Y-120620608D01*
X169447563Y-121432249D01*
X169240328Y-122189774D01*
X168902221Y-122898627D01*
X168443928Y-123536410D01*
X167879945Y-124082946D01*
X167228085Y-124520978D01*
X166508963Y-124836651D01*
X165740232Y-125021206D01*
X165075792Y-125070000D01*
X110519392Y-125070000D01*
X109707751Y-124997563D01*
X108950226Y-124790328D01*
X108241373Y-124452221D01*
X107603590Y-123993928D01*
X107057054Y-123429945D01*
X107003926Y-123350881D01*
X107968724Y-123350881D01*
X108328912Y-123840548D01*
X108992882Y-124200849D01*
X109714385Y-124424694D01*
X110465695Y-124503480D01*
X111217938Y-124434178D01*
X111942208Y-124219452D01*
X112610670Y-123867555D01*
X112651088Y-123840548D01*
X113011276Y-123350881D01*
X110490000Y-120829605D01*
X107968724Y-123350881D01*
X107003926Y-123350881D01*
X106619022Y-122778085D01*
X106303349Y-122058963D01*
X106118794Y-121290232D01*
X106070000Y-120625792D01*
X106070000Y-120625695D01*
X106636520Y-120625695D01*
X106705822Y-121377938D01*
X106920548Y-122102208D01*
X107272445Y-122770670D01*
X107299452Y-122811088D01*
X107789119Y-123171276D01*
X110310395Y-120650000D01*
X110669605Y-120650000D01*
X113190881Y-123171276D01*
X113532484Y-122920000D01*
X126679428Y-122920000D01*
X126691688Y-123044482D01*
X126727998Y-123164180D01*
X126786963Y-123274494D01*
X126866315Y-123371185D01*
X126963006Y-123450537D01*
X127073320Y-123509502D01*
X127193018Y-123545812D01*
X127317500Y-123558072D01*
X127984250Y-123555000D01*
X128143000Y-123396250D01*
X128143000Y-122047000D01*
X126841250Y-122047000D01*
X126682500Y-122205750D01*
X126679428Y-122920000D01*
X113532484Y-122920000D01*
X113680548Y-122811088D01*
X114040849Y-122147118D01*
X114264694Y-121425615D01*
X114317715Y-120920000D01*
X126679428Y-120920000D01*
X126682500Y-121634250D01*
X126841250Y-121793000D01*
X128143000Y-121793000D01*
X128143000Y-120443750D01*
X128397000Y-120443750D01*
X128397000Y-121793000D01*
X128417000Y-121793000D01*
X128417000Y-122047000D01*
X128397000Y-122047000D01*
X128397000Y-123396250D01*
X128555750Y-123555000D01*
X129222500Y-123558072D01*
X129346982Y-123545812D01*
X129466680Y-123509502D01*
X129576994Y-123450537D01*
X129673685Y-123371185D01*
X129753037Y-123274494D01*
X129797905Y-123190553D01*
X129923766Y-123293845D01*
X130199552Y-123441255D01*
X130498797Y-123532030D01*
X130810000Y-123562681D01*
X131121204Y-123532030D01*
X131420449Y-123441255D01*
X131696235Y-123293845D01*
X131937963Y-123095463D01*
X132080000Y-122922391D01*
X132222037Y-123095463D01*
X132463766Y-123293845D01*
X132739552Y-123441255D01*
X133038797Y-123532030D01*
X133350000Y-123562681D01*
X133661204Y-123532030D01*
X133960449Y-123441255D01*
X134236235Y-123293845D01*
X134477963Y-123095463D01*
X134676345Y-122853734D01*
X134823755Y-122577948D01*
X134914530Y-122278703D01*
X134937500Y-122045485D01*
X134937500Y-121794514D01*
X134914530Y-121561296D01*
X134853468Y-121360000D01*
X141901928Y-121360000D01*
X141901928Y-124160000D01*
X141914188Y-124284482D01*
X141950498Y-124404180D01*
X142009463Y-124514494D01*
X142088815Y-124611185D01*
X142185506Y-124690537D01*
X142295820Y-124749502D01*
X142415518Y-124785812D01*
X142540000Y-124798072D01*
X145340000Y-124798072D01*
X145464482Y-124785812D01*
X145584180Y-124749502D01*
X145694494Y-124690537D01*
X145791185Y-124611185D01*
X145870537Y-124514494D01*
X145929502Y-124404180D01*
X145965812Y-124284482D01*
X145978072Y-124160000D01*
X156101928Y-124160000D01*
X156114188Y-124284482D01*
X156150498Y-124404180D01*
X156209463Y-124514494D01*
X156288815Y-124611185D01*
X156385506Y-124690537D01*
X156495820Y-124749502D01*
X156615518Y-124785812D01*
X156740000Y-124798072D01*
X157854250Y-124795000D01*
X158013000Y-124636250D01*
X158013000Y-122887000D01*
X158267000Y-122887000D01*
X158267000Y-124636250D01*
X158425750Y-124795000D01*
X159540000Y-124798072D01*
X159664482Y-124785812D01*
X159784180Y-124749502D01*
X159894494Y-124690537D01*
X159991185Y-124611185D01*
X160070537Y-124514494D01*
X160129502Y-124404180D01*
X160165812Y-124284482D01*
X160178072Y-124160000D01*
X160175842Y-123350881D01*
X162578724Y-123350881D01*
X162938912Y-123840548D01*
X163602882Y-124200849D01*
X164324385Y-124424694D01*
X165075695Y-124503480D01*
X165827938Y-124434178D01*
X166552208Y-124219452D01*
X167220670Y-123867555D01*
X167261088Y-123840548D01*
X167621276Y-123350881D01*
X165100000Y-120829605D01*
X162578724Y-123350881D01*
X160175842Y-123350881D01*
X160175000Y-123045750D01*
X160016250Y-122887000D01*
X158267000Y-122887000D01*
X158013000Y-122887000D01*
X156263750Y-122887000D01*
X156105000Y-123045750D01*
X156101928Y-124160000D01*
X145978072Y-124160000D01*
X145978072Y-121360000D01*
X156101928Y-121360000D01*
X156105000Y-122474250D01*
X156263750Y-122633000D01*
X158013000Y-122633000D01*
X158013000Y-120883750D01*
X158267000Y-120883750D01*
X158267000Y-122633000D01*
X160016250Y-122633000D01*
X160175000Y-122474250D01*
X160178072Y-121360000D01*
X160165812Y-121235518D01*
X160129502Y-121115820D01*
X160070537Y-121005506D01*
X159991185Y-120908815D01*
X159894494Y-120829463D01*
X159784180Y-120770498D01*
X159664482Y-120734188D01*
X159540000Y-120721928D01*
X158425750Y-120725000D01*
X158267000Y-120883750D01*
X158013000Y-120883750D01*
X157854250Y-120725000D01*
X156740000Y-120721928D01*
X156615518Y-120734188D01*
X156495820Y-120770498D01*
X156385506Y-120829463D01*
X156288815Y-120908815D01*
X156209463Y-121005506D01*
X156150498Y-121115820D01*
X156114188Y-121235518D01*
X156101928Y-121360000D01*
X145978072Y-121360000D01*
X145965812Y-121235518D01*
X145929502Y-121115820D01*
X145870537Y-121005506D01*
X145791185Y-120908815D01*
X145694494Y-120829463D01*
X145584180Y-120770498D01*
X145464482Y-120734188D01*
X145340000Y-120721928D01*
X142540000Y-120721928D01*
X142415518Y-120734188D01*
X142295820Y-120770498D01*
X142185506Y-120829463D01*
X142088815Y-120908815D01*
X142009463Y-121005506D01*
X141950498Y-121115820D01*
X141914188Y-121235518D01*
X141901928Y-121360000D01*
X134853468Y-121360000D01*
X134823755Y-121262051D01*
X134676345Y-120986265D01*
X134477963Y-120744537D01*
X134333154Y-120625695D01*
X161246520Y-120625695D01*
X161315822Y-121377938D01*
X161530548Y-122102208D01*
X161882445Y-122770670D01*
X161909452Y-122811088D01*
X162399119Y-123171276D01*
X164920395Y-120650000D01*
X165279605Y-120650000D01*
X167800881Y-123171276D01*
X168290548Y-122811088D01*
X168650849Y-122147118D01*
X168874694Y-121425615D01*
X168953480Y-120674305D01*
X168884178Y-119922062D01*
X168669452Y-119197792D01*
X168317555Y-118529330D01*
X168290548Y-118488912D01*
X167800881Y-118128724D01*
X165279605Y-120650000D01*
X164920395Y-120650000D01*
X162399119Y-118128724D01*
X161909452Y-118488912D01*
X161549151Y-119152882D01*
X161325306Y-119874385D01*
X161246520Y-120625695D01*
X134333154Y-120625695D01*
X134236234Y-120546155D01*
X133960448Y-120398745D01*
X133661203Y-120307970D01*
X133350000Y-120277319D01*
X133038796Y-120307970D01*
X132739551Y-120398745D01*
X132463765Y-120546155D01*
X132222037Y-120744537D01*
X132080000Y-120917609D01*
X131937963Y-120744537D01*
X131696234Y-120546155D01*
X131420448Y-120398745D01*
X131121203Y-120307970D01*
X130810000Y-120277319D01*
X130498796Y-120307970D01*
X130199551Y-120398745D01*
X129923765Y-120546155D01*
X129797905Y-120649446D01*
X129753037Y-120565506D01*
X129673685Y-120468815D01*
X129576994Y-120389463D01*
X129466680Y-120330498D01*
X129346982Y-120294188D01*
X129222500Y-120281928D01*
X128555750Y-120285000D01*
X128397000Y-120443750D01*
X128143000Y-120443750D01*
X127984250Y-120285000D01*
X127317500Y-120281928D01*
X127193018Y-120294188D01*
X127073320Y-120330498D01*
X126963006Y-120389463D01*
X126866315Y-120468815D01*
X126786963Y-120565506D01*
X126727998Y-120675820D01*
X126691688Y-120795518D01*
X126679428Y-120920000D01*
X114317715Y-120920000D01*
X114343480Y-120674305D01*
X114274178Y-119922062D01*
X114059452Y-119197792D01*
X113707555Y-118529330D01*
X113680548Y-118488912D01*
X113190881Y-118128724D01*
X110669605Y-120650000D01*
X110310395Y-120650000D01*
X107789119Y-118128724D01*
X107299452Y-118488912D01*
X106939151Y-119152882D01*
X106715306Y-119874385D01*
X106636520Y-120625695D01*
X106070000Y-120625695D01*
X106070000Y-117949119D01*
X107968724Y-117949119D01*
X110490000Y-120470395D01*
X113011276Y-117949119D01*
X162578724Y-117949119D01*
X165100000Y-120470395D01*
X167621276Y-117949119D01*
X167261088Y-117459452D01*
X166597118Y-117099151D01*
X165875615Y-116875306D01*
X165124305Y-116796520D01*
X164372062Y-116865822D01*
X163647792Y-117080548D01*
X162979330Y-117432445D01*
X162938912Y-117459452D01*
X162578724Y-117949119D01*
X113011276Y-117949119D01*
X112651088Y-117459452D01*
X111987118Y-117099151D01*
X111265615Y-116875306D01*
X110514305Y-116796520D01*
X109762062Y-116865822D01*
X109037792Y-117080548D01*
X108369330Y-117432445D01*
X108328912Y-117459452D01*
X107968724Y-117949119D01*
X106070000Y-117949119D01*
X106070000Y-111628662D01*
X107886500Y-111628662D01*
X107886500Y-111891338D01*
X107937746Y-112148968D01*
X108038268Y-112391649D01*
X108184203Y-112610057D01*
X108369943Y-112795797D01*
X108588351Y-112941732D01*
X108831032Y-113042254D01*
X109088662Y-113093500D01*
X109351338Y-113093500D01*
X109608968Y-113042254D01*
X109851649Y-112941732D01*
X110070057Y-112795797D01*
X110255797Y-112610057D01*
X110401732Y-112391649D01*
X110490000Y-112178552D01*
X110578268Y-112391649D01*
X110724203Y-112610057D01*
X110909943Y-112795797D01*
X111128351Y-112941732D01*
X111371032Y-113042254D01*
X111628662Y-113093500D01*
X111891338Y-113093500D01*
X112148968Y-113042254D01*
X112391649Y-112941732D01*
X112610057Y-112795797D01*
X112795797Y-112610057D01*
X112941732Y-112391649D01*
X113030000Y-112178552D01*
X113118268Y-112391649D01*
X113264203Y-112610057D01*
X113449943Y-112795797D01*
X113668351Y-112941732D01*
X113911032Y-113042254D01*
X114168662Y-113093500D01*
X114431338Y-113093500D01*
X114688968Y-113042254D01*
X114931649Y-112941732D01*
X115150057Y-112795797D01*
X115265657Y-112680197D01*
X116099408Y-112680197D01*
X116158686Y-112913812D01*
X116396875Y-113024559D01*
X116652093Y-113086711D01*
X116914533Y-113097876D01*
X117174107Y-113057629D01*
X117420842Y-112967514D01*
X117521314Y-112913812D01*
X117580592Y-112680197D01*
X116840000Y-111939605D01*
X116099408Y-112680197D01*
X115265657Y-112680197D01*
X115335797Y-112610057D01*
X115481732Y-112391649D01*
X115571707Y-112174430D01*
X115632486Y-112340842D01*
X115686188Y-112441314D01*
X115919803Y-112500592D01*
X116660395Y-111760000D01*
X117019605Y-111760000D01*
X117760197Y-112500592D01*
X117993812Y-112441314D01*
X118104559Y-112203125D01*
X118166711Y-111947907D01*
X118177876Y-111685467D01*
X118137629Y-111425893D01*
X118047514Y-111179158D01*
X117993812Y-111078686D01*
X117760197Y-111019408D01*
X117019605Y-111760000D01*
X116660395Y-111760000D01*
X115919803Y-111019408D01*
X115686188Y-111078686D01*
X115575441Y-111316875D01*
X115569658Y-111340622D01*
X115481732Y-111128351D01*
X115335797Y-110909943D01*
X115265657Y-110839803D01*
X116099408Y-110839803D01*
X116840000Y-111580395D01*
X117580592Y-110839803D01*
X117521314Y-110606188D01*
X117283125Y-110495441D01*
X117027907Y-110433289D01*
X116765467Y-110422124D01*
X116505893Y-110462371D01*
X116259158Y-110552486D01*
X116158686Y-110606188D01*
X116099408Y-110839803D01*
X115265657Y-110839803D01*
X115150057Y-110724203D01*
X114931649Y-110578268D01*
X114688968Y-110477746D01*
X114654284Y-110470847D01*
X120320133Y-104804999D01*
X128820240Y-104804999D01*
X128696440Y-104990279D01*
X128516654Y-105424321D01*
X128425000Y-105885098D01*
X128425000Y-106354902D01*
X128516654Y-106815679D01*
X128696440Y-107249721D01*
X128957450Y-107640349D01*
X129289651Y-107972550D01*
X129680279Y-108233560D01*
X130114321Y-108413346D01*
X130575098Y-108505000D01*
X131044902Y-108505000D01*
X131505679Y-108413346D01*
X131939721Y-108233560D01*
X132330349Y-107972550D01*
X132662550Y-107640349D01*
X132923560Y-107249721D01*
X133103346Y-106815679D01*
X133195000Y-106354902D01*
X133195000Y-105885098D01*
X133171488Y-105766891D01*
X162388519Y-105766891D01*
X162485843Y-106041252D01*
X162634822Y-106291355D01*
X162829731Y-106507588D01*
X163063080Y-106681641D01*
X163325901Y-106806825D01*
X163473110Y-106851476D01*
X163703000Y-106730155D01*
X163703000Y-105537000D01*
X162509186Y-105537000D01*
X162388519Y-105766891D01*
X133171488Y-105766891D01*
X133103346Y-105424321D01*
X132949586Y-105053109D01*
X162388519Y-105053109D01*
X162509186Y-105283000D01*
X163703000Y-105283000D01*
X163703000Y-104089845D01*
X163957000Y-104089845D01*
X163957000Y-105283000D01*
X163977000Y-105283000D01*
X163977000Y-105537000D01*
X163957000Y-105537000D01*
X163957000Y-106730155D01*
X164186890Y-106851476D01*
X164334099Y-106806825D01*
X164596920Y-106681641D01*
X164830269Y-106507588D01*
X164906034Y-106423534D01*
X164930498Y-106504180D01*
X164989463Y-106614494D01*
X165068815Y-106711185D01*
X165165506Y-106790537D01*
X165275820Y-106849502D01*
X165395518Y-106885812D01*
X165520000Y-106898072D01*
X167220000Y-106898072D01*
X167344482Y-106885812D01*
X167464180Y-106849502D01*
X167574494Y-106790537D01*
X167671185Y-106711185D01*
X167750537Y-106614494D01*
X167809502Y-106504180D01*
X167845812Y-106384482D01*
X167858072Y-106260000D01*
X167858072Y-104560000D01*
X167845812Y-104435518D01*
X167809502Y-104315820D01*
X167750537Y-104205506D01*
X167671185Y-104108815D01*
X167574494Y-104029463D01*
X167464180Y-103970498D01*
X167344482Y-103934188D01*
X167220000Y-103921928D01*
X165520000Y-103921928D01*
X165395518Y-103934188D01*
X165275820Y-103970498D01*
X165165506Y-104029463D01*
X165068815Y-104108815D01*
X164989463Y-104205506D01*
X164930498Y-104315820D01*
X164906034Y-104396466D01*
X164830269Y-104312412D01*
X164596920Y-104138359D01*
X164334099Y-104013175D01*
X164186890Y-103968524D01*
X163957000Y-104089845D01*
X163703000Y-104089845D01*
X163473110Y-103968524D01*
X163325901Y-104013175D01*
X163063080Y-104138359D01*
X162829731Y-104312412D01*
X162634822Y-104528645D01*
X162485843Y-104778748D01*
X162388519Y-105053109D01*
X132949586Y-105053109D01*
X132923560Y-104990279D01*
X132799760Y-104804999D01*
X134008252Y-104804999D01*
X134064003Y-104810490D01*
X134119754Y-104804999D01*
X134119755Y-104804999D01*
X134286502Y-104788576D01*
X134500450Y-104723675D01*
X134697626Y-104618283D01*
X134870452Y-104476448D01*
X134905999Y-104433134D01*
X140879133Y-98460000D01*
X141901928Y-98460000D01*
X141901928Y-101260000D01*
X141914188Y-101384482D01*
X141950498Y-101504180D01*
X142009463Y-101614494D01*
X142088815Y-101711185D01*
X142185506Y-101790537D01*
X142295820Y-101849502D01*
X142415518Y-101885812D01*
X142540000Y-101898072D01*
X145340000Y-101898072D01*
X145464482Y-101885812D01*
X145584180Y-101849502D01*
X145690000Y-101792939D01*
X145795820Y-101849502D01*
X145915518Y-101885812D01*
X146040000Y-101898072D01*
X148840000Y-101898072D01*
X148964482Y-101885812D01*
X149084180Y-101849502D01*
X149194494Y-101790537D01*
X149291185Y-101711185D01*
X149370537Y-101614494D01*
X149429502Y-101504180D01*
X149465812Y-101384482D01*
X149478072Y-101260000D01*
X153001928Y-101260000D01*
X153014188Y-101384482D01*
X153050498Y-101504180D01*
X153109463Y-101614494D01*
X153188815Y-101711185D01*
X153285506Y-101790537D01*
X153395820Y-101849502D01*
X153515518Y-101885812D01*
X153640000Y-101898072D01*
X154754250Y-101895000D01*
X154913000Y-101736250D01*
X154913000Y-99987000D01*
X155167000Y-99987000D01*
X155167000Y-101736250D01*
X155325750Y-101895000D01*
X156440000Y-101898072D01*
X156564482Y-101885812D01*
X156684180Y-101849502D01*
X156740000Y-101819665D01*
X156795820Y-101849502D01*
X156915518Y-101885812D01*
X157040000Y-101898072D01*
X158154250Y-101895000D01*
X158313000Y-101736250D01*
X158313000Y-99987000D01*
X158567000Y-99987000D01*
X158567000Y-101736250D01*
X158725750Y-101895000D01*
X159840000Y-101898072D01*
X159964482Y-101885812D01*
X160084180Y-101849502D01*
X160194494Y-101790537D01*
X160291185Y-101711185D01*
X160370537Y-101614494D01*
X160429502Y-101504180D01*
X160465812Y-101384482D01*
X160478072Y-101260000D01*
X160475000Y-100145750D01*
X160316250Y-99987000D01*
X158567000Y-99987000D01*
X158313000Y-99987000D01*
X155167000Y-99987000D01*
X154913000Y-99987000D01*
X153163750Y-99987000D01*
X153005000Y-100145750D01*
X153001928Y-101260000D01*
X149478072Y-101260000D01*
X149478072Y-98460000D01*
X153001928Y-98460000D01*
X153005000Y-99574250D01*
X153163750Y-99733000D01*
X154913000Y-99733000D01*
X154913000Y-97983750D01*
X155167000Y-97983750D01*
X155167000Y-99733000D01*
X158313000Y-99733000D01*
X158313000Y-97983750D01*
X158567000Y-97983750D01*
X158567000Y-99733000D01*
X160316250Y-99733000D01*
X160475000Y-99574250D01*
X160475433Y-99416891D01*
X162388519Y-99416891D01*
X162485843Y-99691252D01*
X162634822Y-99941355D01*
X162829731Y-100157588D01*
X163063080Y-100331641D01*
X163325901Y-100456825D01*
X163473110Y-100501476D01*
X163703000Y-100380155D01*
X163703000Y-99187000D01*
X162509186Y-99187000D01*
X162388519Y-99416891D01*
X160475433Y-99416891D01*
X160477401Y-98703109D01*
X162388519Y-98703109D01*
X162509186Y-98933000D01*
X163703000Y-98933000D01*
X163703000Y-97739845D01*
X163957000Y-97739845D01*
X163957000Y-98933000D01*
X163977000Y-98933000D01*
X163977000Y-99187000D01*
X163957000Y-99187000D01*
X163957000Y-100380155D01*
X164186890Y-100501476D01*
X164334099Y-100456825D01*
X164596920Y-100331641D01*
X164830269Y-100157588D01*
X164906034Y-100073534D01*
X164930498Y-100154180D01*
X164989463Y-100264494D01*
X165068815Y-100361185D01*
X165165506Y-100440537D01*
X165275820Y-100499502D01*
X165395518Y-100535812D01*
X165520000Y-100548072D01*
X167220000Y-100548072D01*
X167344482Y-100535812D01*
X167464180Y-100499502D01*
X167574494Y-100440537D01*
X167671185Y-100361185D01*
X167750537Y-100264494D01*
X167809502Y-100154180D01*
X167845812Y-100034482D01*
X167858072Y-99910000D01*
X167858072Y-98210000D01*
X167845812Y-98085518D01*
X167809502Y-97965820D01*
X167750537Y-97855506D01*
X167671185Y-97758815D01*
X167574494Y-97679463D01*
X167464180Y-97620498D01*
X167344482Y-97584188D01*
X167220000Y-97571928D01*
X165520000Y-97571928D01*
X165395518Y-97584188D01*
X165275820Y-97620498D01*
X165165506Y-97679463D01*
X165068815Y-97758815D01*
X164989463Y-97855506D01*
X164930498Y-97965820D01*
X164906034Y-98046466D01*
X164830269Y-97962412D01*
X164596920Y-97788359D01*
X164334099Y-97663175D01*
X164186890Y-97618524D01*
X163957000Y-97739845D01*
X163703000Y-97739845D01*
X163473110Y-97618524D01*
X163325901Y-97663175D01*
X163063080Y-97788359D01*
X162829731Y-97962412D01*
X162634822Y-98178645D01*
X162485843Y-98428748D01*
X162388519Y-98703109D01*
X160477401Y-98703109D01*
X160478072Y-98460000D01*
X160465812Y-98335518D01*
X160429502Y-98215820D01*
X160370537Y-98105506D01*
X160291185Y-98008815D01*
X160194494Y-97929463D01*
X160084180Y-97870498D01*
X159964482Y-97834188D01*
X159840000Y-97821928D01*
X158725750Y-97825000D01*
X158567000Y-97983750D01*
X158313000Y-97983750D01*
X158154250Y-97825000D01*
X157040000Y-97821928D01*
X156915518Y-97834188D01*
X156795820Y-97870498D01*
X156740000Y-97900335D01*
X156684180Y-97870498D01*
X156564482Y-97834188D01*
X156440000Y-97821928D01*
X155325750Y-97825000D01*
X155167000Y-97983750D01*
X154913000Y-97983750D01*
X154754250Y-97825000D01*
X153640000Y-97821928D01*
X153515518Y-97834188D01*
X153395820Y-97870498D01*
X153285506Y-97929463D01*
X153188815Y-98008815D01*
X153109463Y-98105506D01*
X153050498Y-98215820D01*
X153014188Y-98335518D01*
X153001928Y-98460000D01*
X149478072Y-98460000D01*
X149465812Y-98335518D01*
X149429502Y-98215820D01*
X149370537Y-98105506D01*
X149291185Y-98008815D01*
X149194494Y-97929463D01*
X149084180Y-97870498D01*
X148964482Y-97834188D01*
X148840000Y-97821928D01*
X146040000Y-97821928D01*
X145915518Y-97834188D01*
X145795820Y-97870498D01*
X145690000Y-97927061D01*
X145584180Y-97870498D01*
X145464482Y-97834188D01*
X145340000Y-97821928D01*
X142540000Y-97821928D01*
X142415518Y-97834188D01*
X142295820Y-97870498D01*
X142185506Y-97929463D01*
X142088815Y-98008815D01*
X142009463Y-98105506D01*
X141950498Y-98215820D01*
X141914188Y-98335518D01*
X141901928Y-98460000D01*
X140879133Y-98460000D01*
X148749133Y-90590000D01*
X162341928Y-90590000D01*
X162341928Y-92290000D01*
X162354188Y-92414482D01*
X162390498Y-92534180D01*
X162449463Y-92644494D01*
X162528815Y-92741185D01*
X162625506Y-92820537D01*
X162735820Y-92879502D01*
X162855518Y-92915812D01*
X162980000Y-92928072D01*
X164680000Y-92928072D01*
X164804482Y-92915812D01*
X164924180Y-92879502D01*
X165034494Y-92820537D01*
X165131185Y-92741185D01*
X165210537Y-92644494D01*
X165269502Y-92534180D01*
X165305812Y-92414482D01*
X165318072Y-92290000D01*
X165318072Y-90590000D01*
X165305812Y-90465518D01*
X165269502Y-90345820D01*
X165210537Y-90235506D01*
X165131185Y-90138815D01*
X165034494Y-90059463D01*
X164924180Y-90000498D01*
X164843534Y-89976034D01*
X164927588Y-89900269D01*
X165101641Y-89666920D01*
X165226825Y-89404099D01*
X165271476Y-89256890D01*
X165150155Y-89027000D01*
X163957000Y-89027000D01*
X163957000Y-89047000D01*
X163703000Y-89047000D01*
X163703000Y-89027000D01*
X162509845Y-89027000D01*
X162388524Y-89256890D01*
X162433175Y-89404099D01*
X162558359Y-89666920D01*
X162732412Y-89900269D01*
X162816466Y-89976034D01*
X162735820Y-90000498D01*
X162625506Y-90059463D01*
X162528815Y-90138815D01*
X162449463Y-90235506D01*
X162390498Y-90345820D01*
X162354188Y-90465518D01*
X162341928Y-90590000D01*
X148749133Y-90590000D01*
X150623141Y-88715993D01*
X150666449Y-88680451D01*
X150808284Y-88507625D01*
X150913676Y-88310449D01*
X150978577Y-88096501D01*
X150995000Y-87929754D01*
X150995000Y-87929747D01*
X151000490Y-87874003D01*
X150995000Y-87818259D01*
X150995000Y-86213740D01*
X162345000Y-86213740D01*
X162345000Y-86506260D01*
X162402068Y-86793158D01*
X162514010Y-87063411D01*
X162676525Y-87306632D01*
X162883368Y-87513475D01*
X163065534Y-87635195D01*
X162948645Y-87704822D01*
X162732412Y-87899731D01*
X162558359Y-88133080D01*
X162433175Y-88395901D01*
X162388524Y-88543110D01*
X162509845Y-88773000D01*
X163703000Y-88773000D01*
X163703000Y-88753000D01*
X163957000Y-88753000D01*
X163957000Y-88773000D01*
X165150155Y-88773000D01*
X165271476Y-88543110D01*
X165226825Y-88395901D01*
X165101641Y-88133080D01*
X164927588Y-87899731D01*
X164711355Y-87704822D01*
X164594466Y-87635195D01*
X164776632Y-87513475D01*
X164983475Y-87306632D01*
X165145990Y-87063411D01*
X165257932Y-86793158D01*
X165315000Y-86506260D01*
X165315000Y-86213740D01*
X165257932Y-85926842D01*
X165145990Y-85656589D01*
X164983475Y-85413368D01*
X164776632Y-85206525D01*
X164594466Y-85084805D01*
X164711355Y-85015178D01*
X164927588Y-84820269D01*
X165101641Y-84586920D01*
X165226825Y-84324099D01*
X165271476Y-84176890D01*
X165150155Y-83947000D01*
X163957000Y-83947000D01*
X163957000Y-83967000D01*
X163703000Y-83967000D01*
X163703000Y-83947000D01*
X162509845Y-83947000D01*
X162388524Y-84176890D01*
X162433175Y-84324099D01*
X162558359Y-84586920D01*
X162732412Y-84820269D01*
X162948645Y-85015178D01*
X163065534Y-85084805D01*
X162883368Y-85206525D01*
X162676525Y-85413368D01*
X162514010Y-85656589D01*
X162402068Y-85926842D01*
X162345000Y-86213740D01*
X150995000Y-86213740D01*
X150995000Y-83463110D01*
X162388524Y-83463110D01*
X162509845Y-83693000D01*
X163703000Y-83693000D01*
X163703000Y-82499186D01*
X163957000Y-82499186D01*
X163957000Y-83693000D01*
X165150155Y-83693000D01*
X165271476Y-83463110D01*
X165226825Y-83315901D01*
X165101641Y-83053080D01*
X164927588Y-82819731D01*
X164711355Y-82624822D01*
X164461252Y-82475843D01*
X164186891Y-82378519D01*
X163957000Y-82499186D01*
X163703000Y-82499186D01*
X163473109Y-82378519D01*
X163198748Y-82475843D01*
X162948645Y-82624822D01*
X162732412Y-82819731D01*
X162558359Y-83053080D01*
X162433175Y-83315901D01*
X162388524Y-83463110D01*
X150995000Y-83463110D01*
X150995000Y-74644341D01*
X151024039Y-74615302D01*
X151130000Y-74456719D01*
X151235961Y-74615302D01*
X151444698Y-74824039D01*
X151690147Y-74988042D01*
X151962875Y-75101010D01*
X152252401Y-75158600D01*
X152547599Y-75158600D01*
X152837125Y-75101010D01*
X153109853Y-74988042D01*
X153355302Y-74824039D01*
X153564039Y-74615302D01*
X153674559Y-74449897D01*
X153733183Y-74548488D01*
X153929707Y-74766854D01*
X154165056Y-74942684D01*
X154430186Y-75069222D01*
X154580974Y-75114958D01*
X154813000Y-74993817D01*
X154813000Y-73787000D01*
X155067000Y-73787000D01*
X155067000Y-74993817D01*
X155299026Y-75114958D01*
X155449814Y-75069222D01*
X155714944Y-74942684D01*
X155950293Y-74766854D01*
X156146817Y-74548488D01*
X156296964Y-74295978D01*
X156394963Y-74019027D01*
X156274464Y-73787000D01*
X155067000Y-73787000D01*
X154813000Y-73787000D01*
X154793000Y-73787000D01*
X154793000Y-73533000D01*
X154813000Y-73533000D01*
X154813000Y-73513000D01*
X155067000Y-73513000D01*
X155067000Y-73533000D01*
X156274464Y-73533000D01*
X156394963Y-73300973D01*
X156296964Y-73024022D01*
X156146817Y-72771512D01*
X155985308Y-72592053D01*
X156047780Y-72573102D01*
X156089351Y-72550881D01*
X162578724Y-72550881D01*
X162938912Y-73040548D01*
X163602882Y-73400849D01*
X164324385Y-73624694D01*
X165075695Y-73703480D01*
X165827938Y-73634178D01*
X166552208Y-73419452D01*
X167220670Y-73067555D01*
X167261088Y-73040548D01*
X167621276Y-72550881D01*
X165100000Y-70029605D01*
X162578724Y-72550881D01*
X156089351Y-72550881D01*
X156158094Y-72514137D01*
X156254785Y-72434785D01*
X156334137Y-72338094D01*
X156393102Y-72227780D01*
X156429412Y-72108082D01*
X156441672Y-71983600D01*
X156441672Y-70256400D01*
X156429412Y-70131918D01*
X156393102Y-70012220D01*
X156334137Y-69901906D01*
X156271593Y-69825695D01*
X161246520Y-69825695D01*
X161315822Y-70577938D01*
X161530548Y-71302208D01*
X161882445Y-71970670D01*
X161909452Y-72011088D01*
X162399119Y-72371276D01*
X164920395Y-69850000D01*
X165279605Y-69850000D01*
X167800881Y-72371276D01*
X168290548Y-72011088D01*
X168650849Y-71347118D01*
X168874694Y-70625615D01*
X168953480Y-69874305D01*
X168884178Y-69122062D01*
X168669452Y-68397792D01*
X168317555Y-67729330D01*
X168290548Y-67688912D01*
X167800881Y-67328724D01*
X165279605Y-69850000D01*
X164920395Y-69850000D01*
X162399119Y-67328724D01*
X161909452Y-67688912D01*
X161549151Y-68352882D01*
X161325306Y-69074385D01*
X161246520Y-69825695D01*
X156271593Y-69825695D01*
X156254785Y-69805215D01*
X156158094Y-69725863D01*
X156047780Y-69666898D01*
X155928082Y-69630588D01*
X155803600Y-69618328D01*
X154076400Y-69618328D01*
X153951918Y-69630588D01*
X153832220Y-69666898D01*
X153721906Y-69725863D01*
X153625215Y-69805215D01*
X153545863Y-69901906D01*
X153486898Y-70012220D01*
X153469364Y-70070023D01*
X153355302Y-69955961D01*
X153109853Y-69791958D01*
X152837125Y-69678990D01*
X152547599Y-69621400D01*
X152252401Y-69621400D01*
X151962875Y-69678990D01*
X151690147Y-69791958D01*
X151444698Y-69955961D01*
X151235961Y-70164698D01*
X151130000Y-70323281D01*
X151024039Y-70164698D01*
X150815302Y-69955961D01*
X150569853Y-69791958D01*
X150297125Y-69678990D01*
X150007599Y-69621400D01*
X149712401Y-69621400D01*
X149422875Y-69678990D01*
X149150147Y-69791958D01*
X148904698Y-69955961D01*
X148695961Y-70164698D01*
X148590000Y-70323281D01*
X148484039Y-70164698D01*
X148275302Y-69955961D01*
X148029853Y-69791958D01*
X147757125Y-69678990D01*
X147467599Y-69621400D01*
X147172401Y-69621400D01*
X146882875Y-69678990D01*
X146610147Y-69791958D01*
X146364698Y-69955961D01*
X146155961Y-70164698D01*
X145991958Y-70410147D01*
X145878990Y-70682875D01*
X145821400Y-70972401D01*
X145821400Y-71267599D01*
X145878990Y-71557125D01*
X145991958Y-71829853D01*
X146155961Y-72075302D01*
X146364698Y-72284039D01*
X146523281Y-72390000D01*
X146364698Y-72495961D01*
X146155961Y-72704698D01*
X145991958Y-72950147D01*
X145878990Y-73222875D01*
X145821400Y-73512401D01*
X145821400Y-73807599D01*
X145878990Y-74097125D01*
X145991958Y-74369853D01*
X146155961Y-74615302D01*
X146185000Y-74644341D01*
X146185001Y-82569867D01*
X130689869Y-98065000D01*
X130663740Y-98065000D01*
X130376842Y-98122068D01*
X130106589Y-98234010D01*
X129863368Y-98396525D01*
X129656525Y-98603368D01*
X129540000Y-98777760D01*
X129423475Y-98603368D01*
X129216632Y-98396525D01*
X128973411Y-98234010D01*
X128703158Y-98122068D01*
X128416260Y-98065000D01*
X128123740Y-98065000D01*
X127836842Y-98122068D01*
X127566589Y-98234010D01*
X127323368Y-98396525D01*
X127116525Y-98603368D01*
X127000000Y-98777760D01*
X126883475Y-98603368D01*
X126676632Y-98396525D01*
X126433411Y-98234010D01*
X126163158Y-98122068D01*
X125876260Y-98065000D01*
X125583740Y-98065000D01*
X125296842Y-98122068D01*
X125026589Y-98234010D01*
X124783368Y-98396525D01*
X124576525Y-98603368D01*
X124414010Y-98846589D01*
X124302068Y-99116842D01*
X124245000Y-99403740D01*
X124245000Y-99696260D01*
X124302068Y-99983158D01*
X124414010Y-100253411D01*
X124576525Y-100496632D01*
X124783368Y-100703475D01*
X125026589Y-100865990D01*
X125296842Y-100977932D01*
X125583740Y-101035000D01*
X125876260Y-101035000D01*
X126163158Y-100977932D01*
X126433411Y-100865990D01*
X126676632Y-100703475D01*
X126883475Y-100496632D01*
X127000000Y-100322240D01*
X127116525Y-100496632D01*
X127323368Y-100703475D01*
X127566589Y-100865990D01*
X127836842Y-100977932D01*
X128123740Y-101035000D01*
X128416260Y-101035000D01*
X128703158Y-100977932D01*
X128973411Y-100865990D01*
X129216632Y-100703475D01*
X129423475Y-100496632D01*
X129540000Y-100322240D01*
X129656525Y-100496632D01*
X129863368Y-100703475D01*
X130106589Y-100865990D01*
X130376842Y-100977932D01*
X130663740Y-101035000D01*
X130956260Y-101035000D01*
X131243158Y-100977932D01*
X131513411Y-100865990D01*
X131756632Y-100703475D01*
X131963475Y-100496632D01*
X132080000Y-100322240D01*
X132196525Y-100496632D01*
X132403368Y-100703475D01*
X132646589Y-100865990D01*
X132916842Y-100977932D01*
X133203740Y-101035000D01*
X133496260Y-101035000D01*
X133783158Y-100977932D01*
X134053411Y-100865990D01*
X134296632Y-100703475D01*
X134503475Y-100496632D01*
X134620000Y-100322240D01*
X134736525Y-100496632D01*
X134943368Y-100703475D01*
X135186589Y-100865990D01*
X135240536Y-100888335D01*
X133593872Y-102534999D01*
X119905752Y-102534999D01*
X119850000Y-102529508D01*
X119627501Y-102551422D01*
X119577706Y-102566528D01*
X119413554Y-102616323D01*
X119216378Y-102721715D01*
X119043552Y-102863550D01*
X119008012Y-102906856D01*
X111453534Y-110461335D01*
X111371032Y-110477746D01*
X111128351Y-110578268D01*
X110909943Y-110724203D01*
X110724203Y-110909943D01*
X110578268Y-111128351D01*
X110490000Y-111341448D01*
X110401732Y-111128351D01*
X110255797Y-110909943D01*
X110070057Y-110724203D01*
X109851649Y-110578268D01*
X109608968Y-110477746D01*
X109351338Y-110426500D01*
X109088662Y-110426500D01*
X108831032Y-110477746D01*
X108588351Y-110578268D01*
X108369943Y-110724203D01*
X108184203Y-110909943D01*
X108038268Y-111128351D01*
X107937746Y-111371032D01*
X107886500Y-111628662D01*
X106070000Y-111628662D01*
X106070000Y-72550881D01*
X107968724Y-72550881D01*
X108328912Y-73040548D01*
X108992882Y-73400849D01*
X109714385Y-73624694D01*
X110465695Y-73703480D01*
X111217938Y-73634178D01*
X111942208Y-73419452D01*
X112610670Y-73067555D01*
X112651088Y-73040548D01*
X113011276Y-72550881D01*
X110490000Y-70029605D01*
X107968724Y-72550881D01*
X106070000Y-72550881D01*
X106070000Y-69879392D01*
X106074792Y-69825695D01*
X106636520Y-69825695D01*
X106705822Y-70577938D01*
X106920548Y-71302208D01*
X107272445Y-71970670D01*
X107299452Y-72011088D01*
X107789119Y-72371276D01*
X110310395Y-69850000D01*
X110669605Y-69850000D01*
X113190881Y-72371276D01*
X113680548Y-72011088D01*
X114040849Y-71347118D01*
X114264694Y-70625615D01*
X114343480Y-69874305D01*
X114327767Y-69703740D01*
X126785000Y-69703740D01*
X126785000Y-69996260D01*
X126842068Y-70283158D01*
X126954010Y-70553411D01*
X127116525Y-70796632D01*
X127323368Y-71003475D01*
X127566589Y-71165990D01*
X127836842Y-71277932D01*
X128123740Y-71335000D01*
X128416260Y-71335000D01*
X128703158Y-71277932D01*
X128973411Y-71165990D01*
X129216632Y-71003475D01*
X129423475Y-70796632D01*
X129540000Y-70622240D01*
X129656525Y-70796632D01*
X129863368Y-71003475D01*
X130106589Y-71165990D01*
X130376842Y-71277932D01*
X130663740Y-71335000D01*
X130956260Y-71335000D01*
X131243158Y-71277932D01*
X131513411Y-71165990D01*
X131756632Y-71003475D01*
X131881710Y-70878397D01*
X132501208Y-70878397D01*
X132578843Y-71127472D01*
X132842883Y-71253371D01*
X133126411Y-71325339D01*
X133418531Y-71340611D01*
X133708019Y-71298599D01*
X133983747Y-71200919D01*
X134121157Y-71127472D01*
X134198792Y-70878397D01*
X133350000Y-70029605D01*
X132501208Y-70878397D01*
X131881710Y-70878397D01*
X131963475Y-70796632D01*
X132079311Y-70623271D01*
X132321603Y-70698792D01*
X133170395Y-69850000D01*
X133529605Y-69850000D01*
X134378397Y-70698792D01*
X134401928Y-70691458D01*
X134401928Y-70700000D01*
X134414188Y-70824482D01*
X134450498Y-70944180D01*
X134509463Y-71054494D01*
X134588815Y-71151185D01*
X134685506Y-71230537D01*
X134795820Y-71289502D01*
X134915518Y-71325812D01*
X135040000Y-71338072D01*
X136740000Y-71338072D01*
X136864482Y-71325812D01*
X136984180Y-71289502D01*
X137094494Y-71230537D01*
X137191185Y-71151185D01*
X137270537Y-71054494D01*
X137329502Y-70944180D01*
X137365812Y-70824482D01*
X137378072Y-70700000D01*
X137378072Y-69000000D01*
X137365812Y-68875518D01*
X137329502Y-68755820D01*
X137270537Y-68645506D01*
X137191185Y-68548815D01*
X137094494Y-68469463D01*
X136984180Y-68410498D01*
X136864482Y-68374188D01*
X136740000Y-68361928D01*
X135040000Y-68361928D01*
X134915518Y-68374188D01*
X134795820Y-68410498D01*
X134685506Y-68469463D01*
X134588815Y-68548815D01*
X134509463Y-68645506D01*
X134450498Y-68755820D01*
X134414188Y-68875518D01*
X134401928Y-69000000D01*
X134401928Y-69008542D01*
X134378397Y-69001208D01*
X133529605Y-69850000D01*
X133170395Y-69850000D01*
X132321603Y-69001208D01*
X132079311Y-69076729D01*
X131963475Y-68903368D01*
X131881710Y-68821603D01*
X132501208Y-68821603D01*
X133350000Y-69670395D01*
X134198792Y-68821603D01*
X134121157Y-68572528D01*
X133857117Y-68446629D01*
X133573589Y-68374661D01*
X133281469Y-68359389D01*
X132991981Y-68401401D01*
X132716253Y-68499081D01*
X132578843Y-68572528D01*
X132501208Y-68821603D01*
X131881710Y-68821603D01*
X131756632Y-68696525D01*
X131513411Y-68534010D01*
X131243158Y-68422068D01*
X130956260Y-68365000D01*
X130663740Y-68365000D01*
X130376842Y-68422068D01*
X130106589Y-68534010D01*
X129863368Y-68696525D01*
X129656525Y-68903368D01*
X129540000Y-69077760D01*
X129423475Y-68903368D01*
X129216632Y-68696525D01*
X128973411Y-68534010D01*
X128703158Y-68422068D01*
X128416260Y-68365000D01*
X128123740Y-68365000D01*
X127836842Y-68422068D01*
X127566589Y-68534010D01*
X127323368Y-68696525D01*
X127116525Y-68903368D01*
X126954010Y-69146589D01*
X126842068Y-69416842D01*
X126785000Y-69703740D01*
X114327767Y-69703740D01*
X114274178Y-69122062D01*
X114059452Y-68397792D01*
X113707555Y-67729330D01*
X113680548Y-67688912D01*
X113190881Y-67328724D01*
X110669605Y-69850000D01*
X110310395Y-69850000D01*
X107789119Y-67328724D01*
X107299452Y-67688912D01*
X106939151Y-68352882D01*
X106715306Y-69074385D01*
X106636520Y-69825695D01*
X106074792Y-69825695D01*
X106142437Y-69067751D01*
X106349672Y-68310226D01*
X106687777Y-67601375D01*
X107012755Y-67149119D01*
X107968724Y-67149119D01*
X110490000Y-69670395D01*
X113011276Y-67149119D01*
X162578724Y-67149119D01*
X165100000Y-69670395D01*
X167621276Y-67149119D01*
X167261088Y-66659452D01*
X166597118Y-66299151D01*
X165875615Y-66075306D01*
X165124305Y-65996520D01*
X164372062Y-66065822D01*
X163647792Y-66280548D01*
X162979330Y-66632445D01*
X162938912Y-66659452D01*
X162578724Y-67149119D01*
X113011276Y-67149119D01*
X112651088Y-66659452D01*
X111987118Y-66299151D01*
X111265615Y-66075306D01*
X110514305Y-65996520D01*
X109762062Y-66065822D01*
X109037792Y-66280548D01*
X108369330Y-66632445D01*
X108328912Y-66659452D01*
X107968724Y-67149119D01*
X107012755Y-67149119D01*
X107146067Y-66963596D01*
X107710055Y-66417054D01*
X108361913Y-65979023D01*
X109081038Y-65663349D01*
X109849768Y-65478794D01*
X110514207Y-65430000D01*
X165070608Y-65430000D01*
X165882249Y-65502437D01*
G37*
%TD.AperFunction*%
%TD*%
D22*
%TO.N,GND*%
X165882249Y-65502437D02*
X166639774Y-65709672D01*
X167348625Y-66047777D01*
X167986404Y-66506067D01*
X168532946Y-67070055D01*
X168970977Y-67721913D01*
X169286651Y-68441038D01*
X169471206Y-69209768D01*
X169520001Y-69874221D01*
X169520000Y-120620608D01*
X169447563Y-121432249D01*
X169240328Y-122189774D01*
X168902221Y-122898627D01*
X168443928Y-123536410D01*
X167879945Y-124082946D01*
X167228085Y-124520978D01*
X166508963Y-124836651D01*
X165740232Y-125021206D01*
X165075792Y-125070000D01*
X110519392Y-125070000D01*
X109707751Y-124997563D01*
X108950226Y-124790328D01*
X108241373Y-124452221D01*
X107603590Y-123993928D01*
X107057054Y-123429945D01*
X107003926Y-123350881D01*
X107968724Y-123350881D01*
X108328912Y-123840548D01*
X108992882Y-124200849D01*
X109714385Y-124424694D01*
X110465695Y-124503480D01*
X111217938Y-124434178D01*
X111942208Y-124219452D01*
X112610670Y-123867555D01*
X112651088Y-123840548D01*
X113011276Y-123350881D01*
X110490000Y-120829605D01*
X107968724Y-123350881D01*
X107003926Y-123350881D01*
X106619022Y-122778085D01*
X106303349Y-122058963D01*
X106118794Y-121290232D01*
X106070000Y-120625792D01*
X106070000Y-120625695D01*
X106636520Y-120625695D01*
X106705822Y-121377938D01*
X106920548Y-122102208D01*
X107272445Y-122770670D01*
X107299452Y-122811088D01*
X107789119Y-123171276D01*
X110310395Y-120650000D01*
X110669605Y-120650000D01*
X113190881Y-123171276D01*
X113532484Y-122920000D01*
X126679428Y-122920000D01*
X126691688Y-123044482D01*
X126727998Y-123164180D01*
X126786963Y-123274494D01*
X126866315Y-123371185D01*
X126963006Y-123450537D01*
X127073320Y-123509502D01*
X127193018Y-123545812D01*
X127317500Y-123558072D01*
X127984250Y-123555000D01*
X128143000Y-123396250D01*
X128143000Y-122047000D01*
X126841250Y-122047000D01*
X126682500Y-122205750D01*
X126679428Y-122920000D01*
X113532484Y-122920000D01*
X113680548Y-122811088D01*
X114040849Y-122147118D01*
X114264694Y-121425615D01*
X114317715Y-120920000D01*
X126679428Y-120920000D01*
X126682500Y-121634250D01*
X126841250Y-121793000D01*
X128143000Y-121793000D01*
X128143000Y-120443750D01*
X128397000Y-120443750D01*
X128397000Y-121793000D01*
X128417000Y-121793000D01*
X128417000Y-122047000D01*
X128397000Y-122047000D01*
X128397000Y-123396250D01*
X128555750Y-123555000D01*
X129222500Y-123558072D01*
X129346982Y-123545812D01*
X129466680Y-123509502D01*
X129576994Y-123450537D01*
X129673685Y-123371185D01*
X129753037Y-123274494D01*
X129797905Y-123190553D01*
X129923766Y-123293845D01*
X130199552Y-123441255D01*
X130498797Y-123532030D01*
X130810000Y-123562681D01*
X131121204Y-123532030D01*
X131420449Y-123441255D01*
X131696235Y-123293845D01*
X131937963Y-123095463D01*
X132080000Y-122922391D01*
X132222037Y-123095463D01*
X132463766Y-123293845D01*
X132739552Y-123441255D01*
X133038797Y-123532030D01*
X133350000Y-123562681D01*
X133661204Y-123532030D01*
X133960449Y-123441255D01*
X134236235Y-123293845D01*
X134477963Y-123095463D01*
X134676345Y-122853734D01*
X134823755Y-122577948D01*
X134914530Y-122278703D01*
X134937500Y-122045485D01*
X134937500Y-121794514D01*
X134914530Y-121561296D01*
X134853468Y-121360000D01*
X141901928Y-121360000D01*
X141901928Y-124160000D01*
X141914188Y-124284482D01*
X141950498Y-124404180D01*
X142009463Y-124514494D01*
X142088815Y-124611185D01*
X142185506Y-124690537D01*
X142295820Y-124749502D01*
X142415518Y-124785812D01*
X142540000Y-124798072D01*
X145340000Y-124798072D01*
X145464482Y-124785812D01*
X145584180Y-124749502D01*
X145694494Y-124690537D01*
X145791185Y-124611185D01*
X145870537Y-124514494D01*
X145929502Y-124404180D01*
X145965812Y-124284482D01*
X145978072Y-124160000D01*
X156101928Y-124160000D01*
X156114188Y-124284482D01*
X156150498Y-124404180D01*
X156209463Y-124514494D01*
X156288815Y-124611185D01*
X156385506Y-124690537D01*
X156495820Y-124749502D01*
X156615518Y-124785812D01*
X156740000Y-124798072D01*
X157854250Y-124795000D01*
X158013000Y-124636250D01*
X158013000Y-122887000D01*
X158267000Y-122887000D01*
X158267000Y-124636250D01*
X158425750Y-124795000D01*
X159540000Y-124798072D01*
X159664482Y-124785812D01*
X159784180Y-124749502D01*
X159894494Y-124690537D01*
X159991185Y-124611185D01*
X160070537Y-124514494D01*
X160129502Y-124404180D01*
X160165812Y-124284482D01*
X160178072Y-124160000D01*
X160175842Y-123350881D01*
X162578724Y-123350881D01*
X162938912Y-123840548D01*
X163602882Y-124200849D01*
X164324385Y-124424694D01*
X165075695Y-124503480D01*
X165827938Y-124434178D01*
X166552208Y-124219452D01*
X167220670Y-123867555D01*
X167261088Y-123840548D01*
X167621276Y-123350881D01*
X165100000Y-120829605D01*
X162578724Y-123350881D01*
X160175842Y-123350881D01*
X160175000Y-123045750D01*
X160016250Y-122887000D01*
X158267000Y-122887000D01*
X158013000Y-122887000D01*
X156263750Y-122887000D01*
X156105000Y-123045750D01*
X156101928Y-124160000D01*
X145978072Y-124160000D01*
X145978072Y-121360000D01*
X156101928Y-121360000D01*
X156105000Y-122474250D01*
X156263750Y-122633000D01*
X158013000Y-122633000D01*
X158013000Y-120883750D01*
X158267000Y-120883750D01*
X158267000Y-122633000D01*
X160016250Y-122633000D01*
X160175000Y-122474250D01*
X160178072Y-121360000D01*
X160165812Y-121235518D01*
X160129502Y-121115820D01*
X160070537Y-121005506D01*
X159991185Y-120908815D01*
X159894494Y-120829463D01*
X159784180Y-120770498D01*
X159664482Y-120734188D01*
X159540000Y-120721928D01*
X158425750Y-120725000D01*
X158267000Y-120883750D01*
X158013000Y-120883750D01*
X157854250Y-120725000D01*
X156740000Y-120721928D01*
X156615518Y-120734188D01*
X156495820Y-120770498D01*
X156385506Y-120829463D01*
X156288815Y-120908815D01*
X156209463Y-121005506D01*
X156150498Y-121115820D01*
X156114188Y-121235518D01*
X156101928Y-121360000D01*
X145978072Y-121360000D01*
X145965812Y-121235518D01*
X145929502Y-121115820D01*
X145870537Y-121005506D01*
X145791185Y-120908815D01*
X145694494Y-120829463D01*
X145584180Y-120770498D01*
X145464482Y-120734188D01*
X145340000Y-120721928D01*
X142540000Y-120721928D01*
X142415518Y-120734188D01*
X142295820Y-120770498D01*
X142185506Y-120829463D01*
X142088815Y-120908815D01*
X142009463Y-121005506D01*
X141950498Y-121115820D01*
X141914188Y-121235518D01*
X141901928Y-121360000D01*
X134853468Y-121360000D01*
X134823755Y-121262051D01*
X134676345Y-120986265D01*
X134477963Y-120744537D01*
X134333154Y-120625695D01*
X161246520Y-120625695D01*
X161315822Y-121377938D01*
X161530548Y-122102208D01*
X161882445Y-122770670D01*
X161909452Y-122811088D01*
X162399119Y-123171276D01*
X164920395Y-120650000D01*
X165279605Y-120650000D01*
X167800881Y-123171276D01*
X168290548Y-122811088D01*
X168650849Y-122147118D01*
X168874694Y-121425615D01*
X168953480Y-120674305D01*
X168884178Y-119922062D01*
X168669452Y-119197792D01*
X168317555Y-118529330D01*
X168290548Y-118488912D01*
X167800881Y-118128724D01*
X165279605Y-120650000D01*
X164920395Y-120650000D01*
X162399119Y-118128724D01*
X161909452Y-118488912D01*
X161549151Y-119152882D01*
X161325306Y-119874385D01*
X161246520Y-120625695D01*
X134333154Y-120625695D01*
X134236234Y-120546155D01*
X133960448Y-120398745D01*
X133661203Y-120307970D01*
X133350000Y-120277319D01*
X133038796Y-120307970D01*
X132739551Y-120398745D01*
X132463765Y-120546155D01*
X132222037Y-120744537D01*
X132080000Y-120917609D01*
X131937963Y-120744537D01*
X131696234Y-120546155D01*
X131420448Y-120398745D01*
X131121203Y-120307970D01*
X130810000Y-120277319D01*
X130498796Y-120307970D01*
X130199551Y-120398745D01*
X129923765Y-120546155D01*
X129797905Y-120649446D01*
X129753037Y-120565506D01*
X129673685Y-120468815D01*
X129576994Y-120389463D01*
X129466680Y-120330498D01*
X129346982Y-120294188D01*
X129222500Y-120281928D01*
X128555750Y-120285000D01*
X128397000Y-120443750D01*
X128143000Y-120443750D01*
X127984250Y-120285000D01*
X127317500Y-120281928D01*
X127193018Y-120294188D01*
X127073320Y-120330498D01*
X126963006Y-120389463D01*
X126866315Y-120468815D01*
X126786963Y-120565506D01*
X126727998Y-120675820D01*
X126691688Y-120795518D01*
X126679428Y-120920000D01*
X114317715Y-120920000D01*
X114343480Y-120674305D01*
X114274178Y-119922062D01*
X114059452Y-119197792D01*
X113707555Y-118529330D01*
X113680548Y-118488912D01*
X113190881Y-118128724D01*
X110669605Y-120650000D01*
X110310395Y-120650000D01*
X107789119Y-118128724D01*
X107299452Y-118488912D01*
X106939151Y-119152882D01*
X106715306Y-119874385D01*
X106636520Y-120625695D01*
X106070000Y-120625695D01*
X106070000Y-117949119D01*
X107968724Y-117949119D01*
X110490000Y-120470395D01*
X113011276Y-117949119D01*
X162578724Y-117949119D01*
X165100000Y-120470395D01*
X167621276Y-117949119D01*
X167261088Y-117459452D01*
X166597118Y-117099151D01*
X165875615Y-116875306D01*
X165124305Y-116796520D01*
X164372062Y-116865822D01*
X163647792Y-117080548D01*
X162979330Y-117432445D01*
X162938912Y-117459452D01*
X162578724Y-117949119D01*
X113011276Y-117949119D01*
X112651088Y-117459452D01*
X111987118Y-117099151D01*
X111265615Y-116875306D01*
X110514305Y-116796520D01*
X109762062Y-116865822D01*
X109037792Y-117080548D01*
X108369330Y-117432445D01*
X108328912Y-117459452D01*
X107968724Y-117949119D01*
X106070000Y-117949119D01*
X106070000Y-111628662D01*
X107886500Y-111628662D01*
X107886500Y-111891338D01*
X107937746Y-112148968D01*
X108038268Y-112391649D01*
X108184203Y-112610057D01*
X108369943Y-112795797D01*
X108588351Y-112941732D01*
X108831032Y-113042254D01*
X109088662Y-113093500D01*
X109351338Y-113093500D01*
X109608968Y-113042254D01*
X109851649Y-112941732D01*
X110070057Y-112795797D01*
X110255797Y-112610057D01*
X110401732Y-112391649D01*
X110490000Y-112178552D01*
X110578268Y-112391649D01*
X110724203Y-112610057D01*
X110909943Y-112795797D01*
X111128351Y-112941732D01*
X111371032Y-113042254D01*
X111628662Y-113093500D01*
X111891338Y-113093500D01*
X112148968Y-113042254D01*
X112391649Y-112941732D01*
X112610057Y-112795797D01*
X112795797Y-112610057D01*
X112941732Y-112391649D01*
X113030000Y-112178552D01*
X113118268Y-112391649D01*
X113264203Y-112610057D01*
X113449943Y-112795797D01*
X113668351Y-112941732D01*
X113911032Y-113042254D01*
X114168662Y-113093500D01*
X114431338Y-113093500D01*
X114688968Y-113042254D01*
X114931649Y-112941732D01*
X115150057Y-112795797D01*
X115265657Y-112680197D01*
X116099408Y-112680197D01*
X116158686Y-112913812D01*
X116396875Y-113024559D01*
X116652093Y-113086711D01*
X116914533Y-113097876D01*
X117174107Y-113057629D01*
X117420842Y-112967514D01*
X117521314Y-112913812D01*
X117580592Y-112680197D01*
X116840000Y-111939605D01*
X116099408Y-112680197D01*
X115265657Y-112680197D01*
X115335797Y-112610057D01*
X115481732Y-112391649D01*
X115571707Y-112174430D01*
X115632486Y-112340842D01*
X115686188Y-112441314D01*
X115919803Y-112500592D01*
X116660395Y-111760000D01*
X117019605Y-111760000D01*
X117760197Y-112500592D01*
X117993812Y-112441314D01*
X118104559Y-112203125D01*
X118166711Y-111947907D01*
X118177876Y-111685467D01*
X118137629Y-111425893D01*
X118047514Y-111179158D01*
X117993812Y-111078686D01*
X117760197Y-111019408D01*
X117019605Y-111760000D01*
X116660395Y-111760000D01*
X115919803Y-111019408D01*
X115686188Y-111078686D01*
X115575441Y-111316875D01*
X115569658Y-111340622D01*
X115481732Y-111128351D01*
X115335797Y-110909943D01*
X115265657Y-110839803D01*
X116099408Y-110839803D01*
X116840000Y-111580395D01*
X117580592Y-110839803D01*
X117521314Y-110606188D01*
X117283125Y-110495441D01*
X117027907Y-110433289D01*
X116765467Y-110422124D01*
X116505893Y-110462371D01*
X116259158Y-110552486D01*
X116158686Y-110606188D01*
X116099408Y-110839803D01*
X115265657Y-110839803D01*
X115150057Y-110724203D01*
X114931649Y-110578268D01*
X114688968Y-110477746D01*
X114654284Y-110470847D01*
X120320133Y-104804999D01*
X128820240Y-104804999D01*
X128696440Y-104990279D01*
X128516654Y-105424321D01*
X128425000Y-105885098D01*
X128425000Y-106354902D01*
X128516654Y-106815679D01*
X128696440Y-107249721D01*
X128957450Y-107640349D01*
X129289651Y-107972550D01*
X129680279Y-108233560D01*
X130114321Y-108413346D01*
X130575098Y-108505000D01*
X131044902Y-108505000D01*
X131505679Y-108413346D01*
X131939721Y-108233560D01*
X132330349Y-107972550D01*
X132662550Y-107640349D01*
X132923560Y-107249721D01*
X133103346Y-106815679D01*
X133195000Y-106354902D01*
X133195000Y-105885098D01*
X133171488Y-105766891D01*
X162388519Y-105766891D01*
X162485843Y-106041252D01*
X162634822Y-106291355D01*
X162829731Y-106507588D01*
X163063080Y-106681641D01*
X163325901Y-106806825D01*
X163473110Y-106851476D01*
X163703000Y-106730155D01*
X163703000Y-105537000D01*
X162509186Y-105537000D01*
X162388519Y-105766891D01*
X133171488Y-105766891D01*
X133103346Y-105424321D01*
X132949586Y-105053109D01*
X162388519Y-105053109D01*
X162509186Y-105283000D01*
X163703000Y-105283000D01*
X163703000Y-104089845D01*
X163957000Y-104089845D01*
X163957000Y-105283000D01*
X163977000Y-105283000D01*
X163977000Y-105537000D01*
X163957000Y-105537000D01*
X163957000Y-106730155D01*
X164186890Y-106851476D01*
X164334099Y-106806825D01*
X164596920Y-106681641D01*
X164830269Y-106507588D01*
X164906034Y-106423534D01*
X164930498Y-106504180D01*
X164989463Y-106614494D01*
X165068815Y-106711185D01*
X165165506Y-106790537D01*
X165275820Y-106849502D01*
X165395518Y-106885812D01*
X165520000Y-106898072D01*
X167220000Y-106898072D01*
X167344482Y-106885812D01*
X167464180Y-106849502D01*
X167574494Y-106790537D01*
X167671185Y-106711185D01*
X167750537Y-106614494D01*
X167809502Y-106504180D01*
X167845812Y-106384482D01*
X167858072Y-106260000D01*
X167858072Y-104560000D01*
X167845812Y-104435518D01*
X167809502Y-104315820D01*
X167750537Y-104205506D01*
X167671185Y-104108815D01*
X167574494Y-104029463D01*
X167464180Y-103970498D01*
X167344482Y-103934188D01*
X167220000Y-103921928D01*
X165520000Y-103921928D01*
X165395518Y-103934188D01*
X165275820Y-103970498D01*
X165165506Y-104029463D01*
X165068815Y-104108815D01*
X164989463Y-104205506D01*
X164930498Y-104315820D01*
X164906034Y-104396466D01*
X164830269Y-104312412D01*
X164596920Y-104138359D01*
X164334099Y-104013175D01*
X164186890Y-103968524D01*
X163957000Y-104089845D01*
X163703000Y-104089845D01*
X163473110Y-103968524D01*
X163325901Y-104013175D01*
X163063080Y-104138359D01*
X162829731Y-104312412D01*
X162634822Y-104528645D01*
X162485843Y-104778748D01*
X162388519Y-105053109D01*
X132949586Y-105053109D01*
X132923560Y-104990279D01*
X132799760Y-104804999D01*
X134008252Y-104804999D01*
X134064003Y-104810490D01*
X134119754Y-104804999D01*
X134119755Y-104804999D01*
X134286502Y-104788576D01*
X134500450Y-104723675D01*
X134697626Y-104618283D01*
X134870452Y-104476448D01*
X134905999Y-104433134D01*
X140879133Y-98460000D01*
X141901928Y-98460000D01*
X141901928Y-101260000D01*
X141914188Y-101384482D01*
X141950498Y-101504180D01*
X142009463Y-101614494D01*
X142088815Y-101711185D01*
X142185506Y-101790537D01*
X142295820Y-101849502D01*
X142415518Y-101885812D01*
X142540000Y-101898072D01*
X145340000Y-101898072D01*
X145464482Y-101885812D01*
X145584180Y-101849502D01*
X145690000Y-101792939D01*
X145795820Y-101849502D01*
X145915518Y-101885812D01*
X146040000Y-101898072D01*
X148840000Y-101898072D01*
X148964482Y-101885812D01*
X149084180Y-101849502D01*
X149194494Y-101790537D01*
X149291185Y-101711185D01*
X149370537Y-101614494D01*
X149429502Y-101504180D01*
X149465812Y-101384482D01*
X149478072Y-101260000D01*
X153001928Y-101260000D01*
X153014188Y-101384482D01*
X153050498Y-101504180D01*
X153109463Y-101614494D01*
X153188815Y-101711185D01*
X153285506Y-101790537D01*
X153395820Y-101849502D01*
X153515518Y-101885812D01*
X153640000Y-101898072D01*
X154754250Y-101895000D01*
X154913000Y-101736250D01*
X154913000Y-99987000D01*
X155167000Y-99987000D01*
X155167000Y-101736250D01*
X155325750Y-101895000D01*
X156440000Y-101898072D01*
X156564482Y-101885812D01*
X156684180Y-101849502D01*
X156740000Y-101819665D01*
X156795820Y-101849502D01*
X156915518Y-101885812D01*
X157040000Y-101898072D01*
X158154250Y-101895000D01*
X158313000Y-101736250D01*
X158313000Y-99987000D01*
X158567000Y-99987000D01*
X158567000Y-101736250D01*
X158725750Y-101895000D01*
X159840000Y-101898072D01*
X159964482Y-101885812D01*
X160084180Y-101849502D01*
X160194494Y-101790537D01*
X160291185Y-101711185D01*
X160370537Y-101614494D01*
X160429502Y-101504180D01*
X160465812Y-101384482D01*
X160478072Y-101260000D01*
X160475000Y-100145750D01*
X160316250Y-99987000D01*
X158567000Y-99987000D01*
X158313000Y-99987000D01*
X155167000Y-99987000D01*
X154913000Y-99987000D01*
X153163750Y-99987000D01*
X153005000Y-100145750D01*
X153001928Y-101260000D01*
X149478072Y-101260000D01*
X149478072Y-98460000D01*
X153001928Y-98460000D01*
X153005000Y-99574250D01*
X153163750Y-99733000D01*
X154913000Y-99733000D01*
X154913000Y-97983750D01*
X155167000Y-97983750D01*
X155167000Y-99733000D01*
X158313000Y-99733000D01*
X158313000Y-97983750D01*
X158567000Y-97983750D01*
X158567000Y-99733000D01*
X160316250Y-99733000D01*
X160475000Y-99574250D01*
X160475433Y-99416891D01*
X162388519Y-99416891D01*
X162485843Y-99691252D01*
X162634822Y-99941355D01*
X162829731Y-100157588D01*
X163063080Y-100331641D01*
X163325901Y-100456825D01*
X163473110Y-100501476D01*
X163703000Y-100380155D01*
X163703000Y-99187000D01*
X162509186Y-99187000D01*
X162388519Y-99416891D01*
X160475433Y-99416891D01*
X160477401Y-98703109D01*
X162388519Y-98703109D01*
X162509186Y-98933000D01*
X163703000Y-98933000D01*
X163703000Y-97739845D01*
X163957000Y-97739845D01*
X163957000Y-98933000D01*
X163977000Y-98933000D01*
X163977000Y-99187000D01*
X163957000Y-99187000D01*
X163957000Y-100380155D01*
X164186890Y-100501476D01*
X164334099Y-100456825D01*
X164596920Y-100331641D01*
X164830269Y-100157588D01*
X164906034Y-100073534D01*
X164930498Y-100154180D01*
X164989463Y-100264494D01*
X165068815Y-100361185D01*
X165165506Y-100440537D01*
X165275820Y-100499502D01*
X165395518Y-100535812D01*
X165520000Y-100548072D01*
X167220000Y-100548072D01*
X167344482Y-100535812D01*
X167464180Y-100499502D01*
X167574494Y-100440537D01*
X167671185Y-100361185D01*
X167750537Y-100264494D01*
X167809502Y-100154180D01*
X167845812Y-100034482D01*
X167858072Y-99910000D01*
X167858072Y-98210000D01*
X167845812Y-98085518D01*
X167809502Y-97965820D01*
X167750537Y-97855506D01*
X167671185Y-97758815D01*
X167574494Y-97679463D01*
X167464180Y-97620498D01*
X167344482Y-97584188D01*
X167220000Y-97571928D01*
X165520000Y-97571928D01*
X165395518Y-97584188D01*
X165275820Y-97620498D01*
X165165506Y-97679463D01*
X165068815Y-97758815D01*
X164989463Y-97855506D01*
X164930498Y-97965820D01*
X164906034Y-98046466D01*
X164830269Y-97962412D01*
X164596920Y-97788359D01*
X164334099Y-97663175D01*
X164186890Y-97618524D01*
X163957000Y-97739845D01*
X163703000Y-97739845D01*
X163473110Y-97618524D01*
X163325901Y-97663175D01*
X163063080Y-97788359D01*
X162829731Y-97962412D01*
X162634822Y-98178645D01*
X162485843Y-98428748D01*
X162388519Y-98703109D01*
X160477401Y-98703109D01*
X160478072Y-98460000D01*
X160465812Y-98335518D01*
X160429502Y-98215820D01*
X160370537Y-98105506D01*
X160291185Y-98008815D01*
X160194494Y-97929463D01*
X160084180Y-97870498D01*
X159964482Y-97834188D01*
X159840000Y-97821928D01*
X158725750Y-97825000D01*
X158567000Y-97983750D01*
X158313000Y-97983750D01*
X158154250Y-97825000D01*
X157040000Y-97821928D01*
X156915518Y-97834188D01*
X156795820Y-97870498D01*
X156740000Y-97900335D01*
X156684180Y-97870498D01*
X156564482Y-97834188D01*
X156440000Y-97821928D01*
X155325750Y-97825000D01*
X155167000Y-97983750D01*
X154913000Y-97983750D01*
X154754250Y-97825000D01*
X153640000Y-97821928D01*
X153515518Y-97834188D01*
X153395820Y-97870498D01*
X153285506Y-97929463D01*
X153188815Y-98008815D01*
X153109463Y-98105506D01*
X153050498Y-98215820D01*
X153014188Y-98335518D01*
X153001928Y-98460000D01*
X149478072Y-98460000D01*
X149465812Y-98335518D01*
X149429502Y-98215820D01*
X149370537Y-98105506D01*
X149291185Y-98008815D01*
X149194494Y-97929463D01*
X149084180Y-97870498D01*
X148964482Y-97834188D01*
X148840000Y-97821928D01*
X146040000Y-97821928D01*
X145915518Y-97834188D01*
X145795820Y-97870498D01*
X145690000Y-97927061D01*
X145584180Y-97870498D01*
X145464482Y-97834188D01*
X145340000Y-97821928D01*
X142540000Y-97821928D01*
X142415518Y-97834188D01*
X142295820Y-97870498D01*
X142185506Y-97929463D01*
X142088815Y-98008815D01*
X142009463Y-98105506D01*
X141950498Y-98215820D01*
X141914188Y-98335518D01*
X141901928Y-98460000D01*
X140879133Y-98460000D01*
X148749133Y-90590000D01*
X162341928Y-90590000D01*
X162341928Y-92290000D01*
X162354188Y-92414482D01*
X162390498Y-92534180D01*
X162449463Y-92644494D01*
X162528815Y-92741185D01*
X162625506Y-92820537D01*
X162735820Y-92879502D01*
X162855518Y-92915812D01*
X162980000Y-92928072D01*
X164680000Y-92928072D01*
X164804482Y-92915812D01*
X164924180Y-92879502D01*
X165034494Y-92820537D01*
X165131185Y-92741185D01*
X165210537Y-92644494D01*
X165269502Y-92534180D01*
X165305812Y-92414482D01*
X165318072Y-92290000D01*
X165318072Y-90590000D01*
X165305812Y-90465518D01*
X165269502Y-90345820D01*
X165210537Y-90235506D01*
X165131185Y-90138815D01*
X165034494Y-90059463D01*
X164924180Y-90000498D01*
X164843534Y-89976034D01*
X164927588Y-89900269D01*
X165101641Y-89666920D01*
X165226825Y-89404099D01*
X165271476Y-89256890D01*
X165150155Y-89027000D01*
X163957000Y-89027000D01*
X163957000Y-89047000D01*
X163703000Y-89047000D01*
X163703000Y-89027000D01*
X162509845Y-89027000D01*
X162388524Y-89256890D01*
X162433175Y-89404099D01*
X162558359Y-89666920D01*
X162732412Y-89900269D01*
X162816466Y-89976034D01*
X162735820Y-90000498D01*
X162625506Y-90059463D01*
X162528815Y-90138815D01*
X162449463Y-90235506D01*
X162390498Y-90345820D01*
X162354188Y-90465518D01*
X162341928Y-90590000D01*
X148749133Y-90590000D01*
X150623141Y-88715993D01*
X150666449Y-88680451D01*
X150808284Y-88507625D01*
X150913676Y-88310449D01*
X150978577Y-88096501D01*
X150995000Y-87929754D01*
X150995000Y-87929747D01*
X151000490Y-87874003D01*
X150995000Y-87818259D01*
X150995000Y-86213740D01*
X162345000Y-86213740D01*
X162345000Y-86506260D01*
X162402068Y-86793158D01*
X162514010Y-87063411D01*
X162676525Y-87306632D01*
X162883368Y-87513475D01*
X163065534Y-87635195D01*
X162948645Y-87704822D01*
X162732412Y-87899731D01*
X162558359Y-88133080D01*
X162433175Y-88395901D01*
X162388524Y-88543110D01*
X162509845Y-88773000D01*
X163703000Y-88773000D01*
X163703000Y-88753000D01*
X163957000Y-88753000D01*
X163957000Y-88773000D01*
X165150155Y-88773000D01*
X165271476Y-88543110D01*
X165226825Y-88395901D01*
X165101641Y-88133080D01*
X164927588Y-87899731D01*
X164711355Y-87704822D01*
X164594466Y-87635195D01*
X164776632Y-87513475D01*
X164983475Y-87306632D01*
X165145990Y-87063411D01*
X165257932Y-86793158D01*
X165315000Y-86506260D01*
X165315000Y-86213740D01*
X165257932Y-85926842D01*
X165145990Y-85656589D01*
X164983475Y-85413368D01*
X164776632Y-85206525D01*
X164594466Y-85084805D01*
X164711355Y-85015178D01*
X164927588Y-84820269D01*
X165101641Y-84586920D01*
X165226825Y-84324099D01*
X165271476Y-84176890D01*
X165150155Y-83947000D01*
X163957000Y-83947000D01*
X163957000Y-83967000D01*
X163703000Y-83967000D01*
X163703000Y-83947000D01*
X162509845Y-83947000D01*
X162388524Y-84176890D01*
X162433175Y-84324099D01*
X162558359Y-84586920D01*
X162732412Y-84820269D01*
X162948645Y-85015178D01*
X163065534Y-85084805D01*
X162883368Y-85206525D01*
X162676525Y-85413368D01*
X162514010Y-85656589D01*
X162402068Y-85926842D01*
X162345000Y-86213740D01*
X150995000Y-86213740D01*
X150995000Y-83463110D01*
X162388524Y-83463110D01*
X162509845Y-83693000D01*
X163703000Y-83693000D01*
X163703000Y-82499186D01*
X163957000Y-82499186D01*
X163957000Y-83693000D01*
X165150155Y-83693000D01*
X165271476Y-83463110D01*
X165226825Y-83315901D01*
X165101641Y-83053080D01*
X164927588Y-82819731D01*
X164711355Y-82624822D01*
X164461252Y-82475843D01*
X164186891Y-82378519D01*
X163957000Y-82499186D01*
X163703000Y-82499186D01*
X163473109Y-82378519D01*
X163198748Y-82475843D01*
X162948645Y-82624822D01*
X162732412Y-82819731D01*
X162558359Y-83053080D01*
X162433175Y-83315901D01*
X162388524Y-83463110D01*
X150995000Y-83463110D01*
X150995000Y-74644341D01*
X151024039Y-74615302D01*
X151130000Y-74456719D01*
X151235961Y-74615302D01*
X151444698Y-74824039D01*
X151690147Y-74988042D01*
X151962875Y-75101010D01*
X152252401Y-75158600D01*
X152547599Y-75158600D01*
X152837125Y-75101010D01*
X153109853Y-74988042D01*
X153355302Y-74824039D01*
X153564039Y-74615302D01*
X153674559Y-74449897D01*
X153733183Y-74548488D01*
X153929707Y-74766854D01*
X154165056Y-74942684D01*
X154430186Y-75069222D01*
X154580974Y-75114958D01*
X154813000Y-74993817D01*
X154813000Y-73787000D01*
X155067000Y-73787000D01*
X155067000Y-74993817D01*
X155299026Y-75114958D01*
X155449814Y-75069222D01*
X155714944Y-74942684D01*
X155950293Y-74766854D01*
X156146817Y-74548488D01*
X156296964Y-74295978D01*
X156394963Y-74019027D01*
X156274464Y-73787000D01*
X155067000Y-73787000D01*
X154813000Y-73787000D01*
X154793000Y-73787000D01*
X154793000Y-73533000D01*
X154813000Y-73533000D01*
X154813000Y-73513000D01*
X155067000Y-73513000D01*
X155067000Y-73533000D01*
X156274464Y-73533000D01*
X156394963Y-73300973D01*
X156296964Y-73024022D01*
X156146817Y-72771512D01*
X155985308Y-72592053D01*
X156047780Y-72573102D01*
X156089351Y-72550881D01*
X162578724Y-72550881D01*
X162938912Y-73040548D01*
X163602882Y-73400849D01*
X164324385Y-73624694D01*
X165075695Y-73703480D01*
X165827938Y-73634178D01*
X166552208Y-73419452D01*
X167220670Y-73067555D01*
X167261088Y-73040548D01*
X167621276Y-72550881D01*
X165100000Y-70029605D01*
X162578724Y-72550881D01*
X156089351Y-72550881D01*
X156158094Y-72514137D01*
X156254785Y-72434785D01*
X156334137Y-72338094D01*
X156393102Y-72227780D01*
X156429412Y-72108082D01*
X156441672Y-71983600D01*
X156441672Y-70256400D01*
X156429412Y-70131918D01*
X156393102Y-70012220D01*
X156334137Y-69901906D01*
X156271593Y-69825695D01*
X161246520Y-69825695D01*
X161315822Y-70577938D01*
X161530548Y-71302208D01*
X161882445Y-71970670D01*
X161909452Y-72011088D01*
X162399119Y-72371276D01*
X164920395Y-69850000D01*
X165279605Y-69850000D01*
X167800881Y-72371276D01*
X168290548Y-72011088D01*
X168650849Y-71347118D01*
X168874694Y-70625615D01*
X168953480Y-69874305D01*
X168884178Y-69122062D01*
X168669452Y-68397792D01*
X168317555Y-67729330D01*
X168290548Y-67688912D01*
X167800881Y-67328724D01*
X165279605Y-69850000D01*
X164920395Y-69850000D01*
X162399119Y-67328724D01*
X161909452Y-67688912D01*
X161549151Y-68352882D01*
X161325306Y-69074385D01*
X161246520Y-69825695D01*
X156271593Y-69825695D01*
X156254785Y-69805215D01*
X156158094Y-69725863D01*
X156047780Y-69666898D01*
X155928082Y-69630588D01*
X155803600Y-69618328D01*
X154076400Y-69618328D01*
X153951918Y-69630588D01*
X153832220Y-69666898D01*
X153721906Y-69725863D01*
X153625215Y-69805215D01*
X153545863Y-69901906D01*
X153486898Y-70012220D01*
X153469364Y-70070023D01*
X153355302Y-69955961D01*
X153109853Y-69791958D01*
X152837125Y-69678990D01*
X152547599Y-69621400D01*
X152252401Y-69621400D01*
X151962875Y-69678990D01*
X151690147Y-69791958D01*
X151444698Y-69955961D01*
X151235961Y-70164698D01*
X151130000Y-70323281D01*
X151024039Y-70164698D01*
X150815302Y-69955961D01*
X150569853Y-69791958D01*
X150297125Y-69678990D01*
X150007599Y-69621400D01*
X149712401Y-69621400D01*
X149422875Y-69678990D01*
X149150147Y-69791958D01*
X148904698Y-69955961D01*
X148695961Y-70164698D01*
X148590000Y-70323281D01*
X148484039Y-70164698D01*
X148275302Y-69955961D01*
X148029853Y-69791958D01*
X147757125Y-69678990D01*
X147467599Y-69621400D01*
X147172401Y-69621400D01*
X146882875Y-69678990D01*
X146610147Y-69791958D01*
X146364698Y-69955961D01*
X146155961Y-70164698D01*
X145991958Y-70410147D01*
X145878990Y-70682875D01*
X145821400Y-70972401D01*
X145821400Y-71267599D01*
X145878990Y-71557125D01*
X145991958Y-71829853D01*
X146155961Y-72075302D01*
X146364698Y-72284039D01*
X146523281Y-72390000D01*
X146364698Y-72495961D01*
X146155961Y-72704698D01*
X145991958Y-72950147D01*
X145878990Y-73222875D01*
X145821400Y-73512401D01*
X145821400Y-73807599D01*
X145878990Y-74097125D01*
X145991958Y-74369853D01*
X146155961Y-74615302D01*
X146185000Y-74644341D01*
X146185001Y-82569867D01*
X130689869Y-98065000D01*
X130663740Y-98065000D01*
X130376842Y-98122068D01*
X130106589Y-98234010D01*
X129863368Y-98396525D01*
X129656525Y-98603368D01*
X129540000Y-98777760D01*
X129423475Y-98603368D01*
X129216632Y-98396525D01*
X128973411Y-98234010D01*
X128703158Y-98122068D01*
X128416260Y-98065000D01*
X128123740Y-98065000D01*
X127836842Y-98122068D01*
X127566589Y-98234010D01*
X127323368Y-98396525D01*
X127116525Y-98603368D01*
X127000000Y-98777760D01*
X126883475Y-98603368D01*
X126676632Y-98396525D01*
X126433411Y-98234010D01*
X126163158Y-98122068D01*
X125876260Y-98065000D01*
X125583740Y-98065000D01*
X125296842Y-98122068D01*
X125026589Y-98234010D01*
X124783368Y-98396525D01*
X124576525Y-98603368D01*
X124414010Y-98846589D01*
X124302068Y-99116842D01*
X124245000Y-99403740D01*
X124245000Y-99696260D01*
X124302068Y-99983158D01*
X124414010Y-100253411D01*
X124576525Y-100496632D01*
X124783368Y-100703475D01*
X125026589Y-100865990D01*
X125296842Y-100977932D01*
X125583740Y-101035000D01*
X125876260Y-101035000D01*
X126163158Y-100977932D01*
X126433411Y-100865990D01*
X126676632Y-100703475D01*
X126883475Y-100496632D01*
X127000000Y-100322240D01*
X127116525Y-100496632D01*
X127323368Y-100703475D01*
X127566589Y-100865990D01*
X127836842Y-100977932D01*
X128123740Y-101035000D01*
X128416260Y-101035000D01*
X128703158Y-100977932D01*
X128973411Y-100865990D01*
X129216632Y-100703475D01*
X129423475Y-100496632D01*
X129540000Y-100322240D01*
X129656525Y-100496632D01*
X129863368Y-100703475D01*
X130106589Y-100865990D01*
X130376842Y-100977932D01*
X130663740Y-101035000D01*
X130956260Y-101035000D01*
X131243158Y-100977932D01*
X131513411Y-100865990D01*
X131756632Y-100703475D01*
X131963475Y-100496632D01*
X132080000Y-100322240D01*
X132196525Y-100496632D01*
X132403368Y-100703475D01*
X132646589Y-100865990D01*
X132916842Y-100977932D01*
X133203740Y-101035000D01*
X133496260Y-101035000D01*
X133783158Y-100977932D01*
X134053411Y-100865990D01*
X134296632Y-100703475D01*
X134503475Y-100496632D01*
X134620000Y-100322240D01*
X134736525Y-100496632D01*
X134943368Y-100703475D01*
X135186589Y-100865990D01*
X135240536Y-100888335D01*
X133593872Y-102534999D01*
X119905752Y-102534999D01*
X119850000Y-102529508D01*
X119627501Y-102551422D01*
X119577706Y-102566528D01*
X119413554Y-102616323D01*
X119216378Y-102721715D01*
X119043552Y-102863550D01*
X119008012Y-102906856D01*
X111453534Y-110461335D01*
X111371032Y-110477746D01*
X111128351Y-110578268D01*
X110909943Y-110724203D01*
X110724203Y-110909943D01*
X110578268Y-111128351D01*
X110490000Y-111341448D01*
X110401732Y-111128351D01*
X110255797Y-110909943D01*
X110070057Y-110724203D01*
X109851649Y-110578268D01*
X109608968Y-110477746D01*
X109351338Y-110426500D01*
X109088662Y-110426500D01*
X108831032Y-110477746D01*
X108588351Y-110578268D01*
X108369943Y-110724203D01*
X108184203Y-110909943D01*
X108038268Y-111128351D01*
X107937746Y-111371032D01*
X107886500Y-111628662D01*
X106070000Y-111628662D01*
X106070000Y-72550881D01*
X107968724Y-72550881D01*
X108328912Y-73040548D01*
X108992882Y-73400849D01*
X109714385Y-73624694D01*
X110465695Y-73703480D01*
X111217938Y-73634178D01*
X111942208Y-73419452D01*
X112610670Y-73067555D01*
X112651088Y-73040548D01*
X113011276Y-72550881D01*
X110490000Y-70029605D01*
X107968724Y-72550881D01*
X106070000Y-72550881D01*
X106070000Y-69879392D01*
X106074792Y-69825695D01*
X106636520Y-69825695D01*
X106705822Y-70577938D01*
X106920548Y-71302208D01*
X107272445Y-71970670D01*
X107299452Y-72011088D01*
X107789119Y-72371276D01*
X110310395Y-69850000D01*
X110669605Y-69850000D01*
X113190881Y-72371276D01*
X113680548Y-72011088D01*
X114040849Y-71347118D01*
X114264694Y-70625615D01*
X114343480Y-69874305D01*
X114327767Y-69703740D01*
X126785000Y-69703740D01*
X126785000Y-69996260D01*
X126842068Y-70283158D01*
X126954010Y-70553411D01*
X127116525Y-70796632D01*
X127323368Y-71003475D01*
X127566589Y-71165990D01*
X127836842Y-71277932D01*
X128123740Y-71335000D01*
X128416260Y-71335000D01*
X128703158Y-71277932D01*
X128973411Y-71165990D01*
X129216632Y-71003475D01*
X129423475Y-70796632D01*
X129540000Y-70622240D01*
X129656525Y-70796632D01*
X129863368Y-71003475D01*
X130106589Y-71165990D01*
X130376842Y-71277932D01*
X130663740Y-71335000D01*
X130956260Y-71335000D01*
X131243158Y-71277932D01*
X131513411Y-71165990D01*
X131756632Y-71003475D01*
X131881710Y-70878397D01*
X132501208Y-70878397D01*
X132578843Y-71127472D01*
X132842883Y-71253371D01*
X133126411Y-71325339D01*
X133418531Y-71340611D01*
X133708019Y-71298599D01*
X133983747Y-71200919D01*
X134121157Y-71127472D01*
X134198792Y-70878397D01*
X133350000Y-70029605D01*
X132501208Y-70878397D01*
X131881710Y-70878397D01*
X131963475Y-70796632D01*
X132079311Y-70623271D01*
X132321603Y-70698792D01*
X133170395Y-69850000D01*
X133529605Y-69850000D01*
X134378397Y-70698792D01*
X134401928Y-70691458D01*
X134401928Y-70700000D01*
X134414188Y-70824482D01*
X134450498Y-70944180D01*
X134509463Y-71054494D01*
X134588815Y-71151185D01*
X134685506Y-71230537D01*
X134795820Y-71289502D01*
X134915518Y-71325812D01*
X135040000Y-71338072D01*
X136740000Y-71338072D01*
X136864482Y-71325812D01*
X136984180Y-71289502D01*
X137094494Y-71230537D01*
X137191185Y-71151185D01*
X137270537Y-71054494D01*
X137329502Y-70944180D01*
X137365812Y-70824482D01*
X137378072Y-70700000D01*
X137378072Y-69000000D01*
X137365812Y-68875518D01*
X137329502Y-68755820D01*
X137270537Y-68645506D01*
X137191185Y-68548815D01*
X137094494Y-68469463D01*
X136984180Y-68410498D01*
X136864482Y-68374188D01*
X136740000Y-68361928D01*
X135040000Y-68361928D01*
X134915518Y-68374188D01*
X134795820Y-68410498D01*
X134685506Y-68469463D01*
X134588815Y-68548815D01*
X134509463Y-68645506D01*
X134450498Y-68755820D01*
X134414188Y-68875518D01*
X134401928Y-69000000D01*
X134401928Y-69008542D01*
X134378397Y-69001208D01*
X133529605Y-69850000D01*
X133170395Y-69850000D01*
X132321603Y-69001208D01*
X132079311Y-69076729D01*
X131963475Y-68903368D01*
X131881710Y-68821603D01*
X132501208Y-68821603D01*
X133350000Y-69670395D01*
X134198792Y-68821603D01*
X134121157Y-68572528D01*
X133857117Y-68446629D01*
X133573589Y-68374661D01*
X133281469Y-68359389D01*
X132991981Y-68401401D01*
X132716253Y-68499081D01*
X132578843Y-68572528D01*
X132501208Y-68821603D01*
X131881710Y-68821603D01*
X131756632Y-68696525D01*
X131513411Y-68534010D01*
X131243158Y-68422068D01*
X130956260Y-68365000D01*
X130663740Y-68365000D01*
X130376842Y-68422068D01*
X130106589Y-68534010D01*
X129863368Y-68696525D01*
X129656525Y-68903368D01*
X129540000Y-69077760D01*
X129423475Y-68903368D01*
X129216632Y-68696525D01*
X128973411Y-68534010D01*
X128703158Y-68422068D01*
X128416260Y-68365000D01*
X128123740Y-68365000D01*
X127836842Y-68422068D01*
X127566589Y-68534010D01*
X127323368Y-68696525D01*
X127116525Y-68903368D01*
X126954010Y-69146589D01*
X126842068Y-69416842D01*
X126785000Y-69703740D01*
X114327767Y-69703740D01*
X114274178Y-69122062D01*
X114059452Y-68397792D01*
X113707555Y-67729330D01*
X113680548Y-67688912D01*
X113190881Y-67328724D01*
X110669605Y-69850000D01*
X110310395Y-69850000D01*
X107789119Y-67328724D01*
X107299452Y-67688912D01*
X106939151Y-68352882D01*
X106715306Y-69074385D01*
X106636520Y-69825695D01*
X106074792Y-69825695D01*
X106142437Y-69067751D01*
X106349672Y-68310226D01*
X106687777Y-67601375D01*
X107012755Y-67149119D01*
X107968724Y-67149119D01*
X110490000Y-69670395D01*
X113011276Y-67149119D01*
X162578724Y-67149119D01*
X165100000Y-69670395D01*
X167621276Y-67149119D01*
X167261088Y-66659452D01*
X166597118Y-66299151D01*
X165875615Y-66075306D01*
X165124305Y-65996520D01*
X164372062Y-66065822D01*
X163647792Y-66280548D01*
X162979330Y-66632445D01*
X162938912Y-66659452D01*
X162578724Y-67149119D01*
X113011276Y-67149119D01*
X112651088Y-66659452D01*
X111987118Y-66299151D01*
X111265615Y-66075306D01*
X110514305Y-65996520D01*
X109762062Y-66065822D01*
X109037792Y-66280548D01*
X108369330Y-66632445D01*
X108328912Y-66659452D01*
X107968724Y-67149119D01*
X107012755Y-67149119D01*
X107146067Y-66963596D01*
X107710055Y-66417054D01*
X108361913Y-65979023D01*
X109081038Y-65663349D01*
X109849768Y-65478794D01*
X110514207Y-65430000D01*
X165070608Y-65430000D01*
X165882249Y-65502437D01*
%TA.AperFunction,Conductor*%
D23*
G36*
X165882249Y-65502437D02*
G01*
X166639774Y-65709672D01*
X167348625Y-66047777D01*
X167986404Y-66506067D01*
X168532946Y-67070055D01*
X168970977Y-67721913D01*
X169286651Y-68441038D01*
X169471206Y-69209768D01*
X169520001Y-69874221D01*
X169520000Y-120620608D01*
X169447563Y-121432249D01*
X169240328Y-122189774D01*
X168902221Y-122898627D01*
X168443928Y-123536410D01*
X167879945Y-124082946D01*
X167228085Y-124520978D01*
X166508963Y-124836651D01*
X165740232Y-125021206D01*
X165075792Y-125070000D01*
X110519392Y-125070000D01*
X109707751Y-124997563D01*
X108950226Y-124790328D01*
X108241373Y-124452221D01*
X107603590Y-123993928D01*
X107057054Y-123429945D01*
X107003926Y-123350881D01*
X107968724Y-123350881D01*
X108328912Y-123840548D01*
X108992882Y-124200849D01*
X109714385Y-124424694D01*
X110465695Y-124503480D01*
X111217938Y-124434178D01*
X111942208Y-124219452D01*
X112610670Y-123867555D01*
X112651088Y-123840548D01*
X113011276Y-123350881D01*
X110490000Y-120829605D01*
X107968724Y-123350881D01*
X107003926Y-123350881D01*
X106619022Y-122778085D01*
X106303349Y-122058963D01*
X106118794Y-121290232D01*
X106070000Y-120625792D01*
X106070000Y-120625695D01*
X106636520Y-120625695D01*
X106705822Y-121377938D01*
X106920548Y-122102208D01*
X107272445Y-122770670D01*
X107299452Y-122811088D01*
X107789119Y-123171276D01*
X110310395Y-120650000D01*
X110669605Y-120650000D01*
X113190881Y-123171276D01*
X113532484Y-122920000D01*
X126679428Y-122920000D01*
X126691688Y-123044482D01*
X126727998Y-123164180D01*
X126786963Y-123274494D01*
X126866315Y-123371185D01*
X126963006Y-123450537D01*
X127073320Y-123509502D01*
X127193018Y-123545812D01*
X127317500Y-123558072D01*
X127984250Y-123555000D01*
X128143000Y-123396250D01*
X128143000Y-122047000D01*
X126841250Y-122047000D01*
X126682500Y-122205750D01*
X126679428Y-122920000D01*
X113532484Y-122920000D01*
X113680548Y-122811088D01*
X114040849Y-122147118D01*
X114264694Y-121425615D01*
X114317715Y-120920000D01*
X126679428Y-120920000D01*
X126682500Y-121634250D01*
X126841250Y-121793000D01*
X128143000Y-121793000D01*
X128143000Y-120443750D01*
X128397000Y-120443750D01*
X128397000Y-121793000D01*
X128417000Y-121793000D01*
X128417000Y-122047000D01*
X128397000Y-122047000D01*
X128397000Y-123396250D01*
X128555750Y-123555000D01*
X129222500Y-123558072D01*
X129346982Y-123545812D01*
X129466680Y-123509502D01*
X129576994Y-123450537D01*
X129673685Y-123371185D01*
X129753037Y-123274494D01*
X129797905Y-123190553D01*
X129923766Y-123293845D01*
X130199552Y-123441255D01*
X130498797Y-123532030D01*
X130810000Y-123562681D01*
X131121204Y-123532030D01*
X131420449Y-123441255D01*
X131696235Y-123293845D01*
X131937963Y-123095463D01*
X132080000Y-122922391D01*
X132222037Y-123095463D01*
X132463766Y-123293845D01*
X132739552Y-123441255D01*
X133038797Y-123532030D01*
X133350000Y-123562681D01*
X133661204Y-123532030D01*
X133960449Y-123441255D01*
X134236235Y-123293845D01*
X134477963Y-123095463D01*
X134676345Y-122853734D01*
X134823755Y-122577948D01*
X134914530Y-122278703D01*
X134937500Y-122045485D01*
X134937500Y-121794514D01*
X134914530Y-121561296D01*
X134853468Y-121360000D01*
X141901928Y-121360000D01*
X141901928Y-124160000D01*
X141914188Y-124284482D01*
X141950498Y-124404180D01*
X142009463Y-124514494D01*
X142088815Y-124611185D01*
X142185506Y-124690537D01*
X142295820Y-124749502D01*
X142415518Y-124785812D01*
X142540000Y-124798072D01*
X145340000Y-124798072D01*
X145464482Y-124785812D01*
X145584180Y-124749502D01*
X145694494Y-124690537D01*
X145791185Y-124611185D01*
X145870537Y-124514494D01*
X145929502Y-124404180D01*
X145965812Y-124284482D01*
X145978072Y-124160000D01*
X156101928Y-124160000D01*
X156114188Y-124284482D01*
X156150498Y-124404180D01*
X156209463Y-124514494D01*
X156288815Y-124611185D01*
X156385506Y-124690537D01*
X156495820Y-124749502D01*
X156615518Y-124785812D01*
X156740000Y-124798072D01*
X157854250Y-124795000D01*
X158013000Y-124636250D01*
X158013000Y-122887000D01*
X158267000Y-122887000D01*
X158267000Y-124636250D01*
X158425750Y-124795000D01*
X159540000Y-124798072D01*
X159664482Y-124785812D01*
X159784180Y-124749502D01*
X159894494Y-124690537D01*
X159991185Y-124611185D01*
X160070537Y-124514494D01*
X160129502Y-124404180D01*
X160165812Y-124284482D01*
X160178072Y-124160000D01*
X160175842Y-123350881D01*
X162578724Y-123350881D01*
X162938912Y-123840548D01*
X163602882Y-124200849D01*
X164324385Y-124424694D01*
X165075695Y-124503480D01*
X165827938Y-124434178D01*
X166552208Y-124219452D01*
X167220670Y-123867555D01*
X167261088Y-123840548D01*
X167621276Y-123350881D01*
X165100000Y-120829605D01*
X162578724Y-123350881D01*
X160175842Y-123350881D01*
X160175000Y-123045750D01*
X160016250Y-122887000D01*
X158267000Y-122887000D01*
X158013000Y-122887000D01*
X156263750Y-122887000D01*
X156105000Y-123045750D01*
X156101928Y-124160000D01*
X145978072Y-124160000D01*
X145978072Y-121360000D01*
X156101928Y-121360000D01*
X156105000Y-122474250D01*
X156263750Y-122633000D01*
X158013000Y-122633000D01*
X158013000Y-120883750D01*
X158267000Y-120883750D01*
X158267000Y-122633000D01*
X160016250Y-122633000D01*
X160175000Y-122474250D01*
X160178072Y-121360000D01*
X160165812Y-121235518D01*
X160129502Y-121115820D01*
X160070537Y-121005506D01*
X159991185Y-120908815D01*
X159894494Y-120829463D01*
X159784180Y-120770498D01*
X159664482Y-120734188D01*
X159540000Y-120721928D01*
X158425750Y-120725000D01*
X158267000Y-120883750D01*
X158013000Y-120883750D01*
X157854250Y-120725000D01*
X156740000Y-120721928D01*
X156615518Y-120734188D01*
X156495820Y-120770498D01*
X156385506Y-120829463D01*
X156288815Y-120908815D01*
X156209463Y-121005506D01*
X156150498Y-121115820D01*
X156114188Y-121235518D01*
X156101928Y-121360000D01*
X145978072Y-121360000D01*
X145965812Y-121235518D01*
X145929502Y-121115820D01*
X145870537Y-121005506D01*
X145791185Y-120908815D01*
X145694494Y-120829463D01*
X145584180Y-120770498D01*
X145464482Y-120734188D01*
X145340000Y-120721928D01*
X142540000Y-120721928D01*
X142415518Y-120734188D01*
X142295820Y-120770498D01*
X142185506Y-120829463D01*
X142088815Y-120908815D01*
X142009463Y-121005506D01*
X141950498Y-121115820D01*
X141914188Y-121235518D01*
X141901928Y-121360000D01*
X134853468Y-121360000D01*
X134823755Y-121262051D01*
X134676345Y-120986265D01*
X134477963Y-120744537D01*
X134333154Y-120625695D01*
X161246520Y-120625695D01*
X161315822Y-121377938D01*
X161530548Y-122102208D01*
X161882445Y-122770670D01*
X161909452Y-122811088D01*
X162399119Y-123171276D01*
X164920395Y-120650000D01*
X165279605Y-120650000D01*
X167800881Y-123171276D01*
X168290548Y-122811088D01*
X168650849Y-122147118D01*
X168874694Y-121425615D01*
X168953480Y-120674305D01*
X168884178Y-119922062D01*
X168669452Y-119197792D01*
X168317555Y-118529330D01*
X168290548Y-118488912D01*
X167800881Y-118128724D01*
X165279605Y-120650000D01*
X164920395Y-120650000D01*
X162399119Y-118128724D01*
X161909452Y-118488912D01*
X161549151Y-119152882D01*
X161325306Y-119874385D01*
X161246520Y-120625695D01*
X134333154Y-120625695D01*
X134236234Y-120546155D01*
X133960448Y-120398745D01*
X133661203Y-120307970D01*
X133350000Y-120277319D01*
X133038796Y-120307970D01*
X132739551Y-120398745D01*
X132463765Y-120546155D01*
X132222037Y-120744537D01*
X132080000Y-120917609D01*
X131937963Y-120744537D01*
X131696234Y-120546155D01*
X131420448Y-120398745D01*
X131121203Y-120307970D01*
X130810000Y-120277319D01*
X130498796Y-120307970D01*
X130199551Y-120398745D01*
X129923765Y-120546155D01*
X129797905Y-120649446D01*
X129753037Y-120565506D01*
X129673685Y-120468815D01*
X129576994Y-120389463D01*
X129466680Y-120330498D01*
X129346982Y-120294188D01*
X129222500Y-120281928D01*
X128555750Y-120285000D01*
X128397000Y-120443750D01*
X128143000Y-120443750D01*
X127984250Y-120285000D01*
X127317500Y-120281928D01*
X127193018Y-120294188D01*
X127073320Y-120330498D01*
X126963006Y-120389463D01*
X126866315Y-120468815D01*
X126786963Y-120565506D01*
X126727998Y-120675820D01*
X126691688Y-120795518D01*
X126679428Y-120920000D01*
X114317715Y-120920000D01*
X114343480Y-120674305D01*
X114274178Y-119922062D01*
X114059452Y-119197792D01*
X113707555Y-118529330D01*
X113680548Y-118488912D01*
X113190881Y-118128724D01*
X110669605Y-120650000D01*
X110310395Y-120650000D01*
X107789119Y-118128724D01*
X107299452Y-118488912D01*
X106939151Y-119152882D01*
X106715306Y-119874385D01*
X106636520Y-120625695D01*
X106070000Y-120625695D01*
X106070000Y-117949119D01*
X107968724Y-117949119D01*
X110490000Y-120470395D01*
X113011276Y-117949119D01*
X162578724Y-117949119D01*
X165100000Y-120470395D01*
X167621276Y-117949119D01*
X167261088Y-117459452D01*
X166597118Y-117099151D01*
X165875615Y-116875306D01*
X165124305Y-116796520D01*
X164372062Y-116865822D01*
X163647792Y-117080548D01*
X162979330Y-117432445D01*
X162938912Y-117459452D01*
X162578724Y-117949119D01*
X113011276Y-117949119D01*
X112651088Y-117459452D01*
X111987118Y-117099151D01*
X111265615Y-116875306D01*
X110514305Y-116796520D01*
X109762062Y-116865822D01*
X109037792Y-117080548D01*
X108369330Y-117432445D01*
X108328912Y-117459452D01*
X107968724Y-117949119D01*
X106070000Y-117949119D01*
X106070000Y-111628662D01*
X107886500Y-111628662D01*
X107886500Y-111891338D01*
X107937746Y-112148968D01*
X108038268Y-112391649D01*
X108184203Y-112610057D01*
X108369943Y-112795797D01*
X108588351Y-112941732D01*
X108831032Y-113042254D01*
X109088662Y-113093500D01*
X109351338Y-113093500D01*
X109608968Y-113042254D01*
X109851649Y-112941732D01*
X110070057Y-112795797D01*
X110255797Y-112610057D01*
X110401732Y-112391649D01*
X110490000Y-112178552D01*
X110578268Y-112391649D01*
X110724203Y-112610057D01*
X110909943Y-112795797D01*
X111128351Y-112941732D01*
X111371032Y-113042254D01*
X111628662Y-113093500D01*
X111891338Y-113093500D01*
X112148968Y-113042254D01*
X112391649Y-112941732D01*
X112610057Y-112795797D01*
X112795797Y-112610057D01*
X112941732Y-112391649D01*
X113030000Y-112178552D01*
X113118268Y-112391649D01*
X113264203Y-112610057D01*
X113449943Y-112795797D01*
X113668351Y-112941732D01*
X113911032Y-113042254D01*
X114168662Y-113093500D01*
X114431338Y-113093500D01*
X114688968Y-113042254D01*
X114931649Y-112941732D01*
X115150057Y-112795797D01*
X115265657Y-112680197D01*
X116099408Y-112680197D01*
X116158686Y-112913812D01*
X116396875Y-113024559D01*
X116652093Y-113086711D01*
X116914533Y-113097876D01*
X117174107Y-113057629D01*
X117420842Y-112967514D01*
X117521314Y-112913812D01*
X117580592Y-112680197D01*
X116840000Y-111939605D01*
X116099408Y-112680197D01*
X115265657Y-112680197D01*
X115335797Y-112610057D01*
X115481732Y-112391649D01*
X115571707Y-112174430D01*
X115632486Y-112340842D01*
X115686188Y-112441314D01*
X115919803Y-112500592D01*
X116660395Y-111760000D01*
X117019605Y-111760000D01*
X117760197Y-112500592D01*
X117993812Y-112441314D01*
X118104559Y-112203125D01*
X118166711Y-111947907D01*
X118177876Y-111685467D01*
X118137629Y-111425893D01*
X118047514Y-111179158D01*
X117993812Y-111078686D01*
X117760197Y-111019408D01*
X117019605Y-111760000D01*
X116660395Y-111760000D01*
X115919803Y-111019408D01*
X115686188Y-111078686D01*
X115575441Y-111316875D01*
X115569658Y-111340622D01*
X115481732Y-111128351D01*
X115335797Y-110909943D01*
X115265657Y-110839803D01*
X116099408Y-110839803D01*
X116840000Y-111580395D01*
X117580592Y-110839803D01*
X117521314Y-110606188D01*
X117283125Y-110495441D01*
X117027907Y-110433289D01*
X116765467Y-110422124D01*
X116505893Y-110462371D01*
X116259158Y-110552486D01*
X116158686Y-110606188D01*
X116099408Y-110839803D01*
X115265657Y-110839803D01*
X115150057Y-110724203D01*
X114931649Y-110578268D01*
X114688968Y-110477746D01*
X114654284Y-110470847D01*
X120320133Y-104804999D01*
X128820240Y-104804999D01*
X128696440Y-104990279D01*
X128516654Y-105424321D01*
X128425000Y-105885098D01*
X128425000Y-106354902D01*
X128516654Y-106815679D01*
X128696440Y-107249721D01*
X128957450Y-107640349D01*
X129289651Y-107972550D01*
X129680279Y-108233560D01*
X130114321Y-108413346D01*
X130575098Y-108505000D01*
X131044902Y-108505000D01*
X131505679Y-108413346D01*
X131939721Y-108233560D01*
X132330349Y-107972550D01*
X132662550Y-107640349D01*
X132923560Y-107249721D01*
X133103346Y-106815679D01*
X133195000Y-106354902D01*
X133195000Y-105885098D01*
X133171488Y-105766891D01*
X162388519Y-105766891D01*
X162485843Y-106041252D01*
X162634822Y-106291355D01*
X162829731Y-106507588D01*
X163063080Y-106681641D01*
X163325901Y-106806825D01*
X163473110Y-106851476D01*
X163703000Y-106730155D01*
X163703000Y-105537000D01*
X162509186Y-105537000D01*
X162388519Y-105766891D01*
X133171488Y-105766891D01*
X133103346Y-105424321D01*
X132949586Y-105053109D01*
X162388519Y-105053109D01*
X162509186Y-105283000D01*
X163703000Y-105283000D01*
X163703000Y-104089845D01*
X163957000Y-104089845D01*
X163957000Y-105283000D01*
X163977000Y-105283000D01*
X163977000Y-105537000D01*
X163957000Y-105537000D01*
X163957000Y-106730155D01*
X164186890Y-106851476D01*
X164334099Y-106806825D01*
X164596920Y-106681641D01*
X164830269Y-106507588D01*
X164906034Y-106423534D01*
X164930498Y-106504180D01*
X164989463Y-106614494D01*
X165068815Y-106711185D01*
X165165506Y-106790537D01*
X165275820Y-106849502D01*
X165395518Y-106885812D01*
X165520000Y-106898072D01*
X167220000Y-106898072D01*
X167344482Y-106885812D01*
X167464180Y-106849502D01*
X167574494Y-106790537D01*
X167671185Y-106711185D01*
X167750537Y-106614494D01*
X167809502Y-106504180D01*
X167845812Y-106384482D01*
X167858072Y-106260000D01*
X167858072Y-104560000D01*
X167845812Y-104435518D01*
X167809502Y-104315820D01*
X167750537Y-104205506D01*
X167671185Y-104108815D01*
X167574494Y-104029463D01*
X167464180Y-103970498D01*
X167344482Y-103934188D01*
X167220000Y-103921928D01*
X165520000Y-103921928D01*
X165395518Y-103934188D01*
X165275820Y-103970498D01*
X165165506Y-104029463D01*
X165068815Y-104108815D01*
X164989463Y-104205506D01*
X164930498Y-104315820D01*
X164906034Y-104396466D01*
X164830269Y-104312412D01*
X164596920Y-104138359D01*
X164334099Y-104013175D01*
X164186890Y-103968524D01*
X163957000Y-104089845D01*
X163703000Y-104089845D01*
X163473110Y-103968524D01*
X163325901Y-104013175D01*
X163063080Y-104138359D01*
X162829731Y-104312412D01*
X162634822Y-104528645D01*
X162485843Y-104778748D01*
X162388519Y-105053109D01*
X132949586Y-105053109D01*
X132923560Y-104990279D01*
X132799760Y-104804999D01*
X134008252Y-104804999D01*
X134064003Y-104810490D01*
X134119754Y-104804999D01*
X134119755Y-104804999D01*
X134286502Y-104788576D01*
X134500450Y-104723675D01*
X134697626Y-104618283D01*
X134870452Y-104476448D01*
X134905999Y-104433134D01*
X140879133Y-98460000D01*
X141901928Y-98460000D01*
X141901928Y-101260000D01*
X141914188Y-101384482D01*
X141950498Y-101504180D01*
X142009463Y-101614494D01*
X142088815Y-101711185D01*
X142185506Y-101790537D01*
X142295820Y-101849502D01*
X142415518Y-101885812D01*
X142540000Y-101898072D01*
X145340000Y-101898072D01*
X145464482Y-101885812D01*
X145584180Y-101849502D01*
X145690000Y-101792939D01*
X145795820Y-101849502D01*
X145915518Y-101885812D01*
X146040000Y-101898072D01*
X148840000Y-101898072D01*
X148964482Y-101885812D01*
X149084180Y-101849502D01*
X149194494Y-101790537D01*
X149291185Y-101711185D01*
X149370537Y-101614494D01*
X149429502Y-101504180D01*
X149465812Y-101384482D01*
X149478072Y-101260000D01*
X153001928Y-101260000D01*
X153014188Y-101384482D01*
X153050498Y-101504180D01*
X153109463Y-101614494D01*
X153188815Y-101711185D01*
X153285506Y-101790537D01*
X153395820Y-101849502D01*
X153515518Y-101885812D01*
X153640000Y-101898072D01*
X154754250Y-101895000D01*
X154913000Y-101736250D01*
X154913000Y-99987000D01*
X155167000Y-99987000D01*
X155167000Y-101736250D01*
X155325750Y-101895000D01*
X156440000Y-101898072D01*
X156564482Y-101885812D01*
X156684180Y-101849502D01*
X156740000Y-101819665D01*
X156795820Y-101849502D01*
X156915518Y-101885812D01*
X157040000Y-101898072D01*
X158154250Y-101895000D01*
X158313000Y-101736250D01*
X158313000Y-99987000D01*
X158567000Y-99987000D01*
X158567000Y-101736250D01*
X158725750Y-101895000D01*
X159840000Y-101898072D01*
X159964482Y-101885812D01*
X160084180Y-101849502D01*
X160194494Y-101790537D01*
X160291185Y-101711185D01*
X160370537Y-101614494D01*
X160429502Y-101504180D01*
X160465812Y-101384482D01*
X160478072Y-101260000D01*
X160475000Y-100145750D01*
X160316250Y-99987000D01*
X158567000Y-99987000D01*
X158313000Y-99987000D01*
X155167000Y-99987000D01*
X154913000Y-99987000D01*
X153163750Y-99987000D01*
X153005000Y-100145750D01*
X153001928Y-101260000D01*
X149478072Y-101260000D01*
X149478072Y-98460000D01*
X153001928Y-98460000D01*
X153005000Y-99574250D01*
X153163750Y-99733000D01*
X154913000Y-99733000D01*
X154913000Y-97983750D01*
X155167000Y-97983750D01*
X155167000Y-99733000D01*
X158313000Y-99733000D01*
X158313000Y-97983750D01*
X158567000Y-97983750D01*
X158567000Y-99733000D01*
X160316250Y-99733000D01*
X160475000Y-99574250D01*
X160475433Y-99416891D01*
X162388519Y-99416891D01*
X162485843Y-99691252D01*
X162634822Y-99941355D01*
X162829731Y-100157588D01*
X163063080Y-100331641D01*
X163325901Y-100456825D01*
X163473110Y-100501476D01*
X163703000Y-100380155D01*
X163703000Y-99187000D01*
X162509186Y-99187000D01*
X162388519Y-99416891D01*
X160475433Y-99416891D01*
X160477401Y-98703109D01*
X162388519Y-98703109D01*
X162509186Y-98933000D01*
X163703000Y-98933000D01*
X163703000Y-97739845D01*
X163957000Y-97739845D01*
X163957000Y-98933000D01*
X163977000Y-98933000D01*
X163977000Y-99187000D01*
X163957000Y-99187000D01*
X163957000Y-100380155D01*
X164186890Y-100501476D01*
X164334099Y-100456825D01*
X164596920Y-100331641D01*
X164830269Y-100157588D01*
X164906034Y-100073534D01*
X164930498Y-100154180D01*
X164989463Y-100264494D01*
X165068815Y-100361185D01*
X165165506Y-100440537D01*
X165275820Y-100499502D01*
X165395518Y-100535812D01*
X165520000Y-100548072D01*
X167220000Y-100548072D01*
X167344482Y-100535812D01*
X167464180Y-100499502D01*
X167574494Y-100440537D01*
X167671185Y-100361185D01*
X167750537Y-100264494D01*
X167809502Y-100154180D01*
X167845812Y-100034482D01*
X167858072Y-99910000D01*
X167858072Y-98210000D01*
X167845812Y-98085518D01*
X167809502Y-97965820D01*
X167750537Y-97855506D01*
X167671185Y-97758815D01*
X167574494Y-97679463D01*
X167464180Y-97620498D01*
X167344482Y-97584188D01*
X167220000Y-97571928D01*
X165520000Y-97571928D01*
X165395518Y-97584188D01*
X165275820Y-97620498D01*
X165165506Y-97679463D01*
X165068815Y-97758815D01*
X164989463Y-97855506D01*
X164930498Y-97965820D01*
X164906034Y-98046466D01*
X164830269Y-97962412D01*
X164596920Y-97788359D01*
X164334099Y-97663175D01*
X164186890Y-97618524D01*
X163957000Y-97739845D01*
X163703000Y-97739845D01*
X163473110Y-97618524D01*
X163325901Y-97663175D01*
X163063080Y-97788359D01*
X162829731Y-97962412D01*
X162634822Y-98178645D01*
X162485843Y-98428748D01*
X162388519Y-98703109D01*
X160477401Y-98703109D01*
X160478072Y-98460000D01*
X160465812Y-98335518D01*
X160429502Y-98215820D01*
X160370537Y-98105506D01*
X160291185Y-98008815D01*
X160194494Y-97929463D01*
X160084180Y-97870498D01*
X159964482Y-97834188D01*
X159840000Y-97821928D01*
X158725750Y-97825000D01*
X158567000Y-97983750D01*
X158313000Y-97983750D01*
X158154250Y-97825000D01*
X157040000Y-97821928D01*
X156915518Y-97834188D01*
X156795820Y-97870498D01*
X156740000Y-97900335D01*
X156684180Y-97870498D01*
X156564482Y-97834188D01*
X156440000Y-97821928D01*
X155325750Y-97825000D01*
X155167000Y-97983750D01*
X154913000Y-97983750D01*
X154754250Y-97825000D01*
X153640000Y-97821928D01*
X153515518Y-97834188D01*
X153395820Y-97870498D01*
X153285506Y-97929463D01*
X153188815Y-98008815D01*
X153109463Y-98105506D01*
X153050498Y-98215820D01*
X153014188Y-98335518D01*
X153001928Y-98460000D01*
X149478072Y-98460000D01*
X149465812Y-98335518D01*
X149429502Y-98215820D01*
X149370537Y-98105506D01*
X149291185Y-98008815D01*
X149194494Y-97929463D01*
X149084180Y-97870498D01*
X148964482Y-97834188D01*
X148840000Y-97821928D01*
X146040000Y-97821928D01*
X145915518Y-97834188D01*
X145795820Y-97870498D01*
X145690000Y-97927061D01*
X145584180Y-97870498D01*
X145464482Y-97834188D01*
X145340000Y-97821928D01*
X142540000Y-97821928D01*
X142415518Y-97834188D01*
X142295820Y-97870498D01*
X142185506Y-97929463D01*
X142088815Y-98008815D01*
X142009463Y-98105506D01*
X141950498Y-98215820D01*
X141914188Y-98335518D01*
X141901928Y-98460000D01*
X140879133Y-98460000D01*
X148749133Y-90590000D01*
X162341928Y-90590000D01*
X162341928Y-92290000D01*
X162354188Y-92414482D01*
X162390498Y-92534180D01*
X162449463Y-92644494D01*
X162528815Y-92741185D01*
X162625506Y-92820537D01*
X162735820Y-92879502D01*
X162855518Y-92915812D01*
X162980000Y-92928072D01*
X164680000Y-92928072D01*
X164804482Y-92915812D01*
X164924180Y-92879502D01*
X165034494Y-92820537D01*
X165131185Y-92741185D01*
X165210537Y-92644494D01*
X165269502Y-92534180D01*
X165305812Y-92414482D01*
X165318072Y-92290000D01*
X165318072Y-90590000D01*
X165305812Y-90465518D01*
X165269502Y-90345820D01*
X165210537Y-90235506D01*
X165131185Y-90138815D01*
X165034494Y-90059463D01*
X164924180Y-90000498D01*
X164843534Y-89976034D01*
X164927588Y-89900269D01*
X165101641Y-89666920D01*
X165226825Y-89404099D01*
X165271476Y-89256890D01*
X165150155Y-89027000D01*
X163957000Y-89027000D01*
X163957000Y-89047000D01*
X163703000Y-89047000D01*
X163703000Y-89027000D01*
X162509845Y-89027000D01*
X162388524Y-89256890D01*
X162433175Y-89404099D01*
X162558359Y-89666920D01*
X162732412Y-89900269D01*
X162816466Y-89976034D01*
X162735820Y-90000498D01*
X162625506Y-90059463D01*
X162528815Y-90138815D01*
X162449463Y-90235506D01*
X162390498Y-90345820D01*
X162354188Y-90465518D01*
X162341928Y-90590000D01*
X148749133Y-90590000D01*
X150623141Y-88715993D01*
X150666449Y-88680451D01*
X150808284Y-88507625D01*
X150913676Y-88310449D01*
X150978577Y-88096501D01*
X150995000Y-87929754D01*
X150995000Y-87929747D01*
X151000490Y-87874003D01*
X150995000Y-87818259D01*
X150995000Y-86213740D01*
X162345000Y-86213740D01*
X162345000Y-86506260D01*
X162402068Y-86793158D01*
X162514010Y-87063411D01*
X162676525Y-87306632D01*
X162883368Y-87513475D01*
X163065534Y-87635195D01*
X162948645Y-87704822D01*
X162732412Y-87899731D01*
X162558359Y-88133080D01*
X162433175Y-88395901D01*
X162388524Y-88543110D01*
X162509845Y-88773000D01*
X163703000Y-88773000D01*
X163703000Y-88753000D01*
X163957000Y-88753000D01*
X163957000Y-88773000D01*
X165150155Y-88773000D01*
X165271476Y-88543110D01*
X165226825Y-88395901D01*
X165101641Y-88133080D01*
X164927588Y-87899731D01*
X164711355Y-87704822D01*
X164594466Y-87635195D01*
X164776632Y-87513475D01*
X164983475Y-87306632D01*
X165145990Y-87063411D01*
X165257932Y-86793158D01*
X165315000Y-86506260D01*
X165315000Y-86213740D01*
X165257932Y-85926842D01*
X165145990Y-85656589D01*
X164983475Y-85413368D01*
X164776632Y-85206525D01*
X164594466Y-85084805D01*
X164711355Y-85015178D01*
X164927588Y-84820269D01*
X165101641Y-84586920D01*
X165226825Y-84324099D01*
X165271476Y-84176890D01*
X165150155Y-83947000D01*
X163957000Y-83947000D01*
X163957000Y-83967000D01*
X163703000Y-83967000D01*
X163703000Y-83947000D01*
X162509845Y-83947000D01*
X162388524Y-84176890D01*
X162433175Y-84324099D01*
X162558359Y-84586920D01*
X162732412Y-84820269D01*
X162948645Y-85015178D01*
X163065534Y-85084805D01*
X162883368Y-85206525D01*
X162676525Y-85413368D01*
X162514010Y-85656589D01*
X162402068Y-85926842D01*
X162345000Y-86213740D01*
X150995000Y-86213740D01*
X150995000Y-83463110D01*
X162388524Y-83463110D01*
X162509845Y-83693000D01*
X163703000Y-83693000D01*
X163703000Y-82499186D01*
X163957000Y-82499186D01*
X163957000Y-83693000D01*
X165150155Y-83693000D01*
X165271476Y-83463110D01*
X165226825Y-83315901D01*
X165101641Y-83053080D01*
X164927588Y-82819731D01*
X164711355Y-82624822D01*
X164461252Y-82475843D01*
X164186891Y-82378519D01*
X163957000Y-82499186D01*
X163703000Y-82499186D01*
X163473109Y-82378519D01*
X163198748Y-82475843D01*
X162948645Y-82624822D01*
X162732412Y-82819731D01*
X162558359Y-83053080D01*
X162433175Y-83315901D01*
X162388524Y-83463110D01*
X150995000Y-83463110D01*
X150995000Y-74644341D01*
X151024039Y-74615302D01*
X151130000Y-74456719D01*
X151235961Y-74615302D01*
X151444698Y-74824039D01*
X151690147Y-74988042D01*
X151962875Y-75101010D01*
X152252401Y-75158600D01*
X152547599Y-75158600D01*
X152837125Y-75101010D01*
X153109853Y-74988042D01*
X153355302Y-74824039D01*
X153564039Y-74615302D01*
X153674559Y-74449897D01*
X153733183Y-74548488D01*
X153929707Y-74766854D01*
X154165056Y-74942684D01*
X154430186Y-75069222D01*
X154580974Y-75114958D01*
X154813000Y-74993817D01*
X154813000Y-73787000D01*
X155067000Y-73787000D01*
X155067000Y-74993817D01*
X155299026Y-75114958D01*
X155449814Y-75069222D01*
X155714944Y-74942684D01*
X155950293Y-74766854D01*
X156146817Y-74548488D01*
X156296964Y-74295978D01*
X156394963Y-74019027D01*
X156274464Y-73787000D01*
X155067000Y-73787000D01*
X154813000Y-73787000D01*
X154793000Y-73787000D01*
X154793000Y-73533000D01*
X154813000Y-73533000D01*
X154813000Y-73513000D01*
X155067000Y-73513000D01*
X155067000Y-73533000D01*
X156274464Y-73533000D01*
X156394963Y-73300973D01*
X156296964Y-73024022D01*
X156146817Y-72771512D01*
X155985308Y-72592053D01*
X156047780Y-72573102D01*
X156089351Y-72550881D01*
X162578724Y-72550881D01*
X162938912Y-73040548D01*
X163602882Y-73400849D01*
X164324385Y-73624694D01*
X165075695Y-73703480D01*
X165827938Y-73634178D01*
X166552208Y-73419452D01*
X167220670Y-73067555D01*
X167261088Y-73040548D01*
X167621276Y-72550881D01*
X165100000Y-70029605D01*
X162578724Y-72550881D01*
X156089351Y-72550881D01*
X156158094Y-72514137D01*
X156254785Y-72434785D01*
X156334137Y-72338094D01*
X156393102Y-72227780D01*
X156429412Y-72108082D01*
X156441672Y-71983600D01*
X156441672Y-70256400D01*
X156429412Y-70131918D01*
X156393102Y-70012220D01*
X156334137Y-69901906D01*
X156271593Y-69825695D01*
X161246520Y-69825695D01*
X161315822Y-70577938D01*
X161530548Y-71302208D01*
X161882445Y-71970670D01*
X161909452Y-72011088D01*
X162399119Y-72371276D01*
X164920395Y-69850000D01*
X165279605Y-69850000D01*
X167800881Y-72371276D01*
X168290548Y-72011088D01*
X168650849Y-71347118D01*
X168874694Y-70625615D01*
X168953480Y-69874305D01*
X168884178Y-69122062D01*
X168669452Y-68397792D01*
X168317555Y-67729330D01*
X168290548Y-67688912D01*
X167800881Y-67328724D01*
X165279605Y-69850000D01*
X164920395Y-69850000D01*
X162399119Y-67328724D01*
X161909452Y-67688912D01*
X161549151Y-68352882D01*
X161325306Y-69074385D01*
X161246520Y-69825695D01*
X156271593Y-69825695D01*
X156254785Y-69805215D01*
X156158094Y-69725863D01*
X156047780Y-69666898D01*
X155928082Y-69630588D01*
X155803600Y-69618328D01*
X154076400Y-69618328D01*
X153951918Y-69630588D01*
X153832220Y-69666898D01*
X153721906Y-69725863D01*
X153625215Y-69805215D01*
X153545863Y-69901906D01*
X153486898Y-70012220D01*
X153469364Y-70070023D01*
X153355302Y-69955961D01*
X153109853Y-69791958D01*
X152837125Y-69678990D01*
X152547599Y-69621400D01*
X152252401Y-69621400D01*
X151962875Y-69678990D01*
X151690147Y-69791958D01*
X151444698Y-69955961D01*
X151235961Y-70164698D01*
X151130000Y-70323281D01*
X151024039Y-70164698D01*
X150815302Y-69955961D01*
X150569853Y-69791958D01*
X150297125Y-69678990D01*
X150007599Y-69621400D01*
X149712401Y-69621400D01*
X149422875Y-69678990D01*
X149150147Y-69791958D01*
X148904698Y-69955961D01*
X148695961Y-70164698D01*
X148590000Y-70323281D01*
X148484039Y-70164698D01*
X148275302Y-69955961D01*
X148029853Y-69791958D01*
X147757125Y-69678990D01*
X147467599Y-69621400D01*
X147172401Y-69621400D01*
X146882875Y-69678990D01*
X146610147Y-69791958D01*
X146364698Y-69955961D01*
X146155961Y-70164698D01*
X145991958Y-70410147D01*
X145878990Y-70682875D01*
X145821400Y-70972401D01*
X145821400Y-71267599D01*
X145878990Y-71557125D01*
X145991958Y-71829853D01*
X146155961Y-72075302D01*
X146364698Y-72284039D01*
X146523281Y-72390000D01*
X146364698Y-72495961D01*
X146155961Y-72704698D01*
X145991958Y-72950147D01*
X145878990Y-73222875D01*
X145821400Y-73512401D01*
X145821400Y-73807599D01*
X145878990Y-74097125D01*
X145991958Y-74369853D01*
X146155961Y-74615302D01*
X146185000Y-74644341D01*
X146185001Y-82569867D01*
X130689869Y-98065000D01*
X130663740Y-98065000D01*
X130376842Y-98122068D01*
X130106589Y-98234010D01*
X129863368Y-98396525D01*
X129656525Y-98603368D01*
X129540000Y-98777760D01*
X129423475Y-98603368D01*
X129216632Y-98396525D01*
X128973411Y-98234010D01*
X128703158Y-98122068D01*
X128416260Y-98065000D01*
X128123740Y-98065000D01*
X127836842Y-98122068D01*
X127566589Y-98234010D01*
X127323368Y-98396525D01*
X127116525Y-98603368D01*
X127000000Y-98777760D01*
X126883475Y-98603368D01*
X126676632Y-98396525D01*
X126433411Y-98234010D01*
X126163158Y-98122068D01*
X125876260Y-98065000D01*
X125583740Y-98065000D01*
X125296842Y-98122068D01*
X125026589Y-98234010D01*
X124783368Y-98396525D01*
X124576525Y-98603368D01*
X124414010Y-98846589D01*
X124302068Y-99116842D01*
X124245000Y-99403740D01*
X124245000Y-99696260D01*
X124302068Y-99983158D01*
X124414010Y-100253411D01*
X124576525Y-100496632D01*
X124783368Y-100703475D01*
X125026589Y-100865990D01*
X125296842Y-100977932D01*
X125583740Y-101035000D01*
X125876260Y-101035000D01*
X126163158Y-100977932D01*
X126433411Y-100865990D01*
X126676632Y-100703475D01*
X126883475Y-100496632D01*
X127000000Y-100322240D01*
X127116525Y-100496632D01*
X127323368Y-100703475D01*
X127566589Y-100865990D01*
X127836842Y-100977932D01*
X128123740Y-101035000D01*
X128416260Y-101035000D01*
X128703158Y-100977932D01*
X128973411Y-100865990D01*
X129216632Y-100703475D01*
X129423475Y-100496632D01*
X129540000Y-100322240D01*
X129656525Y-100496632D01*
X129863368Y-100703475D01*
X130106589Y-100865990D01*
X130376842Y-100977932D01*
X130663740Y-101035000D01*
X130956260Y-101035000D01*
X131243158Y-100977932D01*
X131513411Y-100865990D01*
X131756632Y-100703475D01*
X131963475Y-100496632D01*
X132080000Y-100322240D01*
X132196525Y-100496632D01*
X132403368Y-100703475D01*
X132646589Y-100865990D01*
X132916842Y-100977932D01*
X133203740Y-101035000D01*
X133496260Y-101035000D01*
X133783158Y-100977932D01*
X134053411Y-100865990D01*
X134296632Y-100703475D01*
X134503475Y-100496632D01*
X134620000Y-100322240D01*
X134736525Y-100496632D01*
X134943368Y-100703475D01*
X135186589Y-100865990D01*
X135240536Y-100888335D01*
X133593872Y-102534999D01*
X119905752Y-102534999D01*
X119850000Y-102529508D01*
X119627501Y-102551422D01*
X119577706Y-102566528D01*
X119413554Y-102616323D01*
X119216378Y-102721715D01*
X119043552Y-102863550D01*
X119008012Y-102906856D01*
X111453534Y-110461335D01*
X111371032Y-110477746D01*
X111128351Y-110578268D01*
X110909943Y-110724203D01*
X110724203Y-110909943D01*
X110578268Y-111128351D01*
X110490000Y-111341448D01*
X110401732Y-111128351D01*
X110255797Y-110909943D01*
X110070057Y-110724203D01*
X109851649Y-110578268D01*
X109608968Y-110477746D01*
X109351338Y-110426500D01*
X109088662Y-110426500D01*
X108831032Y-110477746D01*
X108588351Y-110578268D01*
X108369943Y-110724203D01*
X108184203Y-110909943D01*
X108038268Y-111128351D01*
X107937746Y-111371032D01*
X107886500Y-111628662D01*
X106070000Y-111628662D01*
X106070000Y-72550881D01*
X107968724Y-72550881D01*
X108328912Y-73040548D01*
X108992882Y-73400849D01*
X109714385Y-73624694D01*
X110465695Y-73703480D01*
X111217938Y-73634178D01*
X111942208Y-73419452D01*
X112610670Y-73067555D01*
X112651088Y-73040548D01*
X113011276Y-72550881D01*
X110490000Y-70029605D01*
X107968724Y-72550881D01*
X106070000Y-72550881D01*
X106070000Y-69879392D01*
X106074792Y-69825695D01*
X106636520Y-69825695D01*
X106705822Y-70577938D01*
X106920548Y-71302208D01*
X107272445Y-71970670D01*
X107299452Y-72011088D01*
X107789119Y-72371276D01*
X110310395Y-69850000D01*
X110669605Y-69850000D01*
X113190881Y-72371276D01*
X113680548Y-72011088D01*
X114040849Y-71347118D01*
X114264694Y-70625615D01*
X114343480Y-69874305D01*
X114327767Y-69703740D01*
X126785000Y-69703740D01*
X126785000Y-69996260D01*
X126842068Y-70283158D01*
X126954010Y-70553411D01*
X127116525Y-70796632D01*
X127323368Y-71003475D01*
X127566589Y-71165990D01*
X127836842Y-71277932D01*
X128123740Y-71335000D01*
X128416260Y-71335000D01*
X128703158Y-71277932D01*
X128973411Y-71165990D01*
X129216632Y-71003475D01*
X129423475Y-70796632D01*
X129540000Y-70622240D01*
X129656525Y-70796632D01*
X129863368Y-71003475D01*
X130106589Y-71165990D01*
X130376842Y-71277932D01*
X130663740Y-71335000D01*
X130956260Y-71335000D01*
X131243158Y-71277932D01*
X131513411Y-71165990D01*
X131756632Y-71003475D01*
X131881710Y-70878397D01*
X132501208Y-70878397D01*
X132578843Y-71127472D01*
X132842883Y-71253371D01*
X133126411Y-71325339D01*
X133418531Y-71340611D01*
X133708019Y-71298599D01*
X133983747Y-71200919D01*
X134121157Y-71127472D01*
X134198792Y-70878397D01*
X133350000Y-70029605D01*
X132501208Y-70878397D01*
X131881710Y-70878397D01*
X131963475Y-70796632D01*
X132079311Y-70623271D01*
X132321603Y-70698792D01*
X133170395Y-69850000D01*
X133529605Y-69850000D01*
X134378397Y-70698792D01*
X134401928Y-70691458D01*
X134401928Y-70700000D01*
X134414188Y-70824482D01*
X134450498Y-70944180D01*
X134509463Y-71054494D01*
X134588815Y-71151185D01*
X134685506Y-71230537D01*
X134795820Y-71289502D01*
X134915518Y-71325812D01*
X135040000Y-71338072D01*
X136740000Y-71338072D01*
X136864482Y-71325812D01*
X136984180Y-71289502D01*
X137094494Y-71230537D01*
X137191185Y-71151185D01*
X137270537Y-71054494D01*
X137329502Y-70944180D01*
X137365812Y-70824482D01*
X137378072Y-70700000D01*
X137378072Y-69000000D01*
X137365812Y-68875518D01*
X137329502Y-68755820D01*
X137270537Y-68645506D01*
X137191185Y-68548815D01*
X137094494Y-68469463D01*
X136984180Y-68410498D01*
X136864482Y-68374188D01*
X136740000Y-68361928D01*
X135040000Y-68361928D01*
X134915518Y-68374188D01*
X134795820Y-68410498D01*
X134685506Y-68469463D01*
X134588815Y-68548815D01*
X134509463Y-68645506D01*
X134450498Y-68755820D01*
X134414188Y-68875518D01*
X134401928Y-69000000D01*
X134401928Y-69008542D01*
X134378397Y-69001208D01*
X133529605Y-69850000D01*
X133170395Y-69850000D01*
X132321603Y-69001208D01*
X132079311Y-69076729D01*
X131963475Y-68903368D01*
X131881710Y-68821603D01*
X132501208Y-68821603D01*
X133350000Y-69670395D01*
X134198792Y-68821603D01*
X134121157Y-68572528D01*
X133857117Y-68446629D01*
X133573589Y-68374661D01*
X133281469Y-68359389D01*
X132991981Y-68401401D01*
X132716253Y-68499081D01*
X132578843Y-68572528D01*
X132501208Y-68821603D01*
X131881710Y-68821603D01*
X131756632Y-68696525D01*
X131513411Y-68534010D01*
X131243158Y-68422068D01*
X130956260Y-68365000D01*
X130663740Y-68365000D01*
X130376842Y-68422068D01*
X130106589Y-68534010D01*
X129863368Y-68696525D01*
X129656525Y-68903368D01*
X129540000Y-69077760D01*
X129423475Y-68903368D01*
X129216632Y-68696525D01*
X128973411Y-68534010D01*
X128703158Y-68422068D01*
X128416260Y-68365000D01*
X128123740Y-68365000D01*
X127836842Y-68422068D01*
X127566589Y-68534010D01*
X127323368Y-68696525D01*
X127116525Y-68903368D01*
X126954010Y-69146589D01*
X126842068Y-69416842D01*
X126785000Y-69703740D01*
X114327767Y-69703740D01*
X114274178Y-69122062D01*
X114059452Y-68397792D01*
X113707555Y-67729330D01*
X113680548Y-67688912D01*
X113190881Y-67328724D01*
X110669605Y-69850000D01*
X110310395Y-69850000D01*
X107789119Y-67328724D01*
X107299452Y-67688912D01*
X106939151Y-68352882D01*
X106715306Y-69074385D01*
X106636520Y-69825695D01*
X106074792Y-69825695D01*
X106142437Y-69067751D01*
X106349672Y-68310226D01*
X106687777Y-67601375D01*
X107012755Y-67149119D01*
X107968724Y-67149119D01*
X110490000Y-69670395D01*
X113011276Y-67149119D01*
X162578724Y-67149119D01*
X165100000Y-69670395D01*
X167621276Y-67149119D01*
X167261088Y-66659452D01*
X166597118Y-66299151D01*
X165875615Y-66075306D01*
X165124305Y-65996520D01*
X164372062Y-66065822D01*
X163647792Y-66280548D01*
X162979330Y-66632445D01*
X162938912Y-66659452D01*
X162578724Y-67149119D01*
X113011276Y-67149119D01*
X112651088Y-66659452D01*
X111987118Y-66299151D01*
X111265615Y-66075306D01*
X110514305Y-65996520D01*
X109762062Y-66065822D01*
X109037792Y-66280548D01*
X108369330Y-66632445D01*
X108328912Y-66659452D01*
X107968724Y-67149119D01*
X107012755Y-67149119D01*
X107146067Y-66963596D01*
X107710055Y-66417054D01*
X108361913Y-65979023D01*
X109081038Y-65663349D01*
X109849768Y-65478794D01*
X110514207Y-65430000D01*
X165070608Y-65430000D01*
X165882249Y-65502437D01*
G37*
%TD.AperFunction*%
%TD*%
M02*
