M48
; DRILL file {KiCad (5.1.10)-1} date 04/16/22 20:13:30
; FORMAT={-:-/ absolute / inch / decimal}
; #@! TF.CreationDate,2022-04-16T20:13:30-07:00
; #@! TF.GenerationSoftware,Kicad,Pcbnew,(5.1.10)-1
; #@! TF.FileFunction,Plated,1,2,PTH
FMAT,2
INCH
T1C0.0197
T2C0.0320
T3C0.0394
T4C0.0400
T5C0.0472
T6C0.0606
T7C0.1260
%
G90
G05
T1
X4.2555Y-2.75
X4.2555Y-4.75
X4.2832Y-2.6832
X4.2832Y-2.8168
X4.2832Y-4.6832
X4.2832Y-4.8168
X4.35Y-2.6555
X4.35Y-2.8445
X4.35Y-4.6555
X4.35Y-4.8445
X4.4168Y-2.6832
X4.4168Y-2.8168
X4.4168Y-4.6832
X4.4168Y-4.8168
X4.4445Y-2.75
X4.4445Y-4.75
X6.4055Y-2.75
X6.4055Y-4.75
X6.4332Y-2.6832
X6.4332Y-2.8168
X6.4332Y-4.6832
X6.4332Y-4.8168
X6.5Y-2.6555
X6.5Y-2.8445
X6.5Y-4.6555
X6.5Y-4.8445
X6.5668Y-2.6832
X6.5668Y-2.8168
X6.5668Y-4.6832
X6.5668Y-4.8168
X6.5945Y-2.75
X6.5945Y-4.75
T2
X4.3Y-4.4
X4.4Y-4.4
X4.5Y-4.4
X4.6Y-4.4
T3
X4.95Y-3.9193
X5.05Y-2.75
X5.05Y-3.9193
X5.15Y-2.75
X5.15Y-3.9193
X5.25Y-2.75
X5.25Y-3.9193
X5.35Y-2.75
X5.35Y-3.9193
X6.45Y-3.3
X6.45Y-3.4
X6.45Y-3.5
X6.45Y-3.6
X6.45Y-3.9
X6.45Y-4.15
X6.55Y-3.9
X6.55Y-4.15
T4
X5.8Y-2.8
X5.8Y-2.9
X5.9Y-2.8
X5.9Y-2.9
X6.0Y-2.8
X6.0Y-2.9
X6.1Y-2.8
X6.1Y-2.9
T5
X5.05Y-4.8
X5.15Y-4.8
X5.25Y-4.8
T6
X5.6669Y-3.9315
X5.6669Y-4.8331
X5.8047Y-3.9315
X6.1039Y-3.9315
X6.226Y-4.8331
X6.2378Y-3.9315
T7
X4.35Y-2.75
X4.35Y-4.75
X6.5Y-2.75
X6.5Y-4.75
T0
M30
