%TF.GenerationSoftware,KiCad,Pcbnew,(5.1.10)-1*%
%TF.CreationDate,2022-04-16T20:13:42-07:00*%
%TF.ProjectId,S8-CO2 Sensor KiCAD,53382d43-4f32-4205-9365-6e736f72204b,rev?*%
%TF.SameCoordinates,Original*%
%TF.FileFunction,Legend,Top*%
%TF.FilePolarity,Positive*%
%FSLAX46Y46*%
G04 Gerber Fmt 4.6, Leading zero omitted, Abs format (unit mm)*
G04 Created by KiCad (PCBNEW (5.1.10)-1) date 2022-04-16 20:13:42*
%MOMM*%
%LPD*%
G01*
G04 APERTURE LIST*
%ADD10C,0.150000*%
%ADD11C,0.120000*%
%ADD12C,0.152400*%
%ADD13C,0.254000*%
G04 APERTURE END LIST*
D10*
X129571904Y-123912380D02*
X130190952Y-123912380D01*
X129857619Y-124293333D01*
X130000476Y-124293333D01*
X130095714Y-124340952D01*
X130143333Y-124388571D01*
X130190952Y-124483809D01*
X130190952Y-124721904D01*
X130143333Y-124817142D01*
X130095714Y-124864761D01*
X130000476Y-124912380D01*
X129714761Y-124912380D01*
X129619523Y-124864761D01*
X129571904Y-124817142D01*
X130476666Y-123912380D02*
X130810000Y-124912380D01*
X131143333Y-123912380D01*
X131381428Y-123912380D02*
X132000476Y-123912380D01*
X131667142Y-124293333D01*
X131810000Y-124293333D01*
X131905238Y-124340952D01*
X131952857Y-124388571D01*
X132000476Y-124483809D01*
X132000476Y-124721904D01*
X131952857Y-124817142D01*
X131905238Y-124864761D01*
X131810000Y-124912380D01*
X131524285Y-124912380D01*
X131429047Y-124864761D01*
X131381428Y-124817142D01*
X116340000Y-116331904D02*
X116292380Y-116427142D01*
X116292380Y-116570000D01*
X116340000Y-116712857D01*
X116435238Y-116808095D01*
X116530476Y-116855714D01*
X116720952Y-116903333D01*
X116863809Y-116903333D01*
X117054285Y-116855714D01*
X117149523Y-116808095D01*
X117244761Y-116712857D01*
X117292380Y-116570000D01*
X117292380Y-116474761D01*
X117244761Y-116331904D01*
X117197142Y-116284285D01*
X116863809Y-116284285D01*
X116863809Y-116474761D01*
X117292380Y-115855714D02*
X116292380Y-115855714D01*
X117292380Y-115284285D01*
X116292380Y-115284285D01*
X117292380Y-114808095D02*
X116292380Y-114808095D01*
X116292380Y-114570000D01*
X116340000Y-114427142D01*
X116435238Y-114331904D01*
X116530476Y-114284285D01*
X116720952Y-114236666D01*
X116863809Y-114236666D01*
X117054285Y-114284285D01*
X117149523Y-114331904D01*
X117244761Y-114427142D01*
X117292380Y-114570000D01*
X117292380Y-114808095D01*
X113752380Y-116903333D02*
X114752380Y-116570000D01*
X113752380Y-116236666D01*
X114657142Y-115331904D02*
X114704761Y-115379523D01*
X114752380Y-115522380D01*
X114752380Y-115617619D01*
X114704761Y-115760476D01*
X114609523Y-115855714D01*
X114514285Y-115903333D01*
X114323809Y-115950952D01*
X114180952Y-115950952D01*
X113990476Y-115903333D01*
X113895238Y-115855714D01*
X113800000Y-115760476D01*
X113752380Y-115617619D01*
X113752380Y-115522380D01*
X113800000Y-115379523D01*
X113847619Y-115331904D01*
X114657142Y-114331904D02*
X114704761Y-114379523D01*
X114752380Y-114522380D01*
X114752380Y-114617619D01*
X114704761Y-114760476D01*
X114609523Y-114855714D01*
X114514285Y-114903333D01*
X114323809Y-114950952D01*
X114180952Y-114950952D01*
X113990476Y-114903333D01*
X113895238Y-114855714D01*
X113800000Y-114760476D01*
X113752380Y-114617619D01*
X113752380Y-114522380D01*
X113800000Y-114379523D01*
X113847619Y-114331904D01*
X163282380Y-101528571D02*
X163425238Y-101576190D01*
X163472857Y-101623809D01*
X163520476Y-101719047D01*
X163520476Y-101861904D01*
X163472857Y-101957142D01*
X163425238Y-102004761D01*
X163330000Y-102052380D01*
X162949047Y-102052380D01*
X162949047Y-101052380D01*
X163282380Y-101052380D01*
X163377619Y-101100000D01*
X163425238Y-101147619D01*
X163472857Y-101242857D01*
X163472857Y-101338095D01*
X163425238Y-101433333D01*
X163377619Y-101480952D01*
X163282380Y-101528571D01*
X162949047Y-101528571D01*
X163949047Y-101671428D02*
X164710952Y-101671428D01*
X163282380Y-107878571D02*
X163425238Y-107926190D01*
X163472857Y-107973809D01*
X163520476Y-108069047D01*
X163520476Y-108211904D01*
X163472857Y-108307142D01*
X163425238Y-108354761D01*
X163330000Y-108402380D01*
X162949047Y-108402380D01*
X162949047Y-107402380D01*
X163282380Y-107402380D01*
X163377619Y-107450000D01*
X163425238Y-107497619D01*
X163472857Y-107592857D01*
X163472857Y-107688095D01*
X163425238Y-107783333D01*
X163377619Y-107830952D01*
X163282380Y-107878571D01*
X162949047Y-107878571D01*
X163949047Y-108021428D02*
X164710952Y-108021428D01*
X159258095Y-74430000D02*
X159162857Y-74382380D01*
X159020000Y-74382380D01*
X158877142Y-74430000D01*
X158781904Y-74525238D01*
X158734285Y-74620476D01*
X158686666Y-74810952D01*
X158686666Y-74953809D01*
X158734285Y-75144285D01*
X158781904Y-75239523D01*
X158877142Y-75334761D01*
X159020000Y-75382380D01*
X159115238Y-75382380D01*
X159258095Y-75334761D01*
X159305714Y-75287142D01*
X159305714Y-74953809D01*
X159115238Y-74953809D01*
X159734285Y-75382380D02*
X159734285Y-74382380D01*
X160305714Y-75382380D01*
X160305714Y-74382380D01*
X160781904Y-75382380D02*
X160781904Y-74382380D01*
X161020000Y-74382380D01*
X161162857Y-74430000D01*
X161258095Y-74525238D01*
X161305714Y-74620476D01*
X161353333Y-74810952D01*
X161353333Y-74953809D01*
X161305714Y-75144285D01*
X161258095Y-75239523D01*
X161162857Y-75334761D01*
X161020000Y-75382380D01*
X160781904Y-75382380D01*
X155448095Y-68032380D02*
X156019523Y-68032380D01*
X155733809Y-69032380D02*
X155733809Y-68032380D01*
X156257619Y-68032380D02*
X156924285Y-69032380D01*
X156924285Y-68032380D02*
X156257619Y-69032380D01*
X152931904Y-68508571D02*
X153265238Y-68508571D01*
X153408095Y-69032380D02*
X152931904Y-69032380D01*
X152931904Y-68032380D01*
X153408095Y-68032380D01*
X153836666Y-69032380D02*
X153836666Y-68032380D01*
X154408095Y-69032380D01*
X154408095Y-68032380D01*
X149312380Y-69032380D02*
X148979047Y-68556190D01*
X148740952Y-69032380D02*
X148740952Y-68032380D01*
X149121904Y-68032380D01*
X149217142Y-68080000D01*
X149264761Y-68127619D01*
X149312380Y-68222857D01*
X149312380Y-68365714D01*
X149264761Y-68460952D01*
X149217142Y-68508571D01*
X149121904Y-68556190D01*
X148740952Y-68556190D01*
X149693333Y-68984761D02*
X149836190Y-69032380D01*
X150074285Y-69032380D01*
X150169523Y-68984761D01*
X150217142Y-68937142D01*
X150264761Y-68841904D01*
X150264761Y-68746666D01*
X150217142Y-68651428D01*
X150169523Y-68603809D01*
X150074285Y-68556190D01*
X149883809Y-68508571D01*
X149788571Y-68460952D01*
X149740952Y-68413333D01*
X149693333Y-68318095D01*
X149693333Y-68222857D01*
X149740952Y-68127619D01*
X149788571Y-68080000D01*
X149883809Y-68032380D01*
X150121904Y-68032380D01*
X150264761Y-68080000D01*
X150550476Y-68032380D02*
X151121904Y-68032380D01*
X150836190Y-69032380D02*
X150836190Y-68032380D01*
X144811904Y-68032380D02*
X145430952Y-68032380D01*
X145097619Y-68413333D01*
X145240476Y-68413333D01*
X145335714Y-68460952D01*
X145383333Y-68508571D01*
X145430952Y-68603809D01*
X145430952Y-68841904D01*
X145383333Y-68937142D01*
X145335714Y-68984761D01*
X145240476Y-69032380D01*
X144954761Y-69032380D01*
X144859523Y-68984761D01*
X144811904Y-68937142D01*
X145716666Y-68032380D02*
X146050000Y-69032380D01*
X146383333Y-68032380D01*
X146621428Y-68032380D02*
X147240476Y-68032380D01*
X146907142Y-68413333D01*
X147050000Y-68413333D01*
X147145238Y-68460952D01*
X147192857Y-68508571D01*
X147240476Y-68603809D01*
X147240476Y-68841904D01*
X147192857Y-68937142D01*
X147145238Y-68984761D01*
X147050000Y-69032380D01*
X146764285Y-69032380D01*
X146669047Y-68984761D01*
X146621428Y-68937142D01*
X142073333Y-75382380D02*
X141740000Y-74906190D01*
X141501904Y-75382380D02*
X141501904Y-74382380D01*
X141882857Y-74382380D01*
X141978095Y-74430000D01*
X142025714Y-74477619D01*
X142073333Y-74572857D01*
X142073333Y-74715714D01*
X142025714Y-74810952D01*
X141978095Y-74858571D01*
X141882857Y-74906190D01*
X141501904Y-74906190D01*
X142406666Y-74382380D02*
X143073333Y-75382380D01*
X143073333Y-74382380D02*
X142406666Y-75382380D01*
X147399523Y-76604761D02*
X147542380Y-76652380D01*
X147780476Y-76652380D01*
X147875714Y-76604761D01*
X147923333Y-76557142D01*
X147970952Y-76461904D01*
X147970952Y-76366666D01*
X147923333Y-76271428D01*
X147875714Y-76223809D01*
X147780476Y-76176190D01*
X147590000Y-76128571D01*
X147494761Y-76080952D01*
X147447142Y-76033333D01*
X147399523Y-75938095D01*
X147399523Y-75842857D01*
X147447142Y-75747619D01*
X147494761Y-75700000D01*
X147590000Y-75652380D01*
X147828095Y-75652380D01*
X147970952Y-75700000D01*
X148970952Y-76557142D02*
X148923333Y-76604761D01*
X148780476Y-76652380D01*
X148685238Y-76652380D01*
X148542380Y-76604761D01*
X148447142Y-76509523D01*
X148399523Y-76414285D01*
X148351904Y-76223809D01*
X148351904Y-76080952D01*
X148399523Y-75890476D01*
X148447142Y-75795238D01*
X148542380Y-75700000D01*
X148685238Y-75652380D01*
X148780476Y-75652380D01*
X148923333Y-75700000D01*
X148970952Y-75747619D01*
X149875714Y-76652380D02*
X149399523Y-76652380D01*
X149399523Y-75652380D01*
X151185714Y-76604761D02*
X151328571Y-76652380D01*
X151566666Y-76652380D01*
X151661904Y-76604761D01*
X151709523Y-76557142D01*
X151757142Y-76461904D01*
X151757142Y-76366666D01*
X151709523Y-76271428D01*
X151661904Y-76223809D01*
X151566666Y-76176190D01*
X151376190Y-76128571D01*
X151280952Y-76080952D01*
X151233333Y-76033333D01*
X151185714Y-75938095D01*
X151185714Y-75842857D01*
X151233333Y-75747619D01*
X151280952Y-75700000D01*
X151376190Y-75652380D01*
X151614285Y-75652380D01*
X151757142Y-75700000D01*
X152185714Y-76652380D02*
X152185714Y-75652380D01*
X152423809Y-75652380D01*
X152566666Y-75700000D01*
X152661904Y-75795238D01*
X152709523Y-75890476D01*
X152757142Y-76080952D01*
X152757142Y-76223809D01*
X152709523Y-76414285D01*
X152661904Y-76509523D01*
X152566666Y-76604761D01*
X152423809Y-76652380D01*
X152185714Y-76652380D01*
X153138095Y-76366666D02*
X153614285Y-76366666D01*
X153042857Y-76652380D02*
X153376190Y-75652380D01*
X153709523Y-76652380D01*
X112164761Y-116760476D02*
X112212380Y-116617619D01*
X112212380Y-116379523D01*
X112164761Y-116284285D01*
X112117142Y-116236666D01*
X112021904Y-116189047D01*
X111926666Y-116189047D01*
X111831428Y-116236666D01*
X111783809Y-116284285D01*
X111736190Y-116379523D01*
X111688571Y-116570000D01*
X111640952Y-116665238D01*
X111593333Y-116712857D01*
X111498095Y-116760476D01*
X111402857Y-116760476D01*
X111307619Y-116712857D01*
X111260000Y-116665238D01*
X111212380Y-116570000D01*
X111212380Y-116331904D01*
X111260000Y-116189047D01*
X112117142Y-115189047D02*
X112164761Y-115236666D01*
X112212380Y-115379523D01*
X112212380Y-115474761D01*
X112164761Y-115617619D01*
X112069523Y-115712857D01*
X111974285Y-115760476D01*
X111783809Y-115808095D01*
X111640952Y-115808095D01*
X111450476Y-115760476D01*
X111355238Y-115712857D01*
X111260000Y-115617619D01*
X111212380Y-115474761D01*
X111212380Y-115379523D01*
X111260000Y-115236666D01*
X111307619Y-115189047D01*
X112212380Y-114284285D02*
X112212380Y-114760476D01*
X111212380Y-114760476D01*
X109624761Y-116784285D02*
X109672380Y-116641428D01*
X109672380Y-116403333D01*
X109624761Y-116308095D01*
X109577142Y-116260476D01*
X109481904Y-116212857D01*
X109386666Y-116212857D01*
X109291428Y-116260476D01*
X109243809Y-116308095D01*
X109196190Y-116403333D01*
X109148571Y-116593809D01*
X109100952Y-116689047D01*
X109053333Y-116736666D01*
X108958095Y-116784285D01*
X108862857Y-116784285D01*
X108767619Y-116736666D01*
X108720000Y-116689047D01*
X108672380Y-116593809D01*
X108672380Y-116355714D01*
X108720000Y-116212857D01*
X109672380Y-115784285D02*
X108672380Y-115784285D01*
X108672380Y-115546190D01*
X108720000Y-115403333D01*
X108815238Y-115308095D01*
X108910476Y-115260476D01*
X109100952Y-115212857D01*
X109243809Y-115212857D01*
X109434285Y-115260476D01*
X109529523Y-115308095D01*
X109624761Y-115403333D01*
X109672380Y-115546190D01*
X109672380Y-115784285D01*
X109386666Y-114831904D02*
X109386666Y-114355714D01*
X109672380Y-114927142D02*
X108672380Y-114593809D01*
X109672380Y-114260476D01*
X133167619Y-123912380D02*
X133358095Y-123912380D01*
X133453333Y-123960000D01*
X133548571Y-124055238D01*
X133596190Y-124245714D01*
X133596190Y-124579047D01*
X133548571Y-124769523D01*
X133453333Y-124864761D01*
X133358095Y-124912380D01*
X133167619Y-124912380D01*
X133072380Y-124864761D01*
X132977142Y-124769523D01*
X132929523Y-124579047D01*
X132929523Y-124245714D01*
X132977142Y-124055238D01*
X133072380Y-123960000D01*
X133167619Y-123912380D01*
X134453333Y-124245714D02*
X134453333Y-124912380D01*
X134024761Y-124245714D02*
X134024761Y-124769523D01*
X134072380Y-124864761D01*
X134167619Y-124912380D01*
X134310476Y-124912380D01*
X134405714Y-124864761D01*
X134453333Y-124817142D01*
X134786666Y-124245714D02*
X135167619Y-124245714D01*
X134929523Y-123912380D02*
X134929523Y-124769523D01*
X134977142Y-124864761D01*
X135072380Y-124912380D01*
X135167619Y-124912380D01*
X135500952Y-124531428D02*
X136262857Y-124531428D01*
X135881904Y-124912380D02*
X135881904Y-124150476D01*
X126357142Y-123960000D02*
X126261904Y-123912380D01*
X126119047Y-123912380D01*
X125976190Y-123960000D01*
X125880952Y-124055238D01*
X125833333Y-124150476D01*
X125785714Y-124340952D01*
X125785714Y-124483809D01*
X125833333Y-124674285D01*
X125880952Y-124769523D01*
X125976190Y-124864761D01*
X126119047Y-124912380D01*
X126214285Y-124912380D01*
X126357142Y-124864761D01*
X126404761Y-124817142D01*
X126404761Y-124483809D01*
X126214285Y-124483809D01*
X126833333Y-124245714D02*
X126833333Y-124912380D01*
X126833333Y-124340952D02*
X126880952Y-124293333D01*
X126976190Y-124245714D01*
X127119047Y-124245714D01*
X127214285Y-124293333D01*
X127261904Y-124388571D01*
X127261904Y-124912380D01*
X128166666Y-124912380D02*
X128166666Y-123912380D01*
X128166666Y-124864761D02*
X128071428Y-124912380D01*
X127880952Y-124912380D01*
X127785714Y-124864761D01*
X127738095Y-124817142D01*
X127690476Y-124721904D01*
X127690476Y-124436190D01*
X127738095Y-124340952D01*
X127785714Y-124293333D01*
X127880952Y-124245714D01*
X128071428Y-124245714D01*
X128166666Y-124293333D01*
X165822380Y-101528571D02*
X165965238Y-101576190D01*
X166012857Y-101623809D01*
X166060476Y-101719047D01*
X166060476Y-101861904D01*
X166012857Y-101957142D01*
X165965238Y-102004761D01*
X165870000Y-102052380D01*
X165489047Y-102052380D01*
X165489047Y-101052380D01*
X165822380Y-101052380D01*
X165917619Y-101100000D01*
X165965238Y-101147619D01*
X166012857Y-101242857D01*
X166012857Y-101338095D01*
X165965238Y-101433333D01*
X165917619Y-101480952D01*
X165822380Y-101528571D01*
X165489047Y-101528571D01*
X166489047Y-101671428D02*
X167250952Y-101671428D01*
X166870000Y-102052380D02*
X166870000Y-101290476D01*
X165822380Y-107878571D02*
X165965238Y-107926190D01*
X166012857Y-107973809D01*
X166060476Y-108069047D01*
X166060476Y-108211904D01*
X166012857Y-108307142D01*
X165965238Y-108354761D01*
X165870000Y-108402380D01*
X165489047Y-108402380D01*
X165489047Y-107402380D01*
X165822380Y-107402380D01*
X165917619Y-107450000D01*
X165965238Y-107497619D01*
X166012857Y-107592857D01*
X166012857Y-107688095D01*
X165965238Y-107783333D01*
X165917619Y-107830952D01*
X165822380Y-107878571D01*
X165489047Y-107878571D01*
X166489047Y-108021428D02*
X167250952Y-108021428D01*
X166870000Y-108402380D02*
X166870000Y-107640476D01*
X165870000Y-83192857D02*
X165822380Y-83288095D01*
X165822380Y-83430952D01*
X165870000Y-83573809D01*
X165965238Y-83669047D01*
X166060476Y-83716666D01*
X166250952Y-83764285D01*
X166393809Y-83764285D01*
X166584285Y-83716666D01*
X166679523Y-83669047D01*
X166774761Y-83573809D01*
X166822380Y-83430952D01*
X166822380Y-83335714D01*
X166774761Y-83192857D01*
X166727142Y-83145238D01*
X166393809Y-83145238D01*
X166393809Y-83335714D01*
X166155714Y-82716666D02*
X166822380Y-82716666D01*
X166250952Y-82716666D02*
X166203333Y-82669047D01*
X166155714Y-82573809D01*
X166155714Y-82430952D01*
X166203333Y-82335714D01*
X166298571Y-82288095D01*
X166822380Y-82288095D01*
X166822380Y-81383333D02*
X165822380Y-81383333D01*
X166774761Y-81383333D02*
X166822380Y-81478571D01*
X166822380Y-81669047D01*
X166774761Y-81764285D01*
X166727142Y-81811904D01*
X166631904Y-81859523D01*
X166346190Y-81859523D01*
X166250952Y-81811904D01*
X166203333Y-81764285D01*
X166155714Y-81669047D01*
X166155714Y-81478571D01*
X166203333Y-81383333D01*
X166441428Y-87645714D02*
X166441428Y-86883809D01*
X166822380Y-87264761D02*
X166060476Y-87264761D01*
X165822380Y-85931428D02*
X165822380Y-86407619D01*
X166298571Y-86455238D01*
X166250952Y-86407619D01*
X166203333Y-86312380D01*
X166203333Y-86074285D01*
X166250952Y-85979047D01*
X166298571Y-85931428D01*
X166393809Y-85883809D01*
X166631904Y-85883809D01*
X166727142Y-85931428D01*
X166774761Y-85979047D01*
X166822380Y-86074285D01*
X166822380Y-86312380D01*
X166774761Y-86407619D01*
X166727142Y-86455238D01*
X165822380Y-85598095D02*
X166822380Y-85264761D01*
X165822380Y-84931428D01*
X165870000Y-90812857D02*
X165822380Y-90908095D01*
X165822380Y-91050952D01*
X165870000Y-91193809D01*
X165965238Y-91289047D01*
X166060476Y-91336666D01*
X166250952Y-91384285D01*
X166393809Y-91384285D01*
X166584285Y-91336666D01*
X166679523Y-91289047D01*
X166774761Y-91193809D01*
X166822380Y-91050952D01*
X166822380Y-90955714D01*
X166774761Y-90812857D01*
X166727142Y-90765238D01*
X166393809Y-90765238D01*
X166393809Y-90955714D01*
X166155714Y-90336666D02*
X166822380Y-90336666D01*
X166250952Y-90336666D02*
X166203333Y-90289047D01*
X166155714Y-90193809D01*
X166155714Y-90050952D01*
X166203333Y-89955714D01*
X166298571Y-89908095D01*
X166822380Y-89908095D01*
X166822380Y-89003333D02*
X165822380Y-89003333D01*
X166774761Y-89003333D02*
X166822380Y-89098571D01*
X166822380Y-89289047D01*
X166774761Y-89384285D01*
X166727142Y-89431904D01*
X166631904Y-89479523D01*
X166346190Y-89479523D01*
X166250952Y-89431904D01*
X166203333Y-89384285D01*
X166155714Y-89289047D01*
X166155714Y-89098571D01*
X166203333Y-89003333D01*
X165822380Y-95432380D02*
X165822380Y-95241904D01*
X165870000Y-95146666D01*
X165965238Y-95051428D01*
X166155714Y-95003809D01*
X166489047Y-95003809D01*
X166679523Y-95051428D01*
X166774761Y-95146666D01*
X166822380Y-95241904D01*
X166822380Y-95432380D01*
X166774761Y-95527619D01*
X166679523Y-95622857D01*
X166489047Y-95670476D01*
X166155714Y-95670476D01*
X165965238Y-95622857D01*
X165870000Y-95527619D01*
X165822380Y-95432380D01*
X166155714Y-94146666D02*
X166822380Y-94146666D01*
X166155714Y-94575238D02*
X166679523Y-94575238D01*
X166774761Y-94527619D01*
X166822380Y-94432380D01*
X166822380Y-94289523D01*
X166774761Y-94194285D01*
X166727142Y-94146666D01*
X166155714Y-93813333D02*
X166155714Y-93432380D01*
X165822380Y-93670476D02*
X166679523Y-93670476D01*
X166774761Y-93622857D01*
X166822380Y-93527619D01*
X166822380Y-93432380D01*
X166441428Y-93099047D02*
X166441428Y-92337142D01*
X166822380Y-92718095D02*
X166060476Y-92718095D01*
D11*
%TO.C,DB4*%
X137780000Y-68270000D02*
X137780000Y-70840000D01*
X135350000Y-68270000D02*
X137780000Y-68270000D01*
X120860000Y-98000000D02*
X120860000Y-71400000D01*
X126580000Y-71400000D02*
X120860000Y-71400000D01*
X126580000Y-71400000D02*
X126580000Y-68470000D01*
X126580000Y-68470000D02*
X137580000Y-68470000D01*
X137580000Y-71400000D02*
X137580000Y-68470000D01*
X140760000Y-71400000D02*
X140760000Y-98000000D01*
X137580000Y-100970000D02*
X137580000Y-98000000D01*
X124080000Y-100970000D02*
X124080000Y-98000000D01*
X140760000Y-71400000D02*
X137580000Y-71400000D01*
X137580000Y-98000000D02*
X140760000Y-98000000D01*
X124080000Y-100970000D02*
X137580000Y-100970000D01*
X120860000Y-98000000D02*
X124080000Y-98000000D01*
%TO.C,LION2*%
X162500000Y-104080000D02*
X162500000Y-106740000D01*
X165100000Y-104080000D02*
X162500000Y-104080000D01*
X165100000Y-106740000D02*
X162500000Y-106740000D01*
X165100000Y-104080000D02*
X165100000Y-106740000D01*
X166370000Y-104080000D02*
X167700000Y-104080000D01*
X167700000Y-104080000D02*
X167700000Y-105410000D01*
D12*
%TO.C,DB3*%
X156210000Y-74930000D02*
X156210000Y-72390000D01*
X146050000Y-74930000D02*
X156210000Y-74930000D01*
X146050000Y-69850000D02*
X146050000Y-74930000D01*
X153670000Y-69850000D02*
X146050000Y-69850000D01*
X156210000Y-69850000D02*
X153670000Y-69850000D01*
X156210000Y-72390000D02*
X156210000Y-69850000D01*
D13*
X144018000Y-69342000D02*
X158242000Y-69342000D01*
X144018000Y-93980000D02*
X144018000Y-69342000D01*
X158242000Y-93980000D02*
X144018000Y-93980000D01*
X158242000Y-69342000D02*
X158242000Y-93980000D01*
D10*
%TO.C,DB1*%
X142240000Y-124460000D02*
X142240000Y-98160000D01*
X153240000Y-124060000D02*
X149540000Y-124060000D01*
X153240000Y-121560000D02*
X153240000Y-124060000D01*
X149440000Y-121560000D02*
X153240000Y-121560000D01*
X149440000Y-124060000D02*
X149440000Y-121560000D01*
X160040000Y-124460000D02*
X142240000Y-124460000D01*
X160040000Y-96060000D02*
X160040000Y-124460000D01*
X157940000Y-96060000D02*
X160040000Y-96060000D01*
X144740000Y-96060000D02*
X144740000Y-98360000D01*
X142240000Y-96060000D02*
X144740000Y-96060000D01*
X142240000Y-98160000D02*
X142240000Y-96060000D01*
X157640000Y-96060000D02*
X157940000Y-96060000D01*
X157640000Y-98160000D02*
X157640000Y-96060000D01*
X157640000Y-98360000D02*
X157640000Y-98060000D01*
X144740000Y-98360000D02*
X157640000Y-98360000D01*
D11*
%TO.C,DB2*%
X165160000Y-92770000D02*
X163830000Y-92770000D01*
X165160000Y-91440000D02*
X165160000Y-92770000D01*
X165160000Y-90170000D02*
X162500000Y-90170000D01*
X162500000Y-90170000D02*
X162500000Y-82490000D01*
X165160000Y-90170000D02*
X165160000Y-82490000D01*
X165160000Y-82490000D02*
X162500000Y-82490000D01*
%TO.C,LION1*%
X167700000Y-97730000D02*
X167700000Y-99060000D01*
X166370000Y-97730000D02*
X167700000Y-97730000D01*
X165100000Y-97730000D02*
X165100000Y-100390000D01*
X165100000Y-100390000D02*
X162500000Y-100390000D01*
X165100000Y-97730000D02*
X162500000Y-97730000D01*
X162500000Y-97730000D02*
X162500000Y-100390000D01*
%TO.C,VR1*%
X133350000Y-118810000D02*
X133350000Y-120770000D01*
X130810000Y-118810000D02*
X130810000Y-120770000D01*
X128270000Y-118810000D02*
X128270000Y-120770000D01*
X136060000Y-102700000D02*
X136060000Y-118810000D01*
X125560000Y-102700000D02*
X125560000Y-118810000D01*
X125560000Y-102700000D02*
X136060000Y-102700000D01*
X125560000Y-118810000D02*
X136060000Y-118810000D01*
D10*
%TO.C,DS1*%
X107950000Y-113030000D02*
X107950000Y-110490000D01*
X118110000Y-110490000D02*
X118110000Y-113030000D01*
X107950000Y-110490000D02*
X118110000Y-110490000D01*
X107950000Y-113030000D02*
X118110000Y-113030000D01*
%TO.C,DB4*%
X120302380Y-85988095D02*
X119302380Y-85988095D01*
X119302380Y-85750000D01*
X119350000Y-85607142D01*
X119445238Y-85511904D01*
X119540476Y-85464285D01*
X119730952Y-85416666D01*
X119873809Y-85416666D01*
X120064285Y-85464285D01*
X120159523Y-85511904D01*
X120254761Y-85607142D01*
X120302380Y-85750000D01*
X120302380Y-85988095D01*
X119778571Y-84654761D02*
X119826190Y-84511904D01*
X119873809Y-84464285D01*
X119969047Y-84416666D01*
X120111904Y-84416666D01*
X120207142Y-84464285D01*
X120254761Y-84511904D01*
X120302380Y-84607142D01*
X120302380Y-84988095D01*
X119302380Y-84988095D01*
X119302380Y-84654761D01*
X119350000Y-84559523D01*
X119397619Y-84511904D01*
X119492857Y-84464285D01*
X119588095Y-84464285D01*
X119683333Y-84511904D01*
X119730952Y-84559523D01*
X119778571Y-84654761D01*
X119778571Y-84988095D01*
X119635714Y-83559523D02*
X120302380Y-83559523D01*
X119254761Y-83797619D02*
X119969047Y-84035714D01*
X119969047Y-83416666D01*
%TO.C,LION2*%
X169152380Y-106862380D02*
X169152380Y-107338571D01*
X168152380Y-107338571D01*
X169152380Y-106529047D02*
X168152380Y-106529047D01*
X168152380Y-105862380D02*
X168152380Y-105671904D01*
X168200000Y-105576666D01*
X168295238Y-105481428D01*
X168485714Y-105433809D01*
X168819047Y-105433809D01*
X169009523Y-105481428D01*
X169104761Y-105576666D01*
X169152380Y-105671904D01*
X169152380Y-105862380D01*
X169104761Y-105957619D01*
X169009523Y-106052857D01*
X168819047Y-106100476D01*
X168485714Y-106100476D01*
X168295238Y-106052857D01*
X168200000Y-105957619D01*
X168152380Y-105862380D01*
X169152380Y-105005238D02*
X168152380Y-105005238D01*
X169152380Y-104433809D01*
X168152380Y-104433809D01*
X168247619Y-104005238D02*
X168200000Y-103957619D01*
X168152380Y-103862380D01*
X168152380Y-103624285D01*
X168200000Y-103529047D01*
X168247619Y-103481428D01*
X168342857Y-103433809D01*
X168438095Y-103433809D01*
X168580952Y-103481428D01*
X169152380Y-104052857D01*
X169152380Y-103433809D01*
%TO.C,DB3*%
X159964380Y-72612095D02*
X158964380Y-72612095D01*
X158964380Y-72374000D01*
X159012000Y-72231142D01*
X159107238Y-72135904D01*
X159202476Y-72088285D01*
X159392952Y-72040666D01*
X159535809Y-72040666D01*
X159726285Y-72088285D01*
X159821523Y-72135904D01*
X159916761Y-72231142D01*
X159964380Y-72374000D01*
X159964380Y-72612095D01*
X159440571Y-71278761D02*
X159488190Y-71135904D01*
X159535809Y-71088285D01*
X159631047Y-71040666D01*
X159773904Y-71040666D01*
X159869142Y-71088285D01*
X159916761Y-71135904D01*
X159964380Y-71231142D01*
X159964380Y-71612095D01*
X158964380Y-71612095D01*
X158964380Y-71278761D01*
X159012000Y-71183523D01*
X159059619Y-71135904D01*
X159154857Y-71088285D01*
X159250095Y-71088285D01*
X159345333Y-71135904D01*
X159392952Y-71183523D01*
X159440571Y-71278761D01*
X159440571Y-71612095D01*
X158964380Y-70707333D02*
X158964380Y-70088285D01*
X159345333Y-70421619D01*
X159345333Y-70278761D01*
X159392952Y-70183523D01*
X159440571Y-70135904D01*
X159535809Y-70088285D01*
X159773904Y-70088285D01*
X159869142Y-70135904D01*
X159916761Y-70183523D01*
X159964380Y-70278761D01*
X159964380Y-70564476D01*
X159916761Y-70659714D01*
X159869142Y-70707333D01*
%TO.C,DB1*%
X162292380Y-112098095D02*
X161292380Y-112098095D01*
X161292380Y-111860000D01*
X161340000Y-111717142D01*
X161435238Y-111621904D01*
X161530476Y-111574285D01*
X161720952Y-111526666D01*
X161863809Y-111526666D01*
X162054285Y-111574285D01*
X162149523Y-111621904D01*
X162244761Y-111717142D01*
X162292380Y-111860000D01*
X162292380Y-112098095D01*
X161768571Y-110764761D02*
X161816190Y-110621904D01*
X161863809Y-110574285D01*
X161959047Y-110526666D01*
X162101904Y-110526666D01*
X162197142Y-110574285D01*
X162244761Y-110621904D01*
X162292380Y-110717142D01*
X162292380Y-111098095D01*
X161292380Y-111098095D01*
X161292380Y-110764761D01*
X161340000Y-110669523D01*
X161387619Y-110621904D01*
X161482857Y-110574285D01*
X161578095Y-110574285D01*
X161673333Y-110621904D01*
X161720952Y-110669523D01*
X161768571Y-110764761D01*
X161768571Y-111098095D01*
X162292380Y-109574285D02*
X162292380Y-110145714D01*
X162292380Y-109860000D02*
X161292380Y-109860000D01*
X161435238Y-109955238D01*
X161530476Y-110050476D01*
X161578095Y-110145714D01*
X151068571Y-118402857D02*
X151116190Y-118260000D01*
X151163809Y-118212380D01*
X151259047Y-118164761D01*
X151401904Y-118164761D01*
X151497142Y-118212380D01*
X151544761Y-118260000D01*
X151592380Y-118355238D01*
X151592380Y-118736190D01*
X150592380Y-118736190D01*
X150592380Y-118402857D01*
X150640000Y-118307619D01*
X150687619Y-118260000D01*
X150782857Y-118212380D01*
X150878095Y-118212380D01*
X150973333Y-118260000D01*
X151020952Y-118307619D01*
X151068571Y-118402857D01*
X151068571Y-118736190D01*
X151592380Y-117307619D02*
X151068571Y-117307619D01*
X150973333Y-117355238D01*
X150925714Y-117450476D01*
X150925714Y-117640952D01*
X150973333Y-117736190D01*
X151544761Y-117307619D02*
X151592380Y-117402857D01*
X151592380Y-117640952D01*
X151544761Y-117736190D01*
X151449523Y-117783809D01*
X151354285Y-117783809D01*
X151259047Y-117736190D01*
X151211428Y-117640952D01*
X151211428Y-117402857D01*
X151163809Y-117307619D01*
X150925714Y-116974285D02*
X150925714Y-116593333D01*
X150592380Y-116831428D02*
X151449523Y-116831428D01*
X151544761Y-116783809D01*
X151592380Y-116688571D01*
X151592380Y-116593333D01*
X150925714Y-116402857D02*
X150925714Y-116021904D01*
X150592380Y-116260000D02*
X151449523Y-116260000D01*
X151544761Y-116212380D01*
X151592380Y-116117142D01*
X151592380Y-116021904D01*
X151544761Y-115307619D02*
X151592380Y-115402857D01*
X151592380Y-115593333D01*
X151544761Y-115688571D01*
X151449523Y-115736190D01*
X151068571Y-115736190D01*
X150973333Y-115688571D01*
X150925714Y-115593333D01*
X150925714Y-115402857D01*
X150973333Y-115307619D01*
X151068571Y-115260000D01*
X151163809Y-115260000D01*
X151259047Y-115736190D01*
X151592380Y-114831428D02*
X150925714Y-114831428D01*
X151116190Y-114831428D02*
X151020952Y-114783809D01*
X150973333Y-114736190D01*
X150925714Y-114640952D01*
X150925714Y-114545714D01*
X150925714Y-114307619D02*
X151592380Y-114069523D01*
X150925714Y-113831428D02*
X151592380Y-114069523D01*
X151830476Y-114164761D01*
X151878095Y-114212380D01*
X151925714Y-114307619D01*
X151497142Y-112117142D02*
X151544761Y-112164761D01*
X151592380Y-112307619D01*
X151592380Y-112402857D01*
X151544761Y-112545714D01*
X151449523Y-112640952D01*
X151354285Y-112688571D01*
X151163809Y-112736190D01*
X151020952Y-112736190D01*
X150830476Y-112688571D01*
X150735238Y-112640952D01*
X150640000Y-112545714D01*
X150592380Y-112402857D01*
X150592380Y-112307619D01*
X150640000Y-112164761D01*
X150687619Y-112117142D01*
X151592380Y-111688571D02*
X150592380Y-111688571D01*
X151592380Y-111260000D02*
X151068571Y-111260000D01*
X150973333Y-111307619D01*
X150925714Y-111402857D01*
X150925714Y-111545714D01*
X150973333Y-111640952D01*
X151020952Y-111688571D01*
X151592380Y-110355238D02*
X151068571Y-110355238D01*
X150973333Y-110402857D01*
X150925714Y-110498095D01*
X150925714Y-110688571D01*
X150973333Y-110783809D01*
X151544761Y-110355238D02*
X151592380Y-110450476D01*
X151592380Y-110688571D01*
X151544761Y-110783809D01*
X151449523Y-110831428D01*
X151354285Y-110831428D01*
X151259047Y-110783809D01*
X151211428Y-110688571D01*
X151211428Y-110450476D01*
X151163809Y-110355238D01*
X151592380Y-109879047D02*
X150925714Y-109879047D01*
X151116190Y-109879047D02*
X151020952Y-109831428D01*
X150973333Y-109783809D01*
X150925714Y-109688571D01*
X150925714Y-109593333D01*
X150925714Y-108831428D02*
X151735238Y-108831428D01*
X151830476Y-108879047D01*
X151878095Y-108926666D01*
X151925714Y-109021904D01*
X151925714Y-109164761D01*
X151878095Y-109260000D01*
X151544761Y-108831428D02*
X151592380Y-108926666D01*
X151592380Y-109117142D01*
X151544761Y-109212380D01*
X151497142Y-109260000D01*
X151401904Y-109307619D01*
X151116190Y-109307619D01*
X151020952Y-109260000D01*
X150973333Y-109212380D01*
X150925714Y-109117142D01*
X150925714Y-108926666D01*
X150973333Y-108831428D01*
X151544761Y-107974285D02*
X151592380Y-108069523D01*
X151592380Y-108260000D01*
X151544761Y-108355238D01*
X151449523Y-108402857D01*
X151068571Y-108402857D01*
X150973333Y-108355238D01*
X150925714Y-108260000D01*
X150925714Y-108069523D01*
X150973333Y-107974285D01*
X151068571Y-107926666D01*
X151163809Y-107926666D01*
X151259047Y-108402857D01*
X151592380Y-107498095D02*
X150925714Y-107498095D01*
X151116190Y-107498095D02*
X151020952Y-107450476D01*
X150973333Y-107402857D01*
X150925714Y-107307619D01*
X150925714Y-107212380D01*
X151592380Y-105593333D02*
X151592380Y-106164761D01*
X151592380Y-105879047D02*
X150592380Y-105879047D01*
X150735238Y-105974285D01*
X150830476Y-106069523D01*
X150878095Y-106164761D01*
X151306666Y-105212380D02*
X151306666Y-104736190D01*
X151592380Y-105307619D02*
X150592380Y-104974285D01*
X151592380Y-104640952D01*
X155440000Y-123421904D02*
X155392380Y-123517142D01*
X155392380Y-123660000D01*
X155440000Y-123802857D01*
X155535238Y-123898095D01*
X155630476Y-123945714D01*
X155820952Y-123993333D01*
X155963809Y-123993333D01*
X156154285Y-123945714D01*
X156249523Y-123898095D01*
X156344761Y-123802857D01*
X156392380Y-123660000D01*
X156392380Y-123564761D01*
X156344761Y-123421904D01*
X156297142Y-123374285D01*
X155963809Y-123374285D01*
X155963809Y-123564761D01*
X156392380Y-122945714D02*
X155392380Y-122945714D01*
X156392380Y-122374285D01*
X155392380Y-122374285D01*
X156392380Y-121898095D02*
X155392380Y-121898095D01*
X155392380Y-121660000D01*
X155440000Y-121517142D01*
X155535238Y-121421904D01*
X155630476Y-121374285D01*
X155820952Y-121326666D01*
X155963809Y-121326666D01*
X156154285Y-121374285D01*
X156249523Y-121421904D01*
X156344761Y-121517142D01*
X156392380Y-121660000D01*
X156392380Y-121898095D01*
X145792380Y-122902857D02*
X145792380Y-123379047D01*
X146268571Y-123426666D01*
X146220952Y-123379047D01*
X146173333Y-123283809D01*
X146173333Y-123045714D01*
X146220952Y-122950476D01*
X146268571Y-122902857D01*
X146363809Y-122855238D01*
X146601904Y-122855238D01*
X146697142Y-122902857D01*
X146744761Y-122950476D01*
X146792380Y-123045714D01*
X146792380Y-123283809D01*
X146744761Y-123379047D01*
X146697142Y-123426666D01*
X146125714Y-122521904D02*
X146792380Y-122283809D01*
X146125714Y-122045714D01*
X147268571Y-103307619D02*
X147316190Y-103164761D01*
X147363809Y-103117142D01*
X147459047Y-103069523D01*
X147601904Y-103069523D01*
X147697142Y-103117142D01*
X147744761Y-103164761D01*
X147792380Y-103260000D01*
X147792380Y-103640952D01*
X146792380Y-103640952D01*
X146792380Y-103307619D01*
X146840000Y-103212380D01*
X146887619Y-103164761D01*
X146982857Y-103117142D01*
X147078095Y-103117142D01*
X147173333Y-103164761D01*
X147220952Y-103212380D01*
X147268571Y-103307619D01*
X147268571Y-103640952D01*
X147411428Y-102640952D02*
X147411428Y-101879047D01*
X147792380Y-102260000D02*
X147030476Y-102260000D01*
X154868571Y-103307619D02*
X154916190Y-103164761D01*
X154963809Y-103117142D01*
X155059047Y-103069523D01*
X155201904Y-103069523D01*
X155297142Y-103117142D01*
X155344761Y-103164761D01*
X155392380Y-103260000D01*
X155392380Y-103640952D01*
X154392380Y-103640952D01*
X154392380Y-103307619D01*
X154440000Y-103212380D01*
X154487619Y-103164761D01*
X154582857Y-103117142D01*
X154678095Y-103117142D01*
X154773333Y-103164761D01*
X154820952Y-103212380D01*
X154868571Y-103307619D01*
X154868571Y-103640952D01*
X155011428Y-102640952D02*
X155011428Y-101879047D01*
X143292380Y-105012380D02*
X143292380Y-104821904D01*
X143340000Y-104726666D01*
X143435238Y-104631428D01*
X143625714Y-104583809D01*
X143959047Y-104583809D01*
X144149523Y-104631428D01*
X144244761Y-104726666D01*
X144292380Y-104821904D01*
X144292380Y-105012380D01*
X144244761Y-105107619D01*
X144149523Y-105202857D01*
X143959047Y-105250476D01*
X143625714Y-105250476D01*
X143435238Y-105202857D01*
X143340000Y-105107619D01*
X143292380Y-105012380D01*
X143625714Y-103726666D02*
X144292380Y-103726666D01*
X143625714Y-104155238D02*
X144149523Y-104155238D01*
X144244761Y-104107619D01*
X144292380Y-104012380D01*
X144292380Y-103869523D01*
X144244761Y-103774285D01*
X144197142Y-103726666D01*
X143625714Y-103393333D02*
X143625714Y-103012380D01*
X143292380Y-103250476D02*
X144149523Y-103250476D01*
X144244761Y-103202857D01*
X144292380Y-103107619D01*
X144292380Y-103012380D01*
X143911428Y-102679047D02*
X143911428Y-101917142D01*
X144292380Y-102298095D02*
X143530476Y-102298095D01*
X157892380Y-105012380D02*
X157892380Y-104821904D01*
X157940000Y-104726666D01*
X158035238Y-104631428D01*
X158225714Y-104583809D01*
X158559047Y-104583809D01*
X158749523Y-104631428D01*
X158844761Y-104726666D01*
X158892380Y-104821904D01*
X158892380Y-105012380D01*
X158844761Y-105107619D01*
X158749523Y-105202857D01*
X158559047Y-105250476D01*
X158225714Y-105250476D01*
X158035238Y-105202857D01*
X157940000Y-105107619D01*
X157892380Y-105012380D01*
X158225714Y-103726666D02*
X158892380Y-103726666D01*
X158225714Y-104155238D02*
X158749523Y-104155238D01*
X158844761Y-104107619D01*
X158892380Y-104012380D01*
X158892380Y-103869523D01*
X158844761Y-103774285D01*
X158797142Y-103726666D01*
X158225714Y-103393333D02*
X158225714Y-103012380D01*
X157892380Y-103250476D02*
X158749523Y-103250476D01*
X158844761Y-103202857D01*
X158892380Y-103107619D01*
X158892380Y-103012380D01*
X158511428Y-102679047D02*
X158511428Y-101917142D01*
X150078095Y-122312380D02*
X150078095Y-123121904D01*
X150125714Y-123217142D01*
X150173333Y-123264761D01*
X150268571Y-123312380D01*
X150459047Y-123312380D01*
X150554285Y-123264761D01*
X150601904Y-123217142D01*
X150649523Y-123121904D01*
X150649523Y-122312380D01*
X151078095Y-123264761D02*
X151220952Y-123312380D01*
X151459047Y-123312380D01*
X151554285Y-123264761D01*
X151601904Y-123217142D01*
X151649523Y-123121904D01*
X151649523Y-123026666D01*
X151601904Y-122931428D01*
X151554285Y-122883809D01*
X151459047Y-122836190D01*
X151268571Y-122788571D01*
X151173333Y-122740952D01*
X151125714Y-122693333D01*
X151078095Y-122598095D01*
X151078095Y-122502857D01*
X151125714Y-122407619D01*
X151173333Y-122360000D01*
X151268571Y-122312380D01*
X151506666Y-122312380D01*
X151649523Y-122360000D01*
X152411428Y-122788571D02*
X152554285Y-122836190D01*
X152601904Y-122883809D01*
X152649523Y-122979047D01*
X152649523Y-123121904D01*
X152601904Y-123217142D01*
X152554285Y-123264761D01*
X152459047Y-123312380D01*
X152078095Y-123312380D01*
X152078095Y-122312380D01*
X152411428Y-122312380D01*
X152506666Y-122360000D01*
X152554285Y-122407619D01*
X152601904Y-122502857D01*
X152601904Y-122598095D01*
X152554285Y-122693333D01*
X152506666Y-122740952D01*
X152411428Y-122788571D01*
X152078095Y-122788571D01*
X159111428Y-120840952D02*
X159111428Y-120079047D01*
X143911428Y-120940952D02*
X143911428Y-120179047D01*
X144292380Y-120560000D02*
X143530476Y-120560000D01*
%TO.C,DB2*%
X162591904Y-94222380D02*
X162591904Y-93222380D01*
X162830000Y-93222380D01*
X162972857Y-93270000D01*
X163068095Y-93365238D01*
X163115714Y-93460476D01*
X163163333Y-93650952D01*
X163163333Y-93793809D01*
X163115714Y-93984285D01*
X163068095Y-94079523D01*
X162972857Y-94174761D01*
X162830000Y-94222380D01*
X162591904Y-94222380D01*
X163925238Y-93698571D02*
X164068095Y-93746190D01*
X164115714Y-93793809D01*
X164163333Y-93889047D01*
X164163333Y-94031904D01*
X164115714Y-94127142D01*
X164068095Y-94174761D01*
X163972857Y-94222380D01*
X163591904Y-94222380D01*
X163591904Y-93222380D01*
X163925238Y-93222380D01*
X164020476Y-93270000D01*
X164068095Y-93317619D01*
X164115714Y-93412857D01*
X164115714Y-93508095D01*
X164068095Y-93603333D01*
X164020476Y-93650952D01*
X163925238Y-93698571D01*
X163591904Y-93698571D01*
X164544285Y-93317619D02*
X164591904Y-93270000D01*
X164687142Y-93222380D01*
X164925238Y-93222380D01*
X165020476Y-93270000D01*
X165068095Y-93317619D01*
X165115714Y-93412857D01*
X165115714Y-93508095D01*
X165068095Y-93650952D01*
X164496666Y-94222380D01*
X165115714Y-94222380D01*
%TO.C,LION1*%
X169152380Y-100512380D02*
X169152380Y-100988571D01*
X168152380Y-100988571D01*
X169152380Y-100179047D02*
X168152380Y-100179047D01*
X168152380Y-99512380D02*
X168152380Y-99321904D01*
X168200000Y-99226666D01*
X168295238Y-99131428D01*
X168485714Y-99083809D01*
X168819047Y-99083809D01*
X169009523Y-99131428D01*
X169104761Y-99226666D01*
X169152380Y-99321904D01*
X169152380Y-99512380D01*
X169104761Y-99607619D01*
X169009523Y-99702857D01*
X168819047Y-99750476D01*
X168485714Y-99750476D01*
X168295238Y-99702857D01*
X168200000Y-99607619D01*
X168152380Y-99512380D01*
X169152380Y-98655238D02*
X168152380Y-98655238D01*
X169152380Y-98083809D01*
X168152380Y-98083809D01*
X169152380Y-97083809D02*
X169152380Y-97655238D01*
X169152380Y-97369523D02*
X168152380Y-97369523D01*
X168295238Y-97464761D01*
X168390476Y-97560000D01*
X168438095Y-97655238D01*
%TO.C,VR1*%
X129500476Y-101152380D02*
X129833809Y-102152380D01*
X130167142Y-101152380D01*
X131071904Y-102152380D02*
X130738571Y-101676190D01*
X130500476Y-102152380D02*
X130500476Y-101152380D01*
X130881428Y-101152380D01*
X130976666Y-101200000D01*
X131024285Y-101247619D01*
X131071904Y-101342857D01*
X131071904Y-101485714D01*
X131024285Y-101580952D01*
X130976666Y-101628571D01*
X130881428Y-101676190D01*
X130500476Y-101676190D01*
X132024285Y-102152380D02*
X131452857Y-102152380D01*
X131738571Y-102152380D02*
X131738571Y-101152380D01*
X131643333Y-101295238D01*
X131548095Y-101390476D01*
X131452857Y-101438095D01*
%TO.C,H1*%
X109728095Y-66102380D02*
X109728095Y-65102380D01*
X109728095Y-65578571D02*
X110299523Y-65578571D01*
X110299523Y-66102380D02*
X110299523Y-65102380D01*
X111299523Y-66102380D02*
X110728095Y-66102380D01*
X111013809Y-66102380D02*
X111013809Y-65102380D01*
X110918571Y-65245238D01*
X110823333Y-65340476D01*
X110728095Y-65388095D01*
%TO.C,H2*%
X164338095Y-66102380D02*
X164338095Y-65102380D01*
X164338095Y-65578571D02*
X164909523Y-65578571D01*
X164909523Y-66102380D02*
X164909523Y-65102380D01*
X165338095Y-65197619D02*
X165385714Y-65150000D01*
X165480952Y-65102380D01*
X165719047Y-65102380D01*
X165814285Y-65150000D01*
X165861904Y-65197619D01*
X165909523Y-65292857D01*
X165909523Y-65388095D01*
X165861904Y-65530952D01*
X165290476Y-66102380D01*
X165909523Y-66102380D01*
%TO.C,H3*%
X114808095Y-121102380D02*
X114808095Y-120102380D01*
X114808095Y-120578571D02*
X115379523Y-120578571D01*
X115379523Y-121102380D02*
X115379523Y-120102380D01*
X115760476Y-120102380D02*
X116379523Y-120102380D01*
X116046190Y-120483333D01*
X116189047Y-120483333D01*
X116284285Y-120530952D01*
X116331904Y-120578571D01*
X116379523Y-120673809D01*
X116379523Y-120911904D01*
X116331904Y-121007142D01*
X116284285Y-121054761D01*
X116189047Y-121102380D01*
X115903333Y-121102380D01*
X115808095Y-121054761D01*
X115760476Y-121007142D01*
%TO.C,H4*%
X164338095Y-116902380D02*
X164338095Y-115902380D01*
X164338095Y-116378571D02*
X164909523Y-116378571D01*
X164909523Y-116902380D02*
X164909523Y-115902380D01*
X165814285Y-116235714D02*
X165814285Y-116902380D01*
X165576190Y-115854761D02*
X165338095Y-116569047D01*
X165957142Y-116569047D01*
%TO.C,DS1*%
X111567619Y-109112380D02*
X111758095Y-109112380D01*
X111853333Y-109160000D01*
X111948571Y-109255238D01*
X111996190Y-109445714D01*
X111996190Y-109779047D01*
X111948571Y-109969523D01*
X111853333Y-110064761D01*
X111758095Y-110112380D01*
X111567619Y-110112380D01*
X111472380Y-110064761D01*
X111377142Y-109969523D01*
X111329523Y-109779047D01*
X111329523Y-109445714D01*
X111377142Y-109255238D01*
X111472380Y-109160000D01*
X111567619Y-109112380D01*
X112900952Y-110112380D02*
X112424761Y-110112380D01*
X112424761Y-109112380D01*
X113234285Y-109588571D02*
X113567619Y-109588571D01*
X113710476Y-110112380D02*
X113234285Y-110112380D01*
X113234285Y-109112380D01*
X113710476Y-109112380D01*
X114139047Y-110112380D02*
X114139047Y-109112380D01*
X114377142Y-109112380D01*
X114520000Y-109160000D01*
X114615238Y-109255238D01*
X114662857Y-109350476D01*
X114710476Y-109540952D01*
X114710476Y-109683809D01*
X114662857Y-109874285D01*
X114615238Y-109969523D01*
X114520000Y-110064761D01*
X114377142Y-110112380D01*
X114139047Y-110112380D01*
%TD*%
M02*
